%TF.GenerationSoftware,KiCad,Pcbnew,10.0.4*%
%TF.CreationDate,2026-06-28T16:28:20+05:30*%
%TF.ProjectId,Jazz,4a617a7a-2e6b-4696-9361-645f70636258,rev?*%
%TF.SameCoordinates,Original*%
%TF.FileFunction,Legend,Top*%
%TF.FilePolarity,Positive*%
%FSLAX46Y46*%
G04 Gerber Fmt 4.6, Leading zero omitted, Abs format (unit mm)*
G04 Created by KiCad (PCBNEW 10.0.4) date 2026-06-28 16:28:20*
%MOMM*%
%LPD*%
G01*
G04 APERTURE LIST*
%ADD10C,0.150000*%
%ADD11C,0.120000*%
%ADD12C,0.250000*%
%ADD13C,0.060000*%
%ADD14C,0.300000*%
G04 APERTURE END LIST*
D10*
X59556191Y-58284819D02*
X59556191Y-57284819D01*
X60746666Y-57237200D02*
X59889524Y-58522914D01*
X61270476Y-57284819D02*
X61460952Y-57284819D01*
X61460952Y-57284819D02*
X61556190Y-57332438D01*
X61556190Y-57332438D02*
X61651428Y-57427676D01*
X61651428Y-57427676D02*
X61699047Y-57618152D01*
X61699047Y-57618152D02*
X61699047Y-57951485D01*
X61699047Y-57951485D02*
X61651428Y-58141961D01*
X61651428Y-58141961D02*
X61556190Y-58237200D01*
X61556190Y-58237200D02*
X61460952Y-58284819D01*
X61460952Y-58284819D02*
X61270476Y-58284819D01*
X61270476Y-58284819D02*
X61175238Y-58237200D01*
X61175238Y-58237200D02*
X61080000Y-58141961D01*
X61080000Y-58141961D02*
X61032381Y-57951485D01*
X61032381Y-57951485D02*
X61032381Y-57618152D01*
X61032381Y-57618152D02*
X61080000Y-57427676D01*
X61080000Y-57427676D02*
X61175238Y-57332438D01*
X61175238Y-57332438D02*
X61270476Y-57284819D01*
X62651428Y-58284819D02*
X62080000Y-58284819D01*
X62365714Y-58284819D02*
X62365714Y-57284819D01*
X62365714Y-57284819D02*
X62270476Y-57427676D01*
X62270476Y-57427676D02*
X62175238Y-57522914D01*
X62175238Y-57522914D02*
X62080000Y-57570533D01*
X65314819Y-56699523D02*
X66314819Y-56366190D01*
X66314819Y-56366190D02*
X65314819Y-56032857D01*
X66219580Y-55128095D02*
X66267200Y-55175714D01*
X66267200Y-55175714D02*
X66314819Y-55318571D01*
X66314819Y-55318571D02*
X66314819Y-55413809D01*
X66314819Y-55413809D02*
X66267200Y-55556666D01*
X66267200Y-55556666D02*
X66171961Y-55651904D01*
X66171961Y-55651904D02*
X66076723Y-55699523D01*
X66076723Y-55699523D02*
X65886247Y-55747142D01*
X65886247Y-55747142D02*
X65743390Y-55747142D01*
X65743390Y-55747142D02*
X65552914Y-55699523D01*
X65552914Y-55699523D02*
X65457676Y-55651904D01*
X65457676Y-55651904D02*
X65362438Y-55556666D01*
X65362438Y-55556666D02*
X65314819Y-55413809D01*
X65314819Y-55413809D02*
X65314819Y-55318571D01*
X65314819Y-55318571D02*
X65362438Y-55175714D01*
X65362438Y-55175714D02*
X65410057Y-55128095D01*
X66219580Y-54128095D02*
X66267200Y-54175714D01*
X66267200Y-54175714D02*
X66314819Y-54318571D01*
X66314819Y-54318571D02*
X66314819Y-54413809D01*
X66314819Y-54413809D02*
X66267200Y-54556666D01*
X66267200Y-54556666D02*
X66171961Y-54651904D01*
X66171961Y-54651904D02*
X66076723Y-54699523D01*
X66076723Y-54699523D02*
X65886247Y-54747142D01*
X65886247Y-54747142D02*
X65743390Y-54747142D01*
X65743390Y-54747142D02*
X65552914Y-54699523D01*
X65552914Y-54699523D02*
X65457676Y-54651904D01*
X65457676Y-54651904D02*
X65362438Y-54556666D01*
X65362438Y-54556666D02*
X65314819Y-54413809D01*
X65314819Y-54413809D02*
X65314819Y-54318571D01*
X65314819Y-54318571D02*
X65362438Y-54175714D01*
X65362438Y-54175714D02*
X65410057Y-54128095D01*
X66314819Y-53175714D02*
X66314819Y-53747142D01*
X66314819Y-53461428D02*
X65314819Y-53461428D01*
X65314819Y-53461428D02*
X65457676Y-53556666D01*
X65457676Y-53556666D02*
X65552914Y-53651904D01*
X65552914Y-53651904D02*
X65600533Y-53747142D01*
X64419405Y-58264819D02*
X64419405Y-57264819D01*
X64419405Y-57264819D02*
X64657500Y-57264819D01*
X64657500Y-57264819D02*
X64800357Y-57312438D01*
X64800357Y-57312438D02*
X64895595Y-57407676D01*
X64895595Y-57407676D02*
X64943214Y-57502914D01*
X64943214Y-57502914D02*
X64990833Y-57693390D01*
X64990833Y-57693390D02*
X64990833Y-57836247D01*
X64990833Y-57836247D02*
X64943214Y-58026723D01*
X64943214Y-58026723D02*
X64895595Y-58121961D01*
X64895595Y-58121961D02*
X64800357Y-58217200D01*
X64800357Y-58217200D02*
X64657500Y-58264819D01*
X64657500Y-58264819D02*
X64419405Y-58264819D01*
X65943214Y-58264819D02*
X65371786Y-58264819D01*
X65657500Y-58264819D02*
X65657500Y-57264819D01*
X65657500Y-57264819D02*
X65562262Y-57407676D01*
X65562262Y-57407676D02*
X65467024Y-57502914D01*
X65467024Y-57502914D02*
X65371786Y-57550533D01*
X79679524Y-77317200D02*
X79822381Y-77364819D01*
X79822381Y-77364819D02*
X80060476Y-77364819D01*
X80060476Y-77364819D02*
X80155714Y-77317200D01*
X80155714Y-77317200D02*
X80203333Y-77269580D01*
X80203333Y-77269580D02*
X80250952Y-77174342D01*
X80250952Y-77174342D02*
X80250952Y-77079104D01*
X80250952Y-77079104D02*
X80203333Y-76983866D01*
X80203333Y-76983866D02*
X80155714Y-76936247D01*
X80155714Y-76936247D02*
X80060476Y-76888628D01*
X80060476Y-76888628D02*
X79870000Y-76841009D01*
X79870000Y-76841009D02*
X79774762Y-76793390D01*
X79774762Y-76793390D02*
X79727143Y-76745771D01*
X79727143Y-76745771D02*
X79679524Y-76650533D01*
X79679524Y-76650533D02*
X79679524Y-76555295D01*
X79679524Y-76555295D02*
X79727143Y-76460057D01*
X79727143Y-76460057D02*
X79774762Y-76412438D01*
X79774762Y-76412438D02*
X79870000Y-76364819D01*
X79870000Y-76364819D02*
X80108095Y-76364819D01*
X80108095Y-76364819D02*
X80250952Y-76412438D01*
X80584286Y-76698152D02*
X80774762Y-77364819D01*
X80774762Y-77364819D02*
X80965238Y-76888628D01*
X80965238Y-76888628D02*
X81155714Y-77364819D01*
X81155714Y-77364819D02*
X81346190Y-76698152D01*
X81727143Y-77364819D02*
X81727143Y-76698152D01*
X81727143Y-76364819D02*
X81679524Y-76412438D01*
X81679524Y-76412438D02*
X81727143Y-76460057D01*
X81727143Y-76460057D02*
X81774762Y-76412438D01*
X81774762Y-76412438D02*
X81727143Y-76364819D01*
X81727143Y-76364819D02*
X81727143Y-76460057D01*
X82060476Y-76698152D02*
X82441428Y-76698152D01*
X82203333Y-76364819D02*
X82203333Y-77221961D01*
X82203333Y-77221961D02*
X82250952Y-77317200D01*
X82250952Y-77317200D02*
X82346190Y-77364819D01*
X82346190Y-77364819D02*
X82441428Y-77364819D01*
X83203333Y-77317200D02*
X83108095Y-77364819D01*
X83108095Y-77364819D02*
X82917619Y-77364819D01*
X82917619Y-77364819D02*
X82822381Y-77317200D01*
X82822381Y-77317200D02*
X82774762Y-77269580D01*
X82774762Y-77269580D02*
X82727143Y-77174342D01*
X82727143Y-77174342D02*
X82727143Y-76888628D01*
X82727143Y-76888628D02*
X82774762Y-76793390D01*
X82774762Y-76793390D02*
X82822381Y-76745771D01*
X82822381Y-76745771D02*
X82917619Y-76698152D01*
X82917619Y-76698152D02*
X83108095Y-76698152D01*
X83108095Y-76698152D02*
X83203333Y-76745771D01*
X83631905Y-77364819D02*
X83631905Y-76364819D01*
X84060476Y-77364819D02*
X84060476Y-76841009D01*
X84060476Y-76841009D02*
X84012857Y-76745771D01*
X84012857Y-76745771D02*
X83917619Y-76698152D01*
X83917619Y-76698152D02*
X83774762Y-76698152D01*
X83774762Y-76698152D02*
X83679524Y-76745771D01*
X83679524Y-76745771D02*
X83631905Y-76793390D01*
X85060476Y-77364819D02*
X84489048Y-77364819D01*
X84774762Y-77364819D02*
X84774762Y-76364819D01*
X84774762Y-76364819D02*
X84679524Y-76507676D01*
X84679524Y-76507676D02*
X84584286Y-76602914D01*
X84584286Y-76602914D02*
X84489048Y-76650533D01*
X72501905Y-58044819D02*
X72501905Y-57044819D01*
X72501905Y-57044819D02*
X72882857Y-57044819D01*
X72882857Y-57044819D02*
X72978095Y-57092438D01*
X72978095Y-57092438D02*
X73025714Y-57140057D01*
X73025714Y-57140057D02*
X73073333Y-57235295D01*
X73073333Y-57235295D02*
X73073333Y-57378152D01*
X73073333Y-57378152D02*
X73025714Y-57473390D01*
X73025714Y-57473390D02*
X72978095Y-57521009D01*
X72978095Y-57521009D02*
X72882857Y-57568628D01*
X72882857Y-57568628D02*
X72501905Y-57568628D01*
X74025714Y-58044819D02*
X73454286Y-58044819D01*
X73740000Y-58044819D02*
X73740000Y-57044819D01*
X73740000Y-57044819D02*
X73644762Y-57187676D01*
X73644762Y-57187676D02*
X73549524Y-57282914D01*
X73549524Y-57282914D02*
X73454286Y-57330533D01*
X69658095Y-58044819D02*
X69658095Y-57044819D01*
X69658095Y-57044819D02*
X70229523Y-58044819D01*
X70229523Y-58044819D02*
X70229523Y-57044819D01*
X71229523Y-58044819D02*
X70658095Y-58044819D01*
X70943809Y-58044819D02*
X70943809Y-57044819D01*
X70943809Y-57044819D02*
X70848571Y-57187676D01*
X70848571Y-57187676D02*
X70753333Y-57282914D01*
X70753333Y-57282914D02*
X70658095Y-57330533D01*
X82759524Y-77317200D02*
X82902381Y-77364819D01*
X82902381Y-77364819D02*
X83140476Y-77364819D01*
X83140476Y-77364819D02*
X83235714Y-77317200D01*
X83235714Y-77317200D02*
X83283333Y-77269580D01*
X83283333Y-77269580D02*
X83330952Y-77174342D01*
X83330952Y-77174342D02*
X83330952Y-77079104D01*
X83330952Y-77079104D02*
X83283333Y-76983866D01*
X83283333Y-76983866D02*
X83235714Y-76936247D01*
X83235714Y-76936247D02*
X83140476Y-76888628D01*
X83140476Y-76888628D02*
X82950000Y-76841009D01*
X82950000Y-76841009D02*
X82854762Y-76793390D01*
X82854762Y-76793390D02*
X82807143Y-76745771D01*
X82807143Y-76745771D02*
X82759524Y-76650533D01*
X82759524Y-76650533D02*
X82759524Y-76555295D01*
X82759524Y-76555295D02*
X82807143Y-76460057D01*
X82807143Y-76460057D02*
X82854762Y-76412438D01*
X82854762Y-76412438D02*
X82950000Y-76364819D01*
X82950000Y-76364819D02*
X83188095Y-76364819D01*
X83188095Y-76364819D02*
X83330952Y-76412438D01*
X83664286Y-76698152D02*
X83854762Y-77364819D01*
X83854762Y-77364819D02*
X84045238Y-76888628D01*
X84045238Y-76888628D02*
X84235714Y-77364819D01*
X84235714Y-77364819D02*
X84426190Y-76698152D01*
X84807143Y-77364819D02*
X84807143Y-76698152D01*
X84807143Y-76364819D02*
X84759524Y-76412438D01*
X84759524Y-76412438D02*
X84807143Y-76460057D01*
X84807143Y-76460057D02*
X84854762Y-76412438D01*
X84854762Y-76412438D02*
X84807143Y-76364819D01*
X84807143Y-76364819D02*
X84807143Y-76460057D01*
X85140476Y-76698152D02*
X85521428Y-76698152D01*
X85283333Y-76364819D02*
X85283333Y-77221961D01*
X85283333Y-77221961D02*
X85330952Y-77317200D01*
X85330952Y-77317200D02*
X85426190Y-77364819D01*
X85426190Y-77364819D02*
X85521428Y-77364819D01*
X86283333Y-77317200D02*
X86188095Y-77364819D01*
X86188095Y-77364819D02*
X85997619Y-77364819D01*
X85997619Y-77364819D02*
X85902381Y-77317200D01*
X85902381Y-77317200D02*
X85854762Y-77269580D01*
X85854762Y-77269580D02*
X85807143Y-77174342D01*
X85807143Y-77174342D02*
X85807143Y-76888628D01*
X85807143Y-76888628D02*
X85854762Y-76793390D01*
X85854762Y-76793390D02*
X85902381Y-76745771D01*
X85902381Y-76745771D02*
X85997619Y-76698152D01*
X85997619Y-76698152D02*
X86188095Y-76698152D01*
X86188095Y-76698152D02*
X86283333Y-76745771D01*
X86711905Y-77364819D02*
X86711905Y-76364819D01*
X87140476Y-77364819D02*
X87140476Y-76841009D01*
X87140476Y-76841009D02*
X87092857Y-76745771D01*
X87092857Y-76745771D02*
X86997619Y-76698152D01*
X86997619Y-76698152D02*
X86854762Y-76698152D01*
X86854762Y-76698152D02*
X86759524Y-76745771D01*
X86759524Y-76745771D02*
X86711905Y-76793390D01*
X87569048Y-76460057D02*
X87616667Y-76412438D01*
X87616667Y-76412438D02*
X87711905Y-76364819D01*
X87711905Y-76364819D02*
X87950000Y-76364819D01*
X87950000Y-76364819D02*
X88045238Y-76412438D01*
X88045238Y-76412438D02*
X88092857Y-76460057D01*
X88092857Y-76460057D02*
X88140476Y-76555295D01*
X88140476Y-76555295D02*
X88140476Y-76650533D01*
X88140476Y-76650533D02*
X88092857Y-76793390D01*
X88092857Y-76793390D02*
X87521429Y-77364819D01*
X87521429Y-77364819D02*
X88140476Y-77364819D01*
X69623333Y-68939580D02*
X69575714Y-68987200D01*
X69575714Y-68987200D02*
X69432857Y-69034819D01*
X69432857Y-69034819D02*
X69337619Y-69034819D01*
X69337619Y-69034819D02*
X69194762Y-68987200D01*
X69194762Y-68987200D02*
X69099524Y-68891961D01*
X69099524Y-68891961D02*
X69051905Y-68796723D01*
X69051905Y-68796723D02*
X69004286Y-68606247D01*
X69004286Y-68606247D02*
X69004286Y-68463390D01*
X69004286Y-68463390D02*
X69051905Y-68272914D01*
X69051905Y-68272914D02*
X69099524Y-68177676D01*
X69099524Y-68177676D02*
X69194762Y-68082438D01*
X69194762Y-68082438D02*
X69337619Y-68034819D01*
X69337619Y-68034819D02*
X69432857Y-68034819D01*
X69432857Y-68034819D02*
X69575714Y-68082438D01*
X69575714Y-68082438D02*
X69623333Y-68130057D01*
X70480476Y-68368152D02*
X70480476Y-69034819D01*
X70242381Y-67987200D02*
X70004286Y-68701485D01*
X70004286Y-68701485D02*
X70623333Y-68701485D01*
X56792438Y-60478095D02*
X56744819Y-60573333D01*
X56744819Y-60573333D02*
X56744819Y-60716190D01*
X56744819Y-60716190D02*
X56792438Y-60859047D01*
X56792438Y-60859047D02*
X56887676Y-60954285D01*
X56887676Y-60954285D02*
X56982914Y-61001904D01*
X56982914Y-61001904D02*
X57173390Y-61049523D01*
X57173390Y-61049523D02*
X57316247Y-61049523D01*
X57316247Y-61049523D02*
X57506723Y-61001904D01*
X57506723Y-61001904D02*
X57601961Y-60954285D01*
X57601961Y-60954285D02*
X57697200Y-60859047D01*
X57697200Y-60859047D02*
X57744819Y-60716190D01*
X57744819Y-60716190D02*
X57744819Y-60620952D01*
X57744819Y-60620952D02*
X57697200Y-60478095D01*
X57697200Y-60478095D02*
X57649580Y-60430476D01*
X57649580Y-60430476D02*
X57316247Y-60430476D01*
X57316247Y-60430476D02*
X57316247Y-60620952D01*
X57744819Y-60001904D02*
X56744819Y-60001904D01*
X56744819Y-60001904D02*
X57744819Y-59430476D01*
X57744819Y-59430476D02*
X56744819Y-59430476D01*
X57744819Y-58954285D02*
X56744819Y-58954285D01*
X56744819Y-58954285D02*
X56744819Y-58716190D01*
X56744819Y-58716190D02*
X56792438Y-58573333D01*
X56792438Y-58573333D02*
X56887676Y-58478095D01*
X56887676Y-58478095D02*
X56982914Y-58430476D01*
X56982914Y-58430476D02*
X57173390Y-58382857D01*
X57173390Y-58382857D02*
X57316247Y-58382857D01*
X57316247Y-58382857D02*
X57506723Y-58430476D01*
X57506723Y-58430476D02*
X57601961Y-58478095D01*
X57601961Y-58478095D02*
X57697200Y-58573333D01*
X57697200Y-58573333D02*
X57744819Y-58716190D01*
X57744819Y-58716190D02*
X57744819Y-58954285D01*
X57744819Y-57430476D02*
X57744819Y-58001904D01*
X57744819Y-57716190D02*
X56744819Y-57716190D01*
X56744819Y-57716190D02*
X56887676Y-57811428D01*
X56887676Y-57811428D02*
X56982914Y-57906666D01*
X56982914Y-57906666D02*
X57030533Y-58001904D01*
%TO.C,C6*%
D11*
X89391252Y-68865000D02*
X88868748Y-68865000D01*
X89391252Y-70335000D02*
X88868748Y-70335000D01*
%TO.C,U2*%
X85617500Y-71580000D02*
X87437500Y-71580000D01*
X85617500Y-71630000D02*
X85617500Y-71580000D01*
X85617500Y-74700000D02*
X85617500Y-74650000D01*
X87437500Y-71580000D02*
X87437500Y-71630000D01*
X87437500Y-72750000D02*
X87437500Y-73530000D01*
X87437500Y-74650000D02*
X87437500Y-74700000D01*
X87437500Y-74700000D02*
X85617500Y-74700000D01*
X85077500Y-71630000D02*
X84837500Y-71300000D01*
X85317500Y-71300000D01*
X85077500Y-71630000D01*
G36*
X85077500Y-71630000D02*
G01*
X84837500Y-71300000D01*
X85317500Y-71300000D01*
X85077500Y-71630000D01*
G37*
%TO.C,C1*%
X86358748Y-63525000D02*
X86881252Y-63525000D01*
X86358748Y-64995000D02*
X86881252Y-64995000D01*
%TO.C,D1*%
X64247500Y-58650000D02*
X66067500Y-58650000D01*
X64247500Y-58700000D02*
X64247500Y-58650000D01*
X64247500Y-60600000D02*
X64247500Y-59820000D01*
X64247500Y-61770000D02*
X64247500Y-61720000D01*
X66067500Y-58650000D02*
X66067500Y-59650000D01*
X66067500Y-60770000D02*
X66067500Y-61770000D01*
X66067500Y-61770000D02*
X64247500Y-61770000D01*
X63707500Y-59830000D02*
X63947500Y-60160000D01*
X63467500Y-60160000D01*
X63707500Y-59830000D01*
G36*
X63947500Y-60160000D02*
G01*
X63467500Y-60160000D01*
X63707500Y-59830000D01*
X63947500Y-60160000D01*
G37*
%TO.C,C5*%
X82115000Y-72601252D02*
X82115000Y-72078748D01*
X83585000Y-72601252D02*
X83585000Y-72078748D01*
%TO.C,R1*%
X85787064Y-68865000D02*
X85332936Y-68865000D01*
X85787064Y-70335000D02*
X85332936Y-70335000D01*
%TO.C,R6*%
X63287064Y-65025000D02*
X62832936Y-65025000D01*
X63287064Y-66495000D02*
X62832936Y-66495000D01*
%TO.C,R7*%
X58967064Y-64445000D02*
X58512936Y-64445000D01*
X58967064Y-65915000D02*
X58512936Y-65915000D01*
%TO.C,R2*%
X65600436Y-73685000D02*
X66054564Y-73685000D01*
X65600436Y-75155000D02*
X66054564Y-75155000D01*
%TO.C,C7*%
X58991252Y-62445000D02*
X58468748Y-62445000D01*
X58991252Y-63915000D02*
X58468748Y-63915000D01*
%TO.C,USB-C-Port1*%
D12*
X55910000Y-67500000D02*
X56200000Y-67500000D01*
X55910000Y-76140000D02*
X55910000Y-67500000D01*
X56200000Y-76140000D02*
X55910000Y-76140000D01*
X59160000Y-67500000D02*
X61710000Y-67500000D01*
X61710000Y-76140000D02*
X59160000Y-76140000D01*
X63060000Y-68330000D02*
X63060000Y-68440000D01*
X63060000Y-71700000D02*
X63060000Y-71950000D01*
X63060000Y-75200000D02*
X63060000Y-75310000D01*
D13*
X63650000Y-67340000D02*
G75*
G02*
X63590000Y-67340000I-30000J0D01*
G01*
X63590000Y-67340000D02*
G75*
G02*
X63650000Y-67340000I30000J0D01*
G01*
D14*
X64250000Y-68360000D02*
G75*
G02*
X63950000Y-68360000I-150000J0D01*
G01*
X63950000Y-68360000D02*
G75*
G02*
X64250000Y-68360000I150000J0D01*
G01*
%TO.C,U3*%
D10*
X68320000Y-73020000D02*
X70480000Y-73020000D01*
X70480000Y-75180000D02*
X68320000Y-75180000D01*
D12*
X68030000Y-73300000D02*
G75*
G02*
X67770000Y-73300000I-130000J0D01*
G01*
X67770000Y-73300000D02*
G75*
G02*
X68030000Y-73300000I130000J0D01*
G01*
D13*
X68430000Y-73100000D02*
G75*
G02*
X68370000Y-73100000I-30000J0D01*
G01*
X68370000Y-73100000D02*
G75*
G02*
X68430000Y-73100000I30000J0D01*
G01*
%TO.C,R3*%
D11*
X65555000Y-77407064D02*
X65555000Y-76952936D01*
X67025000Y-77407064D02*
X67025000Y-76952936D01*
%TO.C,R4*%
X71375000Y-74807064D02*
X71375000Y-74352936D01*
X72845000Y-74807064D02*
X72845000Y-74352936D01*
%TO.C,R5*%
X61722936Y-77085000D02*
X62177064Y-77085000D01*
X61722936Y-78555000D02*
X62177064Y-78555000D01*
%TO.C,C4*%
X69078748Y-69520000D02*
X70501252Y-69520000D01*
X69078748Y-71340000D02*
X70501252Y-71340000D01*
%TO.C,U4*%
D12*
X81090000Y-64290000D02*
X81090000Y-64680000D01*
X81090000Y-64290000D02*
X81490000Y-64290000D01*
X81090000Y-66890000D02*
X81090000Y-67290000D01*
X81090000Y-67290000D02*
X81490000Y-67290000D01*
X83700000Y-64290000D02*
X84090000Y-64290000D01*
X83700000Y-67290000D02*
X84090000Y-67290000D01*
X84090000Y-64680000D02*
X84090000Y-64290000D01*
X84090000Y-67290000D02*
X84090000Y-66890000D01*
D13*
X81120000Y-67290000D02*
G75*
G02*
X81060000Y-67290000I-30000J0D01*
G01*
X81060000Y-67290000D02*
G75*
G02*
X81120000Y-67290000I30000J0D01*
G01*
D12*
X81360000Y-67630000D02*
G75*
G02*
X81240000Y-67630000I-60000J0D01*
G01*
X81240000Y-67630000D02*
G75*
G02*
X81360000Y-67630000I60000J0D01*
G01*
%TO.C,C2*%
D11*
X86428748Y-66000000D02*
X87851252Y-66000000D01*
X86428748Y-67820000D02*
X87851252Y-67820000D01*
%TO.C,C3*%
X65575000Y-70978748D02*
X65575000Y-71501252D01*
X67045000Y-70978748D02*
X67045000Y-71501252D01*
%TD*%
M02*
