%TF.GenerationSoftware,KiCad,Pcbnew,10.0.4*%
%TF.CreationDate,2026-06-28T16:28:20+05:30*%
%TF.ProjectId,Jazz,4a617a7a-2e6b-4696-9361-645f70636258,rev?*%
%TF.SameCoordinates,Original*%
%TF.FileFunction,Copper,L2,Bot*%
%TF.FilePolarity,Positive*%
%FSLAX46Y46*%
G04 Gerber Fmt 4.6, Leading zero omitted, Abs format (unit mm)*
G04 Created by KiCad (PCBNEW 10.0.4) date 2026-06-28 16:28:20*
%MOMM*%
%LPD*%
G01*
G04 APERTURE LIST*
G04 Aperture macros list*
%AMRoundRect*
0 Rectangle with rounded corners*
0 $1 Rounding radius*
0 $2 $3 $4 $5 $6 $7 $8 $9 X,Y pos of 4 corners*
0 Add a 4 corners polygon primitive as box body*
4,1,4,$2,$3,$4,$5,$6,$7,$8,$9,$2,$3,0*
0 Add four circle primitives for the rounded corners*
1,1,$1+$1,$2,$3*
1,1,$1+$1,$4,$5*
1,1,$1+$1,$6,$7*
1,1,$1+$1,$8,$9*
0 Add four rect primitives between the rounded corners*
20,1,$1+$1,$2,$3,$4,$5,0*
20,1,$1+$1,$4,$5,$6,$7,0*
20,1,$1+$1,$6,$7,$8,$9,0*
20,1,$1+$1,$8,$9,$2,$3,0*%
G04 Aperture macros list end*
%ADD10C,0.300000*%
%TA.AperFunction,NonConductor*%
%ADD11C,0.300000*%
%TD*%
%TA.AperFunction,ComponentPad*%
%ADD12O,2.100000X1.000000*%
%TD*%
%TA.AperFunction,ComponentPad*%
%ADD13O,2.600000X1.000000*%
%TD*%
%TA.AperFunction,SMDPad,CuDef*%
%ADD14RoundRect,0.500000X0.500000X1.500000X-0.500000X1.500000X-0.500000X-1.500000X0.500000X-1.500000X0*%
%TD*%
%TA.AperFunction,ComponentPad*%
%ADD15R,1.700000X1.700000*%
%TD*%
%TA.AperFunction,ComponentPad*%
%ADD16C,1.700000*%
%TD*%
%TA.AperFunction,ViaPad*%
%ADD17C,0.600000*%
%TD*%
%TA.AperFunction,Conductor*%
%ADD18C,0.200000*%
%TD*%
G04 APERTURE END LIST*
D10*
D11*
X73756917Y-54593685D02*
X73685489Y-54522257D01*
X73685489Y-54522257D02*
X73542632Y-54450828D01*
X73542632Y-54450828D02*
X73185489Y-54450828D01*
X73185489Y-54450828D02*
X73042632Y-54522257D01*
X73042632Y-54522257D02*
X72971203Y-54593685D01*
X72971203Y-54593685D02*
X72899774Y-54736542D01*
X72899774Y-54736542D02*
X72899774Y-54879400D01*
X72899774Y-54879400D02*
X72971203Y-55093685D01*
X72971203Y-55093685D02*
X73828346Y-55950828D01*
X73828346Y-55950828D02*
X72899774Y-55950828D01*
X72042632Y-55093685D02*
X72185489Y-55022257D01*
X72185489Y-55022257D02*
X72256918Y-54950828D01*
X72256918Y-54950828D02*
X72328346Y-54807971D01*
X72328346Y-54807971D02*
X72328346Y-54736542D01*
X72328346Y-54736542D02*
X72256918Y-54593685D01*
X72256918Y-54593685D02*
X72185489Y-54522257D01*
X72185489Y-54522257D02*
X72042632Y-54450828D01*
X72042632Y-54450828D02*
X71756918Y-54450828D01*
X71756918Y-54450828D02*
X71614061Y-54522257D01*
X71614061Y-54522257D02*
X71542632Y-54593685D01*
X71542632Y-54593685D02*
X71471203Y-54736542D01*
X71471203Y-54736542D02*
X71471203Y-54807971D01*
X71471203Y-54807971D02*
X71542632Y-54950828D01*
X71542632Y-54950828D02*
X71614061Y-55022257D01*
X71614061Y-55022257D02*
X71756918Y-55093685D01*
X71756918Y-55093685D02*
X72042632Y-55093685D01*
X72042632Y-55093685D02*
X72185489Y-55165114D01*
X72185489Y-55165114D02*
X72256918Y-55236542D01*
X72256918Y-55236542D02*
X72328346Y-55379400D01*
X72328346Y-55379400D02*
X72328346Y-55665114D01*
X72328346Y-55665114D02*
X72256918Y-55807971D01*
X72256918Y-55807971D02*
X72185489Y-55879400D01*
X72185489Y-55879400D02*
X72042632Y-55950828D01*
X72042632Y-55950828D02*
X71756918Y-55950828D01*
X71756918Y-55950828D02*
X71614061Y-55879400D01*
X71614061Y-55879400D02*
X71542632Y-55807971D01*
X71542632Y-55807971D02*
X71471203Y-55665114D01*
X71471203Y-55665114D02*
X71471203Y-55379400D01*
X71471203Y-55379400D02*
X71542632Y-55236542D01*
X71542632Y-55236542D02*
X71614061Y-55165114D01*
X71614061Y-55165114D02*
X71756918Y-55093685D01*
X69256918Y-54450828D02*
X69256918Y-55522257D01*
X69256918Y-55522257D02*
X69328347Y-55736542D01*
X69328347Y-55736542D02*
X69471204Y-55879400D01*
X69471204Y-55879400D02*
X69685490Y-55950828D01*
X69685490Y-55950828D02*
X69828347Y-55950828D01*
X67899776Y-54950828D02*
X67899776Y-55950828D01*
X68542633Y-54950828D02*
X68542633Y-55736542D01*
X68542633Y-55736542D02*
X68471204Y-55879400D01*
X68471204Y-55879400D02*
X68328347Y-55950828D01*
X68328347Y-55950828D02*
X68114061Y-55950828D01*
X68114061Y-55950828D02*
X67971204Y-55879400D01*
X67971204Y-55879400D02*
X67899776Y-55807971D01*
X67185490Y-54950828D02*
X67185490Y-55950828D01*
X67185490Y-55093685D02*
X67114061Y-55022257D01*
X67114061Y-55022257D02*
X66971204Y-54950828D01*
X66971204Y-54950828D02*
X66756918Y-54950828D01*
X66756918Y-54950828D02*
X66614061Y-55022257D01*
X66614061Y-55022257D02*
X66542633Y-55165114D01*
X66542633Y-55165114D02*
X66542633Y-55950828D01*
X65256918Y-55879400D02*
X65399775Y-55950828D01*
X65399775Y-55950828D02*
X65685490Y-55950828D01*
X65685490Y-55950828D02*
X65828347Y-55879400D01*
X65828347Y-55879400D02*
X65899775Y-55736542D01*
X65899775Y-55736542D02*
X65899775Y-55165114D01*
X65899775Y-55165114D02*
X65828347Y-55022257D01*
X65828347Y-55022257D02*
X65685490Y-54950828D01*
X65685490Y-54950828D02*
X65399775Y-54950828D01*
X65399775Y-54950828D02*
X65256918Y-55022257D01*
X65256918Y-55022257D02*
X65185490Y-55165114D01*
X65185490Y-55165114D02*
X65185490Y-55307971D01*
X65185490Y-55307971D02*
X65899775Y-55450828D01*
X63471204Y-54593685D02*
X63399776Y-54522257D01*
X63399776Y-54522257D02*
X63256919Y-54450828D01*
X63256919Y-54450828D02*
X62899776Y-54450828D01*
X62899776Y-54450828D02*
X62756919Y-54522257D01*
X62756919Y-54522257D02*
X62685490Y-54593685D01*
X62685490Y-54593685D02*
X62614061Y-54736542D01*
X62614061Y-54736542D02*
X62614061Y-54879400D01*
X62614061Y-54879400D02*
X62685490Y-55093685D01*
X62685490Y-55093685D02*
X63542633Y-55950828D01*
X63542633Y-55950828D02*
X62614061Y-55950828D01*
X61685490Y-54450828D02*
X61542633Y-54450828D01*
X61542633Y-54450828D02*
X61399776Y-54522257D01*
X61399776Y-54522257D02*
X61328348Y-54593685D01*
X61328348Y-54593685D02*
X61256919Y-54736542D01*
X61256919Y-54736542D02*
X61185490Y-55022257D01*
X61185490Y-55022257D02*
X61185490Y-55379400D01*
X61185490Y-55379400D02*
X61256919Y-55665114D01*
X61256919Y-55665114D02*
X61328348Y-55807971D01*
X61328348Y-55807971D02*
X61399776Y-55879400D01*
X61399776Y-55879400D02*
X61542633Y-55950828D01*
X61542633Y-55950828D02*
X61685490Y-55950828D01*
X61685490Y-55950828D02*
X61828348Y-55879400D01*
X61828348Y-55879400D02*
X61899776Y-55807971D01*
X61899776Y-55807971D02*
X61971205Y-55665114D01*
X61971205Y-55665114D02*
X62042633Y-55379400D01*
X62042633Y-55379400D02*
X62042633Y-55022257D01*
X62042633Y-55022257D02*
X61971205Y-54736542D01*
X61971205Y-54736542D02*
X61899776Y-54593685D01*
X61899776Y-54593685D02*
X61828348Y-54522257D01*
X61828348Y-54522257D02*
X61685490Y-54450828D01*
X60614062Y-54593685D02*
X60542634Y-54522257D01*
X60542634Y-54522257D02*
X60399777Y-54450828D01*
X60399777Y-54450828D02*
X60042634Y-54450828D01*
X60042634Y-54450828D02*
X59899777Y-54522257D01*
X59899777Y-54522257D02*
X59828348Y-54593685D01*
X59828348Y-54593685D02*
X59756919Y-54736542D01*
X59756919Y-54736542D02*
X59756919Y-54879400D01*
X59756919Y-54879400D02*
X59828348Y-55093685D01*
X59828348Y-55093685D02*
X60685491Y-55950828D01*
X60685491Y-55950828D02*
X59756919Y-55950828D01*
X58471206Y-54450828D02*
X58756920Y-54450828D01*
X58756920Y-54450828D02*
X58899777Y-54522257D01*
X58899777Y-54522257D02*
X58971206Y-54593685D01*
X58971206Y-54593685D02*
X59114063Y-54807971D01*
X59114063Y-54807971D02*
X59185491Y-55093685D01*
X59185491Y-55093685D02*
X59185491Y-55665114D01*
X59185491Y-55665114D02*
X59114063Y-55807971D01*
X59114063Y-55807971D02*
X59042634Y-55879400D01*
X59042634Y-55879400D02*
X58899777Y-55950828D01*
X58899777Y-55950828D02*
X58614063Y-55950828D01*
X58614063Y-55950828D02*
X58471206Y-55879400D01*
X58471206Y-55879400D02*
X58399777Y-55807971D01*
X58399777Y-55807971D02*
X58328348Y-55665114D01*
X58328348Y-55665114D02*
X58328348Y-55307971D01*
X58328348Y-55307971D02*
X58399777Y-55165114D01*
X58399777Y-55165114D02*
X58471206Y-55093685D01*
X58471206Y-55093685D02*
X58614063Y-55022257D01*
X58614063Y-55022257D02*
X58899777Y-55022257D01*
X58899777Y-55022257D02*
X59042634Y-55093685D01*
X59042634Y-55093685D02*
X59114063Y-55165114D01*
X59114063Y-55165114D02*
X59185491Y-55307971D01*
D12*
%TO.P,USB-C-Port1,0,0_0*%
%TO.N,GROUND*%
X63040000Y-67500000D03*
D13*
X57680000Y-67500000D03*
D12*
X63040000Y-76140000D03*
D13*
X57680000Y-76140000D03*
%TD*%
D14*
%TO.P,B-1,1,1_1*%
%TO.N,GND*%
X92270000Y-79790000D03*
%TD*%
%TO.P,B+1,1,1_1*%
%TO.N,Battery-Rail Out*%
X89070000Y-79790000D03*
%TD*%
D15*
%TO.P,U5,1,GPIO1/D0/A0_1*%
%TO.N,unconnected-(U5-GPIO1{slash}D0{slash}A0-Pad1)*%
X92639750Y-55852015D03*
D16*
%TO.P,U5,2,GPIO2/DA/A1_2*%
%TO.N,unconnected-(U5-GPIO2{slash}DA{slash}A1-Pad2)*%
X92639750Y-58392015D03*
%TO.P,U5,3,GPIO3/D2/A2_3*%
%TO.N,unconnected-(U5-GPIO3{slash}D2{slash}A2-Pad3)*%
X92639750Y-60932015D03*
%TO.P,U5,4,GPIO4/D3/A3_4*%
%TO.N,unconnected-(U5-GPIO4{slash}D3{slash}A3-Pad4)*%
X92639750Y-63472015D03*
%TO.P,U5,5,GPIO5/D4/I2C_SDA_5*%
%TO.N,unconnected-(U5-GPIO5{slash}D4{slash}I2C_SDA-Pad5)*%
X92639750Y-66012015D03*
%TO.P,U5,6,GPIO9/D5/I2C_SCL_6*%
%TO.N,unconnected-(U5-GPIO9{slash}D5{slash}I2C_SCL-Pad6)*%
X92639750Y-68552015D03*
%TO.P,U5,7,U0TXD/D6/TX_7*%
%TO.N,unconnected-(U5-U0TXD{slash}D6{slash}TX-Pad7)*%
X92639750Y-71092015D03*
%TO.P,U5,8,U0RXD/D7/RX_8*%
%TO.N,Pairing-Mode*%
X77389750Y-71092015D03*
%TO.P,U5,9,GPIO7/D8/A8/SCK_9*%
%TO.N,BCLK*%
X77389750Y-68552015D03*
%TO.P,U5,10,GPIO8/D9/A9/MISO_10*%
%TO.N,LRCK*%
X77389750Y-66012015D03*
%TO.P,U5,11,GPIO9/D10/A10/MOSI_11*%
%TO.N,DIN*%
X77389750Y-63472015D03*
%TO.P,U5,12,VCC_3V3_12*%
%TO.N,Diode Out*%
X77389750Y-60932015D03*
%TO.P,U5,13,GND_13*%
%TO.N,GND*%
X77389750Y-58392015D03*
%TO.P,U5,14,VBUS_14*%
%TO.N,unconnected-(U5-VBUS-Pad14)*%
X77389750Y-55852015D03*
%TD*%
D17*
%TO.N,Battery-Rail Out*%
X82370000Y-79710000D03*
%TO.N,GND*%
X82760000Y-75320000D03*
X92220000Y-79990000D03*
X72110000Y-75492500D03*
%TO.N,DIN*%
X80270000Y-67530000D03*
%TO.N,3.3V*%
X88180000Y-69600000D03*
X64020000Y-59260000D03*
%TD*%
%TO.N,Battery-Rail Out*%
D18*
X88990000Y-79710000D02*
X82370000Y-79710000D01*
X89070000Y-79790000D02*
X88990000Y-79710000D01*
%TO.N,GND*%
X82760000Y-75320000D02*
X72410000Y-75320000D01*
X92270000Y-79790000D02*
X92270000Y-78200000D01*
X92270000Y-78200000D02*
X89390000Y-75320000D01*
X72410000Y-75320000D02*
X72130000Y-75600000D01*
X89390000Y-75320000D02*
X82760000Y-75320000D01*
%TO.N,DIN*%
X80270000Y-66470000D02*
X80270000Y-67530000D01*
X77389750Y-63472015D02*
X77389750Y-63589750D01*
X77389750Y-63589750D02*
X80270000Y-66470000D01*
%TO.N,3.3V*%
X75430000Y-70670000D02*
X64020000Y-59260000D01*
X75430000Y-72810000D02*
X75430000Y-70670000D01*
X88180000Y-69600000D02*
X84970000Y-72810000D01*
X84970000Y-72810000D02*
X75430000Y-72810000D01*
%TO.N,GROUND*%
X57680000Y-76140000D02*
X63040000Y-76140000D01*
X63040000Y-67500000D02*
X57680000Y-67500000D01*
X57680000Y-67500000D02*
X57680000Y-76140000D01*
X63040000Y-67500000D02*
X63040000Y-76140000D01*
%TD*%
%TA.AperFunction,Conductor*%
%TO.N,GROUND*%
G36*
X94172539Y-52600185D02*
G01*
X94218294Y-52652989D01*
X94229500Y-52704500D01*
X94229500Y-54870172D01*
X94209815Y-54937211D01*
X94157011Y-54982966D01*
X94087853Y-54992910D01*
X94024297Y-54963885D01*
X93986523Y-54905107D01*
X93984824Y-54898689D01*
X93983842Y-54894535D01*
X93933547Y-54759686D01*
X93933543Y-54759679D01*
X93847297Y-54644470D01*
X93847294Y-54644467D01*
X93732085Y-54558221D01*
X93732078Y-54558217D01*
X93597232Y-54507923D01*
X93597233Y-54507923D01*
X93537633Y-54501516D01*
X93537631Y-54501515D01*
X93537623Y-54501515D01*
X93537614Y-54501515D01*
X91741879Y-54501515D01*
X91741873Y-54501516D01*
X91682266Y-54507923D01*
X91547421Y-54558217D01*
X91547414Y-54558221D01*
X91432205Y-54644467D01*
X91432202Y-54644470D01*
X91345956Y-54759679D01*
X91345952Y-54759686D01*
X91295658Y-54894532D01*
X91289251Y-54954131D01*
X91289250Y-54954150D01*
X91289250Y-56749885D01*
X91289251Y-56749891D01*
X91295658Y-56809498D01*
X91345952Y-56944343D01*
X91345956Y-56944350D01*
X91432202Y-57059559D01*
X91432205Y-57059562D01*
X91547414Y-57145808D01*
X91547421Y-57145812D01*
X91678832Y-57194825D01*
X91734766Y-57236696D01*
X91759183Y-57302160D01*
X91744332Y-57370433D01*
X91723181Y-57398688D01*
X91609639Y-57512230D01*
X91484701Y-57684194D01*
X91388194Y-57873600D01*
X91322503Y-58075775D01*
X91289250Y-58285728D01*
X91289250Y-58498301D01*
X91311409Y-58638211D01*
X91322504Y-58708258D01*
X91378575Y-58880827D01*
X91388194Y-58910429D01*
X91484701Y-59099835D01*
X91609640Y-59271801D01*
X91759963Y-59422124D01*
X91931932Y-59547065D01*
X91940696Y-59551531D01*
X91991492Y-59599506D01*
X92008286Y-59667327D01*
X91985748Y-59733462D01*
X91940696Y-59772499D01*
X91931932Y-59776964D01*
X91759963Y-59901905D01*
X91609640Y-60052228D01*
X91484701Y-60224194D01*
X91388194Y-60413600D01*
X91322503Y-60615775D01*
X91289250Y-60825728D01*
X91289250Y-61038301D01*
X91322503Y-61248254D01*
X91388194Y-61450429D01*
X91484701Y-61639835D01*
X91609640Y-61811801D01*
X91759963Y-61962124D01*
X91931932Y-62087065D01*
X91940696Y-62091531D01*
X91991492Y-62139506D01*
X92008286Y-62207327D01*
X91985748Y-62273462D01*
X91940696Y-62312499D01*
X91931932Y-62316964D01*
X91759963Y-62441905D01*
X91609640Y-62592228D01*
X91484701Y-62764194D01*
X91388194Y-62953600D01*
X91322503Y-63155775D01*
X91289250Y-63365728D01*
X91289250Y-63578301D01*
X91322503Y-63788254D01*
X91388194Y-63990429D01*
X91484701Y-64179835D01*
X91609640Y-64351801D01*
X91759963Y-64502124D01*
X91931932Y-64627065D01*
X91940696Y-64631531D01*
X91991492Y-64679506D01*
X92008286Y-64747327D01*
X91985748Y-64813462D01*
X91940696Y-64852499D01*
X91931932Y-64856964D01*
X91759963Y-64981905D01*
X91609640Y-65132228D01*
X91484701Y-65304194D01*
X91388194Y-65493600D01*
X91322503Y-65695775D01*
X91289250Y-65905728D01*
X91289250Y-66118301D01*
X91322503Y-66328254D01*
X91388194Y-66530429D01*
X91484701Y-66719835D01*
X91609640Y-66891801D01*
X91759963Y-67042124D01*
X91931932Y-67167065D01*
X91940696Y-67171531D01*
X91991492Y-67219506D01*
X92008286Y-67287327D01*
X91985748Y-67353462D01*
X91940696Y-67392499D01*
X91931932Y-67396964D01*
X91759963Y-67521905D01*
X91609640Y-67672228D01*
X91484701Y-67844194D01*
X91388194Y-68033600D01*
X91322503Y-68235775D01*
X91307500Y-68330500D01*
X91289250Y-68445728D01*
X91289250Y-68658302D01*
X91322504Y-68868258D01*
X91329766Y-68890609D01*
X91388194Y-69070429D01*
X91484701Y-69259835D01*
X91609640Y-69431801D01*
X91759963Y-69582124D01*
X91931932Y-69707065D01*
X91940696Y-69711531D01*
X91991492Y-69759506D01*
X92008286Y-69827327D01*
X91985748Y-69893462D01*
X91940696Y-69932499D01*
X91931932Y-69936964D01*
X91759963Y-70061905D01*
X91609640Y-70212228D01*
X91484701Y-70384194D01*
X91388194Y-70573600D01*
X91322503Y-70775775D01*
X91289250Y-70985728D01*
X91289250Y-71198301D01*
X91322503Y-71408254D01*
X91388194Y-71610429D01*
X91484701Y-71799835D01*
X91609640Y-71971801D01*
X91759963Y-72122124D01*
X91931929Y-72247063D01*
X91931931Y-72247064D01*
X91931934Y-72247066D01*
X92121338Y-72343572D01*
X92323507Y-72409261D01*
X92533463Y-72442515D01*
X92533464Y-72442515D01*
X92746036Y-72442515D01*
X92746037Y-72442515D01*
X92955993Y-72409261D01*
X93158162Y-72343572D01*
X93347566Y-72247066D01*
X93449261Y-72173181D01*
X93519536Y-72122124D01*
X93519538Y-72122121D01*
X93519542Y-72122119D01*
X93669854Y-71971807D01*
X93669856Y-71971803D01*
X93669859Y-71971801D01*
X93794798Y-71799835D01*
X93794797Y-71799835D01*
X93794801Y-71799831D01*
X93891307Y-71610427D01*
X93956996Y-71408258D01*
X93983027Y-71243904D01*
X94012956Y-71180770D01*
X94072268Y-71143839D01*
X94142130Y-71144837D01*
X94200363Y-71183447D01*
X94228477Y-71247410D01*
X94229500Y-71263303D01*
X94229500Y-82075500D01*
X94209815Y-82142539D01*
X94157011Y-82188294D01*
X94105500Y-82199500D01*
X93580448Y-82199500D01*
X93513409Y-82179815D01*
X93467654Y-82127011D01*
X93457710Y-82057853D01*
X93484346Y-81997139D01*
X93609698Y-81843407D01*
X93703909Y-81663049D01*
X93759886Y-81467418D01*
X93770500Y-81348037D01*
X93770499Y-78231964D01*
X93759886Y-78112582D01*
X93703909Y-77916951D01*
X93609698Y-77736593D01*
X93542707Y-77654435D01*
X93481109Y-77578890D01*
X93323409Y-77450304D01*
X93323410Y-77450304D01*
X93323407Y-77450302D01*
X93143049Y-77356091D01*
X93143048Y-77356090D01*
X93143045Y-77356089D01*
X93025829Y-77322550D01*
X92947418Y-77300114D01*
X92947415Y-77300113D01*
X92947413Y-77300113D01*
X92874631Y-77293642D01*
X92828037Y-77289500D01*
X92828033Y-77289500D01*
X92260097Y-77289500D01*
X92193058Y-77269815D01*
X92172416Y-77253181D01*
X89877590Y-74958355D01*
X89877588Y-74958352D01*
X89758717Y-74839481D01*
X89758716Y-74839480D01*
X89671904Y-74789360D01*
X89671904Y-74789359D01*
X89671900Y-74789358D01*
X89621785Y-74760423D01*
X89469057Y-74719499D01*
X89310943Y-74719499D01*
X89303347Y-74719499D01*
X89303331Y-74719500D01*
X83339766Y-74719500D01*
X83272727Y-74699815D01*
X83270875Y-74698602D01*
X83139185Y-74610609D01*
X83139172Y-74610602D01*
X82993501Y-74550264D01*
X82993489Y-74550261D01*
X82838845Y-74519500D01*
X82838842Y-74519500D01*
X82681158Y-74519500D01*
X82681155Y-74519500D01*
X82526510Y-74550261D01*
X82526498Y-74550264D01*
X82380827Y-74610602D01*
X82380814Y-74610609D01*
X82249125Y-74698602D01*
X82182447Y-74719480D01*
X82180234Y-74719500D01*
X72496669Y-74719500D01*
X72489061Y-74719499D01*
X72489058Y-74719499D01*
X72339298Y-74719499D01*
X72339297Y-74719498D01*
X72315108Y-74717116D01*
X72275763Y-74709289D01*
X72188844Y-74692000D01*
X72188842Y-74692000D01*
X72031158Y-74692000D01*
X72031155Y-74692000D01*
X71876510Y-74722761D01*
X71876498Y-74722764D01*
X71730827Y-74783102D01*
X71730814Y-74783109D01*
X71599711Y-74870710D01*
X71599707Y-74870713D01*
X71488213Y-74982207D01*
X71488210Y-74982211D01*
X71400609Y-75113314D01*
X71400602Y-75113327D01*
X71340264Y-75258998D01*
X71340261Y-75259010D01*
X71309500Y-75413653D01*
X71309500Y-75571346D01*
X71340261Y-75725989D01*
X71340264Y-75726001D01*
X71400602Y-75871672D01*
X71400609Y-75871685D01*
X71488210Y-76002788D01*
X71488213Y-76002792D01*
X71599707Y-76114286D01*
X71599711Y-76114289D01*
X71730814Y-76201890D01*
X71730827Y-76201897D01*
X71876498Y-76262235D01*
X71876503Y-76262237D01*
X72031153Y-76292999D01*
X72031156Y-76293000D01*
X72031158Y-76293000D01*
X72188844Y-76293000D01*
X72188845Y-76292999D01*
X72343497Y-76262237D01*
X72489179Y-76201894D01*
X72620289Y-76114289D01*
X72731789Y-76002789D01*
X72749950Y-75975609D01*
X72803561Y-75930805D01*
X72853052Y-75920500D01*
X82180234Y-75920500D01*
X82247273Y-75940185D01*
X82249125Y-75941398D01*
X82380814Y-76029390D01*
X82380827Y-76029397D01*
X82526498Y-76089735D01*
X82526503Y-76089737D01*
X82681153Y-76120499D01*
X82681156Y-76120500D01*
X82681158Y-76120500D01*
X82838844Y-76120500D01*
X82838845Y-76120499D01*
X82993497Y-76089737D01*
X83139179Y-76029394D01*
X83178998Y-76002788D01*
X83270875Y-75941398D01*
X83337553Y-75920520D01*
X83339766Y-75920500D01*
X89089903Y-75920500D01*
X89156942Y-75940185D01*
X89177584Y-75956819D01*
X90875200Y-77654435D01*
X90908685Y-77715758D01*
X90903701Y-77785450D01*
X90897428Y-77799527D01*
X90836090Y-77916952D01*
X90789216Y-78080773D01*
X90751849Y-78139811D01*
X90688495Y-78169275D01*
X90619270Y-78159810D01*
X90566151Y-78114421D01*
X90550784Y-78080773D01*
X90503910Y-77916954D01*
X90503909Y-77916952D01*
X90503909Y-77916951D01*
X90409698Y-77736593D01*
X90342707Y-77654435D01*
X90281109Y-77578890D01*
X90123409Y-77450304D01*
X90123410Y-77450304D01*
X90123407Y-77450302D01*
X89943049Y-77356091D01*
X89943048Y-77356090D01*
X89943045Y-77356089D01*
X89825829Y-77322550D01*
X89747418Y-77300114D01*
X89747415Y-77300113D01*
X89747413Y-77300113D01*
X89681102Y-77294217D01*
X89628037Y-77289500D01*
X89628032Y-77289500D01*
X88511971Y-77289500D01*
X88511965Y-77289500D01*
X88511964Y-77289501D01*
X88500316Y-77290536D01*
X88392584Y-77300113D01*
X88196954Y-77356089D01*
X88106772Y-77403196D01*
X88016593Y-77450302D01*
X88016591Y-77450303D01*
X88016590Y-77450304D01*
X87858890Y-77578890D01*
X87730304Y-77736590D01*
X87636089Y-77916954D01*
X87580114Y-78112583D01*
X87580113Y-78112586D01*
X87569500Y-78231966D01*
X87569500Y-78985500D01*
X87549815Y-79052539D01*
X87497011Y-79098294D01*
X87445500Y-79109500D01*
X82949766Y-79109500D01*
X82882727Y-79089815D01*
X82880875Y-79088602D01*
X82749185Y-79000609D01*
X82749172Y-79000602D01*
X82603501Y-78940264D01*
X82603489Y-78940261D01*
X82448845Y-78909500D01*
X82448842Y-78909500D01*
X82291158Y-78909500D01*
X82291155Y-78909500D01*
X82136510Y-78940261D01*
X82136498Y-78940264D01*
X81990827Y-79000602D01*
X81990814Y-79000609D01*
X81859711Y-79088210D01*
X81859707Y-79088213D01*
X81748213Y-79199707D01*
X81748210Y-79199711D01*
X81660609Y-79330814D01*
X81660602Y-79330827D01*
X81600264Y-79476498D01*
X81600261Y-79476510D01*
X81569500Y-79631153D01*
X81569500Y-79788846D01*
X81600261Y-79943489D01*
X81600264Y-79943501D01*
X81660602Y-80089172D01*
X81660609Y-80089185D01*
X81748210Y-80220288D01*
X81748213Y-80220292D01*
X81859707Y-80331786D01*
X81859711Y-80331789D01*
X81990814Y-80419390D01*
X81990827Y-80419397D01*
X82136498Y-80479735D01*
X82136503Y-80479737D01*
X82291153Y-80510499D01*
X82291156Y-80510500D01*
X82291158Y-80510500D01*
X82448844Y-80510500D01*
X82448845Y-80510499D01*
X82603497Y-80479737D01*
X82716166Y-80433067D01*
X82749172Y-80419397D01*
X82749172Y-80419396D01*
X82749179Y-80419394D01*
X82772580Y-80403758D01*
X82880875Y-80331398D01*
X82947553Y-80310520D01*
X82949766Y-80310500D01*
X87445501Y-80310500D01*
X87512540Y-80330185D01*
X87558295Y-80382989D01*
X87569501Y-80434500D01*
X87569501Y-81348034D01*
X87580113Y-81467415D01*
X87636089Y-81663045D01*
X87636090Y-81663048D01*
X87636091Y-81663049D01*
X87730302Y-81843407D01*
X87730304Y-81843409D01*
X87855654Y-81997139D01*
X87882763Y-82061535D01*
X87870754Y-82130365D01*
X87823438Y-82181776D01*
X87759552Y-82199500D01*
X56494500Y-82199500D01*
X56427461Y-82179815D01*
X56381706Y-82127011D01*
X56370500Y-82075500D01*
X56370500Y-79617320D01*
X58265408Y-79617320D01*
X58265408Y-79822679D01*
X58297530Y-80025489D01*
X58297531Y-80025493D01*
X58360987Y-80220789D01*
X58443632Y-80382989D01*
X58454215Y-80403758D01*
X58574907Y-80569878D01*
X58574911Y-80569883D01*
X58720116Y-80715088D01*
X58720121Y-80715092D01*
X58760725Y-80744592D01*
X58886245Y-80835787D01*
X59069211Y-80929013D01*
X59264507Y-80992469D01*
X59340564Y-81004515D01*
X59467321Y-81024592D01*
X59467326Y-81024592D01*
X59672679Y-81024592D01*
X59785351Y-81006745D01*
X59875493Y-80992469D01*
X60070789Y-80929013D01*
X60253755Y-80835787D01*
X60419885Y-80715087D01*
X60565087Y-80569885D01*
X60685787Y-80403755D01*
X60779013Y-80220789D01*
X60842469Y-80025493D01*
X60858505Y-79924242D01*
X60874592Y-79822679D01*
X60874592Y-79617320D01*
X60852287Y-79476498D01*
X60842469Y-79414507D01*
X60817389Y-79337320D01*
X72435408Y-79337320D01*
X72435408Y-79542679D01*
X72467530Y-79745489D01*
X72467531Y-79745493D01*
X72530987Y-79940789D01*
X72587484Y-80051671D01*
X72624215Y-80123758D01*
X72744907Y-80289878D01*
X72744911Y-80289883D01*
X72890116Y-80435088D01*
X72890121Y-80435092D01*
X73035020Y-80540366D01*
X73056245Y-80555787D01*
X73239211Y-80649013D01*
X73434507Y-80712469D01*
X73510564Y-80724515D01*
X73637321Y-80744592D01*
X73637326Y-80744592D01*
X73842679Y-80744592D01*
X73955351Y-80726745D01*
X74045493Y-80712469D01*
X74240789Y-80649013D01*
X74423755Y-80555787D01*
X74589885Y-80435087D01*
X74735087Y-80289885D01*
X74855787Y-80123755D01*
X74949013Y-79940789D01*
X75012469Y-79745493D01*
X75030578Y-79631158D01*
X75044592Y-79542679D01*
X75044592Y-79337320D01*
X75012469Y-79134510D01*
X75012469Y-79134507D01*
X74949013Y-78939211D01*
X74855787Y-78756245D01*
X74833019Y-78724907D01*
X74735092Y-78590121D01*
X74735088Y-78590116D01*
X74589883Y-78444911D01*
X74589878Y-78444907D01*
X74423758Y-78324215D01*
X74423757Y-78324214D01*
X74423755Y-78324213D01*
X74240789Y-78230987D01*
X74045493Y-78167531D01*
X74045491Y-78167530D01*
X74045489Y-78167530D01*
X73842679Y-78135408D01*
X73842674Y-78135408D01*
X73637326Y-78135408D01*
X73637321Y-78135408D01*
X73434510Y-78167530D01*
X73239208Y-78230988D01*
X73056241Y-78324215D01*
X72890121Y-78444907D01*
X72890116Y-78444911D01*
X72744911Y-78590116D01*
X72744907Y-78590121D01*
X72624215Y-78756241D01*
X72530988Y-78939208D01*
X72467530Y-79134510D01*
X72435408Y-79337320D01*
X60817389Y-79337320D01*
X60779013Y-79219211D01*
X60685787Y-79036245D01*
X60616053Y-78940264D01*
X60565092Y-78870121D01*
X60565088Y-78870116D01*
X60419883Y-78724911D01*
X60419878Y-78724907D01*
X60253758Y-78604215D01*
X60253757Y-78604214D01*
X60253755Y-78604213D01*
X60070789Y-78510987D01*
X59875493Y-78447531D01*
X59875491Y-78447530D01*
X59875489Y-78447530D01*
X59672679Y-78415408D01*
X59672674Y-78415408D01*
X59467326Y-78415408D01*
X59467321Y-78415408D01*
X59264510Y-78447530D01*
X59069208Y-78510988D01*
X58886241Y-78604215D01*
X58720121Y-78724907D01*
X58720116Y-78724911D01*
X58574911Y-78870116D01*
X58574907Y-78870121D01*
X58454215Y-79036241D01*
X58360988Y-79219208D01*
X58297530Y-79414510D01*
X58265408Y-79617320D01*
X56370500Y-79617320D01*
X56370500Y-59181153D01*
X63219500Y-59181153D01*
X63219500Y-59338846D01*
X63250261Y-59493489D01*
X63250264Y-59493501D01*
X63310602Y-59639172D01*
X63310609Y-59639185D01*
X63398210Y-59770288D01*
X63398213Y-59770292D01*
X63509707Y-59881786D01*
X63509711Y-59881789D01*
X63640814Y-59969390D01*
X63640827Y-59969397D01*
X63786498Y-60029735D01*
X63786503Y-60029737D01*
X63851147Y-60042595D01*
X63941849Y-60060638D01*
X64003760Y-60093023D01*
X64005339Y-60094574D01*
X74793181Y-70882416D01*
X74826666Y-70943739D01*
X74829500Y-70970097D01*
X74829500Y-72889056D01*
X74870423Y-73041783D01*
X74870426Y-73041790D01*
X74949475Y-73178709D01*
X74949478Y-73178713D01*
X74949480Y-73178716D01*
X75061284Y-73290520D01*
X75061286Y-73290521D01*
X75061290Y-73290524D01*
X75198209Y-73369573D01*
X75198216Y-73369577D01*
X75350943Y-73410500D01*
X84883331Y-73410500D01*
X84883347Y-73410501D01*
X84890943Y-73410501D01*
X85049054Y-73410501D01*
X85049057Y-73410501D01*
X85201785Y-73369577D01*
X85251904Y-73340639D01*
X85338716Y-73290520D01*
X85450520Y-73178716D01*
X85450520Y-73178714D01*
X85460728Y-73168507D01*
X85460729Y-73168504D01*
X88194664Y-70434571D01*
X88255985Y-70401088D01*
X88258152Y-70400637D01*
X88258841Y-70400500D01*
X88258842Y-70400500D01*
X88413497Y-70369737D01*
X88559179Y-70309394D01*
X88690289Y-70221789D01*
X88801789Y-70110289D01*
X88889394Y-69979179D01*
X88949737Y-69833497D01*
X88980500Y-69678842D01*
X88980500Y-69521158D01*
X88980500Y-69521155D01*
X88980499Y-69521153D01*
X88962727Y-69431807D01*
X88949737Y-69366503D01*
X88905554Y-69259835D01*
X88889397Y-69220827D01*
X88889390Y-69220814D01*
X88801789Y-69089711D01*
X88801786Y-69089707D01*
X88690292Y-68978213D01*
X88690288Y-68978210D01*
X88559185Y-68890609D01*
X88559172Y-68890602D01*
X88413501Y-68830264D01*
X88413489Y-68830261D01*
X88258845Y-68799500D01*
X88258842Y-68799500D01*
X88101158Y-68799500D01*
X88101155Y-68799500D01*
X87946510Y-68830261D01*
X87946498Y-68830264D01*
X87800827Y-68890602D01*
X87800814Y-68890609D01*
X87669711Y-68978210D01*
X87669707Y-68978213D01*
X87558213Y-69089707D01*
X87558210Y-69089711D01*
X87470609Y-69220814D01*
X87470602Y-69220827D01*
X87410264Y-69366498D01*
X87410261Y-69366508D01*
X87379362Y-69521848D01*
X87346977Y-69583759D01*
X87345426Y-69585337D01*
X84757584Y-72173181D01*
X84696261Y-72206666D01*
X84669903Y-72209500D01*
X78481523Y-72209500D01*
X78414484Y-72189815D01*
X78368729Y-72137011D01*
X78358785Y-72067853D01*
X78387810Y-72004297D01*
X78393842Y-71997819D01*
X78419854Y-71971807D01*
X78419856Y-71971803D01*
X78419859Y-71971801D01*
X78544798Y-71799835D01*
X78544797Y-71799835D01*
X78544801Y-71799831D01*
X78641307Y-71610427D01*
X78706996Y-71408258D01*
X78740250Y-71198302D01*
X78740250Y-70985728D01*
X78706996Y-70775772D01*
X78641307Y-70573603D01*
X78544801Y-70384199D01*
X78544799Y-70384196D01*
X78544798Y-70384194D01*
X78419859Y-70212228D01*
X78269536Y-70061905D01*
X78097570Y-69936966D01*
X78096865Y-69936606D01*
X78088804Y-69932500D01*
X78038009Y-69884527D01*
X78021213Y-69816707D01*
X78043749Y-69750571D01*
X78088804Y-69711530D01*
X78097566Y-69707066D01*
X78136413Y-69678842D01*
X78269536Y-69582124D01*
X78269538Y-69582121D01*
X78269542Y-69582119D01*
X78419854Y-69431807D01*
X78419856Y-69431803D01*
X78419859Y-69431801D01*
X78544798Y-69259835D01*
X78544797Y-69259835D01*
X78544801Y-69259831D01*
X78641307Y-69070427D01*
X78706996Y-68868258D01*
X78740250Y-68658302D01*
X78740250Y-68445728D01*
X78706996Y-68235772D01*
X78641307Y-68033603D01*
X78544801Y-67844199D01*
X78544799Y-67844196D01*
X78544798Y-67844194D01*
X78419859Y-67672228D01*
X78269536Y-67521905D01*
X78097570Y-67396966D01*
X78096865Y-67396606D01*
X78088804Y-67392500D01*
X78038009Y-67344527D01*
X78021213Y-67276707D01*
X78043749Y-67210571D01*
X78088804Y-67171530D01*
X78097566Y-67167066D01*
X78119935Y-67150814D01*
X78269536Y-67042124D01*
X78269538Y-67042121D01*
X78269542Y-67042119D01*
X78419854Y-66891807D01*
X78419856Y-66891803D01*
X78419859Y-66891801D01*
X78544798Y-66719835D01*
X78544797Y-66719835D01*
X78544801Y-66719831D01*
X78641307Y-66530427D01*
X78706996Y-66328258D01*
X78740250Y-66118302D01*
X78740250Y-66088847D01*
X78759935Y-66021808D01*
X78812739Y-65976053D01*
X78881897Y-65966109D01*
X78945453Y-65995134D01*
X78951931Y-66001166D01*
X79633181Y-66682416D01*
X79647884Y-66709343D01*
X79664477Y-66735162D01*
X79665368Y-66741362D01*
X79666666Y-66743739D01*
X79669500Y-66770097D01*
X79669500Y-66950234D01*
X79649815Y-67017273D01*
X79648602Y-67019125D01*
X79560609Y-67150814D01*
X79560602Y-67150827D01*
X79500264Y-67296498D01*
X79500261Y-67296510D01*
X79469500Y-67451153D01*
X79469500Y-67608846D01*
X79500261Y-67763489D01*
X79500264Y-67763501D01*
X79560602Y-67909172D01*
X79560609Y-67909185D01*
X79648210Y-68040288D01*
X79648213Y-68040292D01*
X79759707Y-68151786D01*
X79759711Y-68151789D01*
X79890814Y-68239390D01*
X79890827Y-68239397D01*
X80036498Y-68299735D01*
X80036503Y-68299737D01*
X80191153Y-68330499D01*
X80191156Y-68330500D01*
X80191158Y-68330500D01*
X80348844Y-68330500D01*
X80348845Y-68330499D01*
X80503497Y-68299737D01*
X80649179Y-68239394D01*
X80780289Y-68151789D01*
X80891789Y-68040289D01*
X80979394Y-67909179D01*
X81039737Y-67763497D01*
X81070500Y-67608842D01*
X81070500Y-67451158D01*
X81070500Y-67451155D01*
X81070499Y-67451153D01*
X81051067Y-67353462D01*
X81039737Y-67296503D01*
X81004143Y-67210571D01*
X80979397Y-67150827D01*
X80979390Y-67150814D01*
X80891398Y-67019125D01*
X80870520Y-66952447D01*
X80870500Y-66950234D01*
X80870500Y-66559060D01*
X80870501Y-66559047D01*
X80870501Y-66390944D01*
X80829576Y-66238214D01*
X80829573Y-66238209D01*
X80750524Y-66101290D01*
X80750518Y-66101282D01*
X78694635Y-64045400D01*
X78661150Y-63984077D01*
X78664385Y-63919401D01*
X78669895Y-63902442D01*
X78706996Y-63788258D01*
X78740250Y-63578302D01*
X78740250Y-63365728D01*
X78706996Y-63155772D01*
X78641307Y-62953603D01*
X78544801Y-62764199D01*
X78544799Y-62764196D01*
X78544798Y-62764194D01*
X78419859Y-62592228D01*
X78269536Y-62441905D01*
X78097570Y-62316966D01*
X78096865Y-62316606D01*
X78088804Y-62312500D01*
X78038009Y-62264527D01*
X78021213Y-62196707D01*
X78043749Y-62130571D01*
X78088804Y-62091530D01*
X78097566Y-62087066D01*
X78119539Y-62071101D01*
X78269536Y-61962124D01*
X78269538Y-61962121D01*
X78269542Y-61962119D01*
X78419854Y-61811807D01*
X78419856Y-61811803D01*
X78419859Y-61811801D01*
X78544798Y-61639835D01*
X78544797Y-61639835D01*
X78544801Y-61639831D01*
X78641307Y-61450427D01*
X78706996Y-61248258D01*
X78740250Y-61038302D01*
X78740250Y-60825728D01*
X78706996Y-60615772D01*
X78641307Y-60413603D01*
X78544801Y-60224199D01*
X78544799Y-60224196D01*
X78544798Y-60224194D01*
X78419859Y-60052228D01*
X78269536Y-59901905D01*
X78097570Y-59776966D01*
X78096865Y-59776606D01*
X78088804Y-59772500D01*
X78038009Y-59724527D01*
X78021213Y-59656707D01*
X78043749Y-59590571D01*
X78088804Y-59551530D01*
X78097566Y-59547066D01*
X78119539Y-59531101D01*
X78269536Y-59422124D01*
X78269538Y-59422121D01*
X78269542Y-59422119D01*
X78419854Y-59271807D01*
X78419856Y-59271803D01*
X78419859Y-59271801D01*
X78544798Y-59099835D01*
X78544797Y-59099835D01*
X78544801Y-59099831D01*
X78641307Y-58910427D01*
X78706996Y-58708258D01*
X78740250Y-58498302D01*
X78740250Y-58285728D01*
X78706996Y-58075772D01*
X78641307Y-57873603D01*
X78544801Y-57684199D01*
X78544799Y-57684196D01*
X78544798Y-57684194D01*
X78419859Y-57512228D01*
X78269536Y-57361905D01*
X78097570Y-57236966D01*
X78096865Y-57236606D01*
X78088804Y-57232500D01*
X78038009Y-57184527D01*
X78021213Y-57116707D01*
X78043749Y-57050571D01*
X78088804Y-57011530D01*
X78097566Y-57007066D01*
X78183888Y-56944350D01*
X78269536Y-56882124D01*
X78269538Y-56882121D01*
X78269542Y-56882119D01*
X78419854Y-56731807D01*
X78419856Y-56731803D01*
X78419859Y-56731801D01*
X78544798Y-56559835D01*
X78544797Y-56559835D01*
X78544801Y-56559831D01*
X78641307Y-56370427D01*
X78706996Y-56168258D01*
X78740250Y-55958302D01*
X78740250Y-55745728D01*
X78706996Y-55535772D01*
X78641307Y-55333603D01*
X78544801Y-55144199D01*
X78544799Y-55144196D01*
X78544798Y-55144194D01*
X78419859Y-54972228D01*
X78269536Y-54821905D01*
X78097570Y-54696966D01*
X77908164Y-54600459D01*
X77908163Y-54600458D01*
X77908162Y-54600458D01*
X77705993Y-54534769D01*
X77705991Y-54534768D01*
X77705990Y-54534768D01*
X77544707Y-54509223D01*
X77496037Y-54501515D01*
X77283463Y-54501515D01*
X77234792Y-54509223D01*
X77073510Y-54534768D01*
X76871335Y-54600459D01*
X76681929Y-54696966D01*
X76509963Y-54821905D01*
X76359640Y-54972228D01*
X76234701Y-55144194D01*
X76138194Y-55333600D01*
X76072503Y-55535775D01*
X76039250Y-55745728D01*
X76039250Y-55958301D01*
X76072503Y-56168254D01*
X76138194Y-56370429D01*
X76234701Y-56559835D01*
X76359640Y-56731801D01*
X76509963Y-56882124D01*
X76681932Y-57007065D01*
X76690696Y-57011531D01*
X76741492Y-57059506D01*
X76758286Y-57127327D01*
X76735748Y-57193462D01*
X76690696Y-57232499D01*
X76681932Y-57236964D01*
X76509963Y-57361905D01*
X76359640Y-57512228D01*
X76234701Y-57684194D01*
X76138194Y-57873600D01*
X76072503Y-58075775D01*
X76039250Y-58285728D01*
X76039250Y-58498301D01*
X76061409Y-58638211D01*
X76072504Y-58708258D01*
X76128575Y-58880827D01*
X76138194Y-58910429D01*
X76234701Y-59099835D01*
X76359640Y-59271801D01*
X76509963Y-59422124D01*
X76681932Y-59547065D01*
X76690696Y-59551531D01*
X76741492Y-59599506D01*
X76758286Y-59667327D01*
X76735748Y-59733462D01*
X76690696Y-59772499D01*
X76681932Y-59776964D01*
X76509963Y-59901905D01*
X76359640Y-60052228D01*
X76234701Y-60224194D01*
X76138194Y-60413600D01*
X76072503Y-60615775D01*
X76039250Y-60825728D01*
X76039250Y-61038301D01*
X76072503Y-61248254D01*
X76138194Y-61450429D01*
X76234701Y-61639835D01*
X76359640Y-61811801D01*
X76509963Y-61962124D01*
X76681932Y-62087065D01*
X76690696Y-62091531D01*
X76741492Y-62139506D01*
X76758286Y-62207327D01*
X76735748Y-62273462D01*
X76690696Y-62312499D01*
X76681932Y-62316964D01*
X76509963Y-62441905D01*
X76359640Y-62592228D01*
X76234701Y-62764194D01*
X76138194Y-62953600D01*
X76072503Y-63155775D01*
X76039250Y-63365728D01*
X76039250Y-63578301D01*
X76072503Y-63788254D01*
X76138194Y-63990429D01*
X76234701Y-64179835D01*
X76359640Y-64351801D01*
X76509963Y-64502124D01*
X76681932Y-64627065D01*
X76690696Y-64631531D01*
X76741492Y-64679506D01*
X76758286Y-64747327D01*
X76735748Y-64813462D01*
X76690696Y-64852499D01*
X76681932Y-64856964D01*
X76509963Y-64981905D01*
X76359640Y-65132228D01*
X76234701Y-65304194D01*
X76138194Y-65493600D01*
X76072503Y-65695775D01*
X76039250Y-65905728D01*
X76039250Y-66118301D01*
X76072503Y-66328254D01*
X76138194Y-66530429D01*
X76234701Y-66719835D01*
X76359640Y-66891801D01*
X76509963Y-67042124D01*
X76681932Y-67167065D01*
X76690696Y-67171531D01*
X76741492Y-67219506D01*
X76758286Y-67287327D01*
X76735748Y-67353462D01*
X76690696Y-67392499D01*
X76681932Y-67396964D01*
X76509963Y-67521905D01*
X76359640Y-67672228D01*
X76234701Y-67844194D01*
X76138194Y-68033600D01*
X76072503Y-68235775D01*
X76057500Y-68330500D01*
X76039250Y-68445728D01*
X76039250Y-68658302D01*
X76072504Y-68868258D01*
X76079766Y-68890609D01*
X76138194Y-69070429D01*
X76234701Y-69259835D01*
X76359640Y-69431801D01*
X76509963Y-69582124D01*
X76681932Y-69707065D01*
X76690696Y-69711531D01*
X76741492Y-69759506D01*
X76758286Y-69827327D01*
X76735748Y-69893462D01*
X76690696Y-69932499D01*
X76681932Y-69936964D01*
X76509963Y-70061905D01*
X76359640Y-70212228D01*
X76234701Y-70384195D01*
X76208848Y-70434934D01*
X76160873Y-70485730D01*
X76093052Y-70502525D01*
X76026917Y-70479987D01*
X75990976Y-70440638D01*
X75910524Y-70301290D01*
X75910518Y-70301282D01*
X64854573Y-59245337D01*
X64821088Y-59184014D01*
X64820637Y-59181847D01*
X64789738Y-59026510D01*
X64789737Y-59026503D01*
X64741658Y-58910429D01*
X64729397Y-58880827D01*
X64729390Y-58880814D01*
X64641789Y-58749711D01*
X64641786Y-58749707D01*
X64530292Y-58638213D01*
X64530288Y-58638210D01*
X64399185Y-58550609D01*
X64399172Y-58550602D01*
X64253501Y-58490264D01*
X64253489Y-58490261D01*
X64098845Y-58459500D01*
X64098842Y-58459500D01*
X63941158Y-58459500D01*
X63941155Y-58459500D01*
X63786510Y-58490261D01*
X63786498Y-58490264D01*
X63640827Y-58550602D01*
X63640814Y-58550609D01*
X63509711Y-58638210D01*
X63509707Y-58638213D01*
X63398213Y-58749707D01*
X63398210Y-58749711D01*
X63310609Y-58880814D01*
X63310602Y-58880827D01*
X63250264Y-59026498D01*
X63250261Y-59026510D01*
X63219500Y-59181153D01*
X56370500Y-59181153D01*
X56370500Y-56608053D01*
X57671123Y-56608053D01*
X74483846Y-56608053D01*
X74483846Y-53793603D01*
X57671123Y-53793603D01*
X57671123Y-56608053D01*
X56370500Y-56608053D01*
X56370500Y-52704500D01*
X56390185Y-52637461D01*
X56442989Y-52591706D01*
X56494500Y-52580500D01*
X94105500Y-52580500D01*
X94172539Y-52600185D01*
G37*
%TD.AperFunction*%
%TD*%
%TA.AperFunction,Conductor*%
%TO.N,GND*%
G36*
X91517446Y-77328942D02*
G01*
X91561794Y-77357443D01*
X91814974Y-77610623D01*
X91814990Y-77610637D01*
X91814997Y-77610644D01*
X91855215Y-77646771D01*
X91855227Y-77646781D01*
X91855235Y-77646788D01*
X91875877Y-77663422D01*
X91919761Y-77695067D01*
X92050638Y-77754838D01*
X92117677Y-77774523D01*
X92117681Y-77774524D01*
X92260097Y-77795000D01*
X92800111Y-77795000D01*
X92811091Y-77795487D01*
X92829864Y-77797155D01*
X92829864Y-77797156D01*
X92842896Y-77798314D01*
X92866022Y-77802610D01*
X92886769Y-77808547D01*
X92886771Y-77808547D01*
X92895089Y-77810927D01*
X92942442Y-77824476D01*
X92965742Y-77833783D01*
X93032619Y-77868716D01*
X93053567Y-77882521D01*
X93112050Y-77930207D01*
X93129788Y-77947945D01*
X93150934Y-77973879D01*
X93150937Y-77973882D01*
X93150937Y-77973883D01*
X93177474Y-78006429D01*
X93191279Y-78027375D01*
X93226214Y-78094253D01*
X93235522Y-78117555D01*
X93257386Y-78193969D01*
X93261683Y-78217096D01*
X93264512Y-78248906D01*
X93264999Y-78259890D01*
X93264999Y-81320103D01*
X93264512Y-81331085D01*
X93261683Y-81362901D01*
X93257386Y-81386030D01*
X93235522Y-81462443D01*
X93226214Y-81485744D01*
X93191277Y-81552626D01*
X93177472Y-81573574D01*
X93092575Y-81677693D01*
X93021433Y-81794058D01*
X92994798Y-81854768D01*
X92957355Y-81985915D01*
X92957355Y-81985917D01*
X92957355Y-82057853D01*
X92957356Y-82075499D01*
X92937672Y-82142538D01*
X92884869Y-82188294D01*
X92833356Y-82199500D01*
X90398278Y-82199500D01*
X90363345Y-82194478D01*
X90351914Y-82191121D01*
X90293136Y-82153348D01*
X90264110Y-82089793D01*
X90273295Y-82022326D01*
X90277565Y-82012594D01*
X90295012Y-81984057D01*
X90409698Y-81843407D01*
X90503909Y-81663049D01*
X90559886Y-81467418D01*
X90570500Y-81348037D01*
X90570499Y-78793602D01*
X90590184Y-78726564D01*
X90642987Y-78680809D01*
X90693642Y-78669606D01*
X90751608Y-78669204D01*
X90763894Y-78669120D01*
X90901662Y-78627631D01*
X90901666Y-78627629D01*
X90901669Y-78627628D01*
X90965003Y-78598173D01*
X90965002Y-78598173D01*
X90965016Y-78598167D01*
X91085515Y-78519544D01*
X91178983Y-78410157D01*
X91216350Y-78351119D01*
X91275213Y-78219831D01*
X91304477Y-78117555D01*
X91313782Y-78094258D01*
X91345483Y-78033572D01*
X91359158Y-78005283D01*
X91365431Y-77991206D01*
X91377330Y-77962101D01*
X91384269Y-77930205D01*
X91407911Y-77821519D01*
X91407911Y-77821517D01*
X91407913Y-77821509D01*
X91412897Y-77751817D01*
X91402633Y-77608306D01*
X91402631Y-77608300D01*
X91357932Y-77488458D01*
X91352947Y-77418767D01*
X91386431Y-77357443D01*
X91447754Y-77323958D01*
X91517446Y-77328942D01*
G37*
%TD.AperFunction*%
%TA.AperFunction,Conductor*%
G36*
X72151034Y-75199881D02*
G01*
X72164364Y-75202533D01*
X72177135Y-75205073D01*
X72177135Y-75205074D01*
X72216480Y-75212901D01*
X72265569Y-75220183D01*
X72289758Y-75222565D01*
X72289758Y-75222564D01*
X72319233Y-75225467D01*
X72331653Y-75224755D01*
X72337665Y-75224764D01*
X72339298Y-75224999D01*
X72488995Y-75224999D01*
X72496603Y-75225000D01*
X72496611Y-75225000D01*
X72564679Y-75225000D01*
X72631718Y-75244685D01*
X72677473Y-75297489D01*
X72687417Y-75366647D01*
X72658392Y-75430203D01*
X72608298Y-75463191D01*
X72608731Y-75464132D01*
X72602578Y-75466958D01*
X72602260Y-75467168D01*
X72601811Y-75467310D01*
X72601804Y-75467313D01*
X72479407Y-75542921D01*
X72479406Y-75542921D01*
X72455127Y-75563212D01*
X72427741Y-75586100D01*
X72425788Y-75587732D01*
X72373493Y-75645948D01*
X72368928Y-75650764D01*
X72306693Y-75712999D01*
X72287903Y-75728420D01*
X72259885Y-75747141D01*
X72238446Y-75758600D01*
X72207328Y-75771489D01*
X72184071Y-75778545D01*
X72167340Y-75781873D01*
X72151031Y-75785117D01*
X72126841Y-75787500D01*
X72093159Y-75787500D01*
X72068970Y-75785117D01*
X72044566Y-75780263D01*
X72035924Y-75778544D01*
X72012667Y-75771488D01*
X71981547Y-75758598D01*
X71960108Y-75747139D01*
X71932096Y-75728422D01*
X71913306Y-75713001D01*
X71889496Y-75689191D01*
X71874075Y-75670401D01*
X71860954Y-75650764D01*
X71855356Y-75642386D01*
X71843899Y-75620951D01*
X71837725Y-75606045D01*
X71831009Y-75589833D01*
X71823954Y-75566572D01*
X71817382Y-75533528D01*
X71815000Y-75509340D01*
X71815000Y-75475657D01*
X71817382Y-75451469D01*
X71822835Y-75424052D01*
X71823954Y-75418421D01*
X71831008Y-75395167D01*
X71843902Y-75364039D01*
X71855353Y-75342615D01*
X71874080Y-75314589D01*
X71889491Y-75295811D01*
X71913311Y-75271991D01*
X71932088Y-75256581D01*
X71960118Y-75237851D01*
X71981539Y-75226402D01*
X72012667Y-75213508D01*
X72035920Y-75206455D01*
X72068968Y-75199881D01*
X72093158Y-75197500D01*
X72126847Y-75197500D01*
X72151034Y-75199881D01*
G37*
%TD.AperFunction*%
%TA.AperFunction,Conductor*%
G36*
X82801027Y-75027381D02*
G01*
X82834080Y-75033955D01*
X82857325Y-75041007D01*
X82888458Y-75053902D01*
X82909882Y-75065354D01*
X82990033Y-75118909D01*
X82992646Y-75120638D01*
X82993980Y-75121521D01*
X82995754Y-75122683D01*
X82999431Y-75125068D01*
X82999434Y-75125069D01*
X83130302Y-75184836D01*
X83130303Y-75184836D01*
X83130307Y-75184838D01*
X83184528Y-75200759D01*
X83243306Y-75238534D01*
X83272330Y-75302090D01*
X83262386Y-75371249D01*
X83216630Y-75424052D01*
X83186646Y-75438070D01*
X83119831Y-75458991D01*
X83119818Y-75458996D01*
X82990036Y-75521088D01*
X82990031Y-75521091D01*
X82909891Y-75574638D01*
X82888455Y-75586096D01*
X82857329Y-75598989D01*
X82834070Y-75606045D01*
X82817443Y-75609352D01*
X82801030Y-75612617D01*
X82776841Y-75615000D01*
X82743159Y-75615000D01*
X82718967Y-75612617D01*
X82685924Y-75606044D01*
X82662666Y-75598988D01*
X82631548Y-75586099D01*
X82610111Y-75574641D01*
X82530047Y-75521144D01*
X82529967Y-75521091D01*
X82529966Y-75521090D01*
X82526092Y-75518527D01*
X82526009Y-75518472D01*
X82524192Y-75517282D01*
X82520568Y-75514931D01*
X82520565Y-75514930D01*
X82389693Y-75455161D01*
X82335470Y-75439239D01*
X82307784Y-75421445D01*
X82279489Y-75404584D01*
X82278520Y-75402638D01*
X82276692Y-75401464D01*
X82263016Y-75371517D01*
X82248335Y-75342044D01*
X82248571Y-75339883D01*
X82247669Y-75337907D01*
X82252355Y-75305319D01*
X82255938Y-75272589D01*
X82257304Y-75270899D01*
X82257614Y-75268749D01*
X82279179Y-75243862D01*
X82299884Y-75218271D01*
X82302434Y-75217025D01*
X82303370Y-75215946D01*
X82331475Y-75202533D01*
X82333375Y-75201904D01*
X82333496Y-75201885D01*
X82400174Y-75181007D01*
X82400178Y-75181005D01*
X82529968Y-75118908D01*
X82529979Y-75118900D01*
X82529982Y-75118899D01*
X82560825Y-75098289D01*
X82610106Y-75065359D01*
X82631545Y-75053900D01*
X82662666Y-75041010D01*
X82685922Y-75033954D01*
X82718968Y-75027381D01*
X82743158Y-75025000D01*
X82776845Y-75025000D01*
X82801027Y-75027381D01*
G37*
%TD.AperFunction*%
%TA.AperFunction,Conductor*%
G36*
X77491694Y-57222200D02*
G01*
X77537449Y-57275004D01*
X77545017Y-57296701D01*
X77547332Y-57306046D01*
X77547336Y-57306055D01*
X77547337Y-57306059D01*
X77601439Y-57439355D01*
X77601445Y-57439365D01*
X77690915Y-57552026D01*
X77690919Y-57552031D01*
X77715764Y-57575495D01*
X77741716Y-57600005D01*
X77741761Y-57600048D01*
X77758628Y-57611935D01*
X77760427Y-57613303D01*
X77766052Y-57620937D01*
X77800447Y-57645925D01*
X77800447Y-57645926D01*
X77932335Y-57741747D01*
X77932337Y-57741748D01*
X77947133Y-57754386D01*
X78027376Y-57834629D01*
X78040014Y-57849426D01*
X78106720Y-57941241D01*
X78116886Y-57957830D01*
X78168410Y-58058951D01*
X78175856Y-58076927D01*
X78210929Y-58184868D01*
X78215471Y-58203788D01*
X78215471Y-58203789D01*
X78233223Y-58315868D01*
X78234750Y-58335266D01*
X78234750Y-58448762D01*
X78233223Y-58468160D01*
X78215471Y-58580239D01*
X78210929Y-58599160D01*
X78175855Y-58707104D01*
X78168409Y-58725079D01*
X78116888Y-58826196D01*
X78106721Y-58842787D01*
X78040014Y-58934602D01*
X78027377Y-58949398D01*
X77947136Y-59029639D01*
X77932340Y-59042276D01*
X77821874Y-59122533D01*
X77821548Y-59122771D01*
X77800432Y-59138114D01*
X77800487Y-59138190D01*
X77759175Y-59168437D01*
X77759144Y-59168448D01*
X77757772Y-59169498D01*
X77712711Y-59208544D01*
X77630583Y-59299324D01*
X77630581Y-59299326D01*
X77565267Y-59427520D01*
X77565265Y-59427527D01*
X77542729Y-59493663D01*
X77542728Y-59493668D01*
X77541419Y-59497510D01*
X77527671Y-59517012D01*
X77517759Y-59538718D01*
X77507909Y-59545048D01*
X77501164Y-59554617D01*
X77479054Y-59563591D01*
X77458981Y-59576492D01*
X77440851Y-59579098D01*
X77436424Y-59580896D01*
X77424046Y-59581515D01*
X77354844Y-59581515D01*
X77287805Y-59561830D01*
X77242050Y-59509026D01*
X77234479Y-59487319D01*
X77233675Y-59484072D01*
X77233321Y-59482256D01*
X77232171Y-59477997D01*
X77211687Y-59427527D01*
X77178062Y-59344678D01*
X77088584Y-59232004D01*
X77063745Y-59208544D01*
X77037785Y-59184026D01*
X77022692Y-59173386D01*
X77019921Y-59171375D01*
X76977766Y-59139878D01*
X76979055Y-59138105D01*
X76846509Y-59041806D01*
X76845824Y-59041294D01*
X76845497Y-59040859D01*
X76832363Y-59029640D01*
X76752119Y-58949396D01*
X76739481Y-58934599D01*
X76672780Y-58842791D01*
X76662614Y-58826202D01*
X76611085Y-58725072D01*
X76603639Y-58707095D01*
X76568570Y-58599163D01*
X76564029Y-58580244D01*
X76560685Y-58559124D01*
X76560685Y-58559123D01*
X76546277Y-58468157D01*
X76544750Y-58448759D01*
X76544750Y-58335269D01*
X76546275Y-58315884D01*
X76564032Y-58203766D01*
X76568566Y-58184880D01*
X76603646Y-58076914D01*
X76611088Y-58058951D01*
X76662621Y-57957812D01*
X76672777Y-57941241D01*
X76739485Y-57849422D01*
X76752113Y-57834637D01*
X76832371Y-57754379D01*
X76847155Y-57741752D01*
X76979055Y-57645924D01*
X76979054Y-57645923D01*
X77018869Y-57616998D01*
X77018735Y-57616822D01*
X77021729Y-57614530D01*
X77044000Y-57595232D01*
X77066776Y-57575497D01*
X77148906Y-57484720D01*
X77214227Y-57356522D01*
X77236765Y-57290387D01*
X77236765Y-57290385D01*
X77238084Y-57286516D01*
X77251831Y-57267015D01*
X77261743Y-57245312D01*
X77271595Y-57238980D01*
X77278342Y-57229410D01*
X77300448Y-57220437D01*
X77320521Y-57207538D01*
X77338656Y-57204930D01*
X77343083Y-57203134D01*
X77355456Y-57202515D01*
X77424655Y-57202515D01*
X77491694Y-57222200D01*
G37*
%TD.AperFunction*%
%TD*%
M02*
