M48
; DRILL file KiCad 10.0.4 date 2026-06-28T16:28:13
; FORMAT={-:-/ absolute / metric / decimal}
; #@! TF.CreationDate,2026-06-28T16:28:13+05:30
; #@! TF.GenerationSoftware,Kicad,Pcbnew,10.0.4
; #@! TF.FileFunction,Plated,1,2,PTH
FMAT,2
METRIC
; #@! TA.AperFunction,Plated,PTH,ViaDrill
T1C0.300
; #@! TA.AperFunction,Plated,PTH,ComponentDrill
T2C0.600
; #@! TA.AperFunction,Plated,PTH,ComponentDrill
T3C1.000
%
G90
G05
T1
X64.02Y-59.26
X72.11Y-75.492
X80.27Y-67.53
X82.37Y-79.71
X82.76Y-75.32
X88.18Y-69.6
X92.22Y-79.99
T3
X77.39Y-55.852
X77.39Y-58.392
X77.39Y-60.932
X77.39Y-63.472
X77.39Y-66.012
X77.39Y-68.552
X77.39Y-71.092
X92.64Y-55.852
X92.64Y-58.392
X92.64Y-60.932
X92.64Y-63.472
X92.64Y-66.012
X92.64Y-68.552
X92.64Y-71.092
T2
G00X58.43Y-67.5
M15
G01X56.93Y-67.5
M16
G05
G00X58.43Y-76.14
M15
G01X56.93Y-76.14
M16
G05
G00X63.54Y-67.5
M15
G01X62.54Y-67.5
M16
G05
G00X63.54Y-76.14
M15
G01X62.54Y-76.14
M16
G05
M30
