%TF.GenerationSoftware,KiCad,Pcbnew,10.0.4*%
%TF.CreationDate,2026-06-28T16:28:20+05:30*%
%TF.ProjectId,Jazz,4a617a7a-2e6b-4696-9361-645f70636258,rev?*%
%TF.SameCoordinates,Original*%
%TF.FileFunction,Copper,L1,Top*%
%TF.FilePolarity,Positive*%
%FSLAX46Y46*%
G04 Gerber Fmt 4.6, Leading zero omitted, Abs format (unit mm)*
G04 Created by KiCad (PCBNEW 10.0.4) date 2026-06-28 16:28:20*
%MOMM*%
%LPD*%
G01*
G04 APERTURE LIST*
G04 Aperture macros list*
%AMRoundRect*
0 Rectangle with rounded corners*
0 $1 Rounding radius*
0 $2 $3 $4 $5 $6 $7 $8 $9 X,Y pos of 4 corners*
0 Add a 4 corners polygon primitive as box body*
4,1,4,$2,$3,$4,$5,$6,$7,$8,$9,$2,$3,0*
0 Add four circle primitives for the rounded corners*
1,1,$1+$1,$2,$3*
1,1,$1+$1,$4,$5*
1,1,$1+$1,$6,$7*
1,1,$1+$1,$8,$9*
0 Add four rect primitives between the rounded corners*
20,1,$1+$1,$2,$3,$4,$5,0*
20,1,$1+$1,$4,$5,$6,$7,0*
20,1,$1+$1,$6,$7,$8,$9,0*
20,1,$1+$1,$8,$9,$2,$3,0*%
G04 Aperture macros list end*
%TA.AperFunction,SMDPad,CuDef*%
%ADD10RoundRect,0.500000X0.500000X1.500000X-0.500000X1.500000X-0.500000X-1.500000X0.500000X-1.500000X0*%
%TD*%
%TA.AperFunction,SMDPad,CuDef*%
%ADD11RoundRect,0.250000X0.250000X0.475000X-0.250000X0.475000X-0.250000X-0.475000X0.250000X-0.475000X0*%
%TD*%
%TA.AperFunction,SMDPad,CuDef*%
%ADD12RoundRect,0.150000X-0.512500X-0.150000X0.512500X-0.150000X0.512500X0.150000X-0.512500X0.150000X0*%
%TD*%
%TA.AperFunction,SMDPad,CuDef*%
%ADD13RoundRect,0.250000X-0.250000X-0.475000X0.250000X-0.475000X0.250000X0.475000X-0.250000X0.475000X0*%
%TD*%
%TA.AperFunction,SMDPad,CuDef*%
%ADD14RoundRect,0.500000X-0.500000X-1.500000X0.500000X-1.500000X0.500000X1.500000X-0.500000X1.500000X0*%
%TD*%
%TA.AperFunction,SMDPad,CuDef*%
%ADD15RoundRect,0.250000X0.475000X-0.250000X0.475000X0.250000X-0.475000X0.250000X-0.475000X-0.250000X0*%
%TD*%
%TA.AperFunction,SMDPad,CuDef*%
%ADD16RoundRect,0.250000X0.262500X0.450000X-0.262500X0.450000X-0.262500X-0.450000X0.262500X-0.450000X0*%
%TD*%
%TA.AperFunction,SMDPad,CuDef*%
%ADD17RoundRect,0.250000X-0.262500X-0.450000X0.262500X-0.450000X0.262500X0.450000X-0.262500X0.450000X0*%
%TD*%
%TA.AperFunction,ComponentPad*%
%ADD18O,2.100000X1.000000*%
%TD*%
%TA.AperFunction,ComponentPad*%
%ADD19O,2.600000X1.000000*%
%TD*%
%TA.AperFunction,SMDPad,CuDef*%
%ADD20R,0.800000X0.300000*%
%TD*%
%TA.AperFunction,SMDPad,CuDef*%
%ADD21R,0.700000X1.000000*%
%TD*%
%TA.AperFunction,SMDPad,CuDef*%
%ADD22R,0.700000X0.300000*%
%TD*%
%TA.AperFunction,SMDPad,CuDef*%
%ADD23R,0.505000X0.224000*%
%TD*%
%TA.AperFunction,SMDPad,CuDef*%
%ADD24R,0.900000X1.500000*%
%TD*%
%TA.AperFunction,SMDPad,CuDef*%
%ADD25RoundRect,0.250000X0.450000X-0.262500X0.450000X0.262500X-0.450000X0.262500X-0.450000X-0.262500X0*%
%TD*%
%TA.AperFunction,SMDPad,CuDef*%
%ADD26RoundRect,0.250000X-0.325000X-0.650000X0.325000X-0.650000X0.325000X0.650000X-0.325000X0.650000X0*%
%TD*%
%TA.AperFunction,SMDPad,CuDef*%
%ADD27R,0.250000X0.600000*%
%TD*%
%TA.AperFunction,SMDPad,CuDef*%
%ADD28R,0.600000X0.250000*%
%TD*%
%TA.AperFunction,SMDPad,CuDef*%
%ADD29R,1.500000X1.500000*%
%TD*%
%TA.AperFunction,SMDPad,CuDef*%
%ADD30RoundRect,0.250000X-0.475000X0.250000X-0.475000X-0.250000X0.475000X-0.250000X0.475000X0.250000X0*%
%TD*%
%TA.AperFunction,ComponentPad*%
%ADD31R,1.700000X1.700000*%
%TD*%
%TA.AperFunction,ComponentPad*%
%ADD32C,1.700000*%
%TD*%
%TA.AperFunction,ViaPad*%
%ADD33C,0.600000*%
%TD*%
%TA.AperFunction,Conductor*%
%ADD34C,0.200000*%
%TD*%
%TA.AperFunction,Conductor*%
%ADD35C,0.150000*%
%TD*%
G04 APERTURE END LIST*
D10*
%TO.P,I/O1,1,1_1*%
%TO.N,Pairing-Mode*%
X61080000Y-55030000D03*
%TD*%
D11*
%TO.P,C6,1*%
%TO.N,GND*%
X90080000Y-69600000D03*
%TO.P,C6,2*%
%TO.N,3.3V*%
X88180000Y-69600000D03*
%TD*%
D12*
%TO.P,U2,1,IN_1*%
%TO.N,Switch_OUT*%
X85390000Y-72190000D03*
%TO.P,U2,2,GND_2*%
%TO.N,GND*%
X85390000Y-73140000D03*
%TO.P,U2,3,EN_3*%
%TO.N,Switch_OUT*%
X85390000Y-74090000D03*
%TO.P,U2,4,NC_4*%
%TO.N,unconnected-(U2-NC-Pad4)*%
X87665000Y-74090000D03*
%TO.P,U2,5,OUT_5*%
%TO.N,3.3V*%
X87665000Y-72190000D03*
%TD*%
D13*
%TO.P,C1,1*%
%TO.N,Switch_OUT*%
X85670000Y-64260000D03*
%TO.P,C1,2*%
%TO.N,GND*%
X87570000Y-64260000D03*
%TD*%
D14*
%TO.P,VCC1,1,1_1*%
%TO.N,3.3V*%
X63710000Y-55020000D03*
%TD*%
D12*
%TO.P,D1,1,A_1*%
%TO.N,3.3V*%
X64020000Y-59260000D03*
%TO.P,D1,2,NC_2*%
%TO.N,unconnected-(D1-NC-Pad2)*%
X64020000Y-61160000D03*
%TO.P,D1,3,K_3*%
%TO.N,Diode Out*%
X66295000Y-60210000D03*
%TD*%
D15*
%TO.P,C5,1*%
%TO.N,GND*%
X82850000Y-73290000D03*
%TO.P,C5,2*%
%TO.N,Switch_OUT*%
X82850000Y-71390000D03*
%TD*%
D14*
%TO.P,Switch1,1,1_1*%
%TO.N,Battery-Rail Out*%
X82370000Y-79710000D03*
%TD*%
D16*
%TO.P,R1,1*%
%TO.N,3.3V*%
X86472500Y-69600000D03*
%TO.P,R1,2*%
%TO.N,Net-(U4-~{SD_MODE})*%
X84647500Y-69600000D03*
%TD*%
%TO.P,R6,1*%
%TO.N,Net-(USB-C-Port1-CC1)*%
X63972500Y-65760000D03*
%TO.P,R6,2*%
%TO.N,GND*%
X62147500Y-65760000D03*
%TD*%
%TO.P,R7,1*%
%TO.N,GND*%
X59652500Y-65180000D03*
%TO.P,R7,2*%
%TO.N,GROUND*%
X57827500Y-65180000D03*
%TD*%
D17*
%TO.P,R2,1*%
%TO.N,GND*%
X64915000Y-74420000D03*
%TO.P,R2,2*%
%TO.N,Net-(U3-ISET)*%
X66740000Y-74420000D03*
%TD*%
D10*
%TO.P,P1,1,1_1*%
%TO.N,OUT-P*%
X73240000Y-54790000D03*
%TD*%
D11*
%TO.P,C7,1*%
%TO.N,GND*%
X59680000Y-63180000D03*
%TO.P,C7,2*%
%TO.N,GROUND*%
X57780000Y-63180000D03*
%TD*%
D18*
%TO.P,USB-C-Port1,0,0_0*%
%TO.N,GROUND*%
X63040000Y-67500000D03*
D19*
X57680000Y-67500000D03*
D18*
X63040000Y-76140000D03*
D19*
X57680000Y-76140000D03*
D20*
%TO.P,USB-C-Port1,A1,GND_A1*%
%TO.N,GND*%
X63500000Y-68820000D03*
%TO.P,USB-C-Port1,A2,TX1+_A2*%
%TO.N,unconnected-(USB-C-Port1-TX1+-PadA2)*%
X63500000Y-69320000D03*
%TO.P,USB-C-Port1,A3,TX1-_A3*%
%TO.N,unconnected-(USB-C-Port1-TX1--PadA3)*%
X63500000Y-69820000D03*
%TO.P,USB-C-Port1,A4,VBUS_A4*%
%TO.N,VBUS*%
X63500000Y-70320000D03*
%TO.P,USB-C-Port1,A5,CC1_A5*%
%TO.N,Net-(USB-C-Port1-CC1)*%
X63500000Y-70820000D03*
%TO.P,USB-C-Port1,A6,D+_A6*%
%TO.N,unconnected-(USB-C-Port1-D+-PadA6)*%
X63500000Y-71320000D03*
%TO.P,USB-C-Port1,A7,D-_A7*%
%TO.N,unconnected-(USB-C-Port1-D--PadA7)*%
X63500000Y-72320000D03*
%TO.P,USB-C-Port1,A8,SBU1_A8*%
%TO.N,unconnected-(USB-C-Port1-SBU1-PadA8)*%
X63500000Y-72820000D03*
%TO.P,USB-C-Port1,A9,VBUS_A9*%
%TO.N,VBUS*%
X63500000Y-73320000D03*
%TO.P,USB-C-Port1,A10,RX2-_A10*%
%TO.N,unconnected-(USB-C-Port1-RX2--PadA10)*%
X63500000Y-73820000D03*
%TO.P,USB-C-Port1,A11,RX2+_A11*%
%TO.N,unconnected-(USB-C-Port1-RX2+-PadA11)*%
X63500000Y-74320000D03*
%TO.P,USB-C-Port1,A12,GND_A12*%
%TO.N,GND*%
X63500000Y-74820000D03*
D21*
%TO.P,USB-C-Port1,B1,GND_B1*%
X62150000Y-74920000D03*
D22*
%TO.P,USB-C-Port1,B2,TX2+_B2*%
%TO.N,unconnected-(USB-C-Port1-TX2+-PadB2)*%
X62150000Y-74070000D03*
%TO.P,USB-C-Port1,B3,TX2-_B3*%
%TO.N,unconnected-(USB-C-Port1-TX2--PadB3)*%
X62150000Y-73570000D03*
%TO.P,USB-C-Port1,B4,VBUS_B4*%
%TO.N,VBUS*%
X62150000Y-73070000D03*
%TO.P,USB-C-Port1,B5,CC2_B5*%
%TO.N,Net-(USB-C-Port1-CC2)*%
X62150000Y-72570000D03*
%TO.P,USB-C-Port1,B6,D+_B6*%
%TO.N,unconnected-(USB-C-Port1-D+-PadB6)*%
X62150000Y-72070000D03*
%TO.P,USB-C-Port1,B7,D-_B7*%
%TO.N,unconnected-(USB-C-Port1-D--PadB7)*%
X62150000Y-71570000D03*
%TO.P,USB-C-Port1,B8,SBU2_B8*%
%TO.N,unconnected-(USB-C-Port1-SBU2-PadB8)*%
X62150000Y-71070000D03*
%TO.P,USB-C-Port1,B9,VBUS_B9*%
%TO.N,VBUS*%
X62150000Y-70570000D03*
%TO.P,USB-C-Port1,B10,RX1-_B10*%
%TO.N,unconnected-(USB-C-Port1-RX1--PadB10)*%
X62150000Y-70070000D03*
%TO.P,USB-C-Port1,B11,RX1+_B11*%
%TO.N,unconnected-(USB-C-Port1-RX1+-PadB11)*%
X62150000Y-69570000D03*
D21*
%TO.P,USB-C-Port1,B12,GND_B12*%
%TO.N,GND*%
X62150000Y-68720000D03*
%TD*%
D23*
%TO.P,U3,1,IN_1*%
%TO.N,VBUS*%
X68450000Y-73300000D03*
%TO.P,U3,2,ISET_2*%
%TO.N,Net-(U3-ISET)*%
X68450000Y-73700000D03*
%TO.P,U3,3,VSS_3*%
%TO.N,GND*%
X68450000Y-74100000D03*
%TO.P,U3,4,PRETERM_4*%
%TO.N,Net-(U3-PRETERM)*%
X68450000Y-74500000D03*
%TO.P,U3,5,~{PG}_5*%
%TO.N,unconnected-(U3-~{PG}-Pad5)*%
X68450000Y-74900000D03*
%TO.P,U3,6,NC_6*%
%TO.N,unconnected-(U3-NC-Pad6)*%
X70350000Y-74900000D03*
%TO.P,U3,7,ISET2_7*%
%TO.N,GND*%
X70350000Y-74500000D03*
%TO.P,U3,8,~{CHG}_8*%
%TO.N,unconnected-(U3-~{CHG}-Pad8)*%
X70350000Y-74100000D03*
%TO.P,U3,9,TS_9*%
%TO.N,Net-(U3-TS)*%
X70350000Y-73700000D03*
%TO.P,U3,10,OUT_10*%
%TO.N,Battery-Rail Out*%
X70350000Y-73300000D03*
D24*
%TO.P,U3,11,EP_11*%
%TO.N,GND*%
X69400000Y-74100000D03*
%TD*%
D10*
%TO.P,N1,1,1_1*%
%TO.N,OUT-N*%
X70420000Y-54790000D03*
%TD*%
D25*
%TO.P,R3,1*%
%TO.N,GND*%
X66290000Y-78092500D03*
%TO.P,R3,2*%
%TO.N,Net-(U3-PRETERM)*%
X66290000Y-76267500D03*
%TD*%
%TO.P,R4,1*%
%TO.N,GND*%
X72110000Y-75492500D03*
%TO.P,R4,2*%
%TO.N,Net-(U3-TS)*%
X72110000Y-73667500D03*
%TD*%
D14*
%TO.P,Switch2,1,1_1*%
%TO.N,Switch_OUT*%
X85450000Y-79710000D03*
%TD*%
D17*
%TO.P,R5,1*%
%TO.N,Net-(USB-C-Port1-CC2)*%
X61037500Y-77820000D03*
%TO.P,R5,2*%
%TO.N,GND*%
X62862500Y-77820000D03*
%TD*%
D26*
%TO.P,C4,1*%
%TO.N,GND*%
X68315000Y-70430000D03*
%TO.P,C4,2*%
%TO.N,Battery-Rail Out*%
X71265000Y-70430000D03*
%TD*%
D14*
%TO.P,GND1,1,1_1*%
%TO.N,GND*%
X58090000Y-55070000D03*
%TD*%
D27*
%TO.P,U4,1,DIN_1*%
%TO.N,DIN*%
X81840000Y-67290000D03*
%TO.P,U4,2,GAIN_SLOT_2*%
%TO.N,GND*%
X82340000Y-67290000D03*
%TO.P,U4,3,GND_3*%
X82840000Y-67290000D03*
%TO.P,U4,4,~{SD_MODE}_4*%
%TO.N,Net-(U4-~{SD_MODE})*%
X83340000Y-67290000D03*
D28*
%TO.P,U4,5,N.C._5*%
%TO.N,unconnected-(U4-N.C.-Pad5)*%
X84090000Y-66540000D03*
%TO.P,U4,6,N.C._6*%
%TO.N,unconnected-(U4-N.C.-Pad6)*%
X84090000Y-66040000D03*
%TO.P,U4,7,VDD_7*%
%TO.N,Switch_OUT*%
X84090000Y-65540000D03*
%TO.P,U4,8,VDD_8*%
X84090000Y-65040000D03*
D27*
%TO.P,U4,9,OUTP_9*%
%TO.N,OUT-P*%
X83340000Y-64290000D03*
%TO.P,U4,10,OUTN_10*%
%TO.N,OUT-N*%
X82840000Y-64290000D03*
%TO.P,U4,11,GND_11*%
%TO.N,GND*%
X82340000Y-64290000D03*
%TO.P,U4,12,N.C._12*%
%TO.N,unconnected-(U4-N.C.-Pad12)*%
X81840000Y-64290000D03*
D28*
%TO.P,U4,13,N.C._13*%
%TO.N,unconnected-(U4-N.C.-Pad13)*%
X81090000Y-65040000D03*
%TO.P,U4,14,LRCLK_14*%
%TO.N,LRCK*%
X81090000Y-65540000D03*
%TO.P,U4,15,GND_15*%
%TO.N,GND*%
X81090000Y-66040000D03*
%TO.P,U4,16,BCLK_16*%
%TO.N,BCLK*%
X81090000Y-66540000D03*
D29*
%TO.P,U4,17,EP_17*%
%TO.N,GND*%
X82590000Y-65790000D03*
%TD*%
D26*
%TO.P,C2,1*%
%TO.N,Switch_OUT*%
X85665000Y-66910000D03*
%TO.P,C2,2*%
%TO.N,GND*%
X88615000Y-66910000D03*
%TD*%
D30*
%TO.P,C3,1*%
%TO.N,GND*%
X66310000Y-70290000D03*
%TO.P,C3,2*%
%TO.N,VBUS*%
X66310000Y-72190000D03*
%TD*%
D31*
%TO.P,U5,1,GPIO1/D0/A0_1*%
%TO.N,unconnected-(U5-GPIO1{slash}D0{slash}A0-Pad1)*%
X92639750Y-55852015D03*
D32*
%TO.P,U5,2,GPIO2/DA/A1_2*%
%TO.N,unconnected-(U5-GPIO2{slash}DA{slash}A1-Pad2)*%
X92639750Y-58392015D03*
%TO.P,U5,3,GPIO3/D2/A2_3*%
%TO.N,unconnected-(U5-GPIO3{slash}D2{slash}A2-Pad3)*%
X92639750Y-60932015D03*
%TO.P,U5,4,GPIO4/D3/A3_4*%
%TO.N,unconnected-(U5-GPIO4{slash}D3{slash}A3-Pad4)*%
X92639750Y-63472015D03*
%TO.P,U5,5,GPIO5/D4/I2C_SDA_5*%
%TO.N,unconnected-(U5-GPIO5{slash}D4{slash}I2C_SDA-Pad5)*%
X92639750Y-66012015D03*
%TO.P,U5,6,GPIO9/D5/I2C_SCL_6*%
%TO.N,unconnected-(U5-GPIO9{slash}D5{slash}I2C_SCL-Pad6)*%
X92639750Y-68552015D03*
%TO.P,U5,7,U0TXD/D6/TX_7*%
%TO.N,unconnected-(U5-U0TXD{slash}D6{slash}TX-Pad7)*%
X92639750Y-71092015D03*
%TO.P,U5,8,U0RXD/D7/RX_8*%
%TO.N,Pairing-Mode*%
X77389750Y-71092015D03*
%TO.P,U5,9,GPIO7/D8/A8/SCK_9*%
%TO.N,BCLK*%
X77389750Y-68552015D03*
%TO.P,U5,10,GPIO8/D9/A9/MISO_10*%
%TO.N,LRCK*%
X77389750Y-66012015D03*
%TO.P,U5,11,GPIO9/D10/A10/MOSI_11*%
%TO.N,DIN*%
X77389750Y-63472015D03*
%TO.P,U5,12,VCC_3V3_12*%
%TO.N,Diode Out*%
X77389750Y-60932015D03*
%TO.P,U5,13,GND_13*%
%TO.N,GND*%
X77389750Y-58392015D03*
%TO.P,U5,14,VBUS_14*%
%TO.N,unconnected-(U5-VBUS-Pad14)*%
X77389750Y-55852015D03*
%TD*%
D33*
%TO.N,Battery-Rail Out*%
X82370000Y-79710000D03*
%TO.N,GND*%
X82760000Y-75320000D03*
X92220000Y-79990000D03*
X72110000Y-75492500D03*
%TO.N,DIN*%
X80270000Y-67530000D03*
%TO.N,3.3V*%
X88180000Y-69600000D03*
X64020000Y-59260000D03*
%TD*%
%TO.N,Battery-Rail Out*%
D34*
X81650000Y-79710000D02*
X72310000Y-70370000D01*
X72310000Y-70370000D02*
X71325000Y-70370000D01*
X71265000Y-72385000D02*
X70350000Y-73300000D01*
X71265000Y-70430000D02*
X71265000Y-72385000D01*
X82370000Y-79710000D02*
X81650000Y-79710000D01*
X71325000Y-70370000D02*
X71265000Y-70430000D01*
%TO.N,GND*%
X87570000Y-65865000D02*
X88615000Y-66910000D01*
X82340000Y-67290000D02*
X82590000Y-67040000D01*
X83000000Y-73140000D02*
X82850000Y-73290000D01*
X70940000Y-74500000D02*
X71932500Y-75492500D01*
X70350000Y-74500000D02*
X70940000Y-74500000D01*
X59720000Y-63140000D02*
X59680000Y-63180000D01*
X69400000Y-74100000D02*
X68450000Y-74100000D01*
X69800000Y-74500000D02*
X69400000Y-74100000D01*
X58090000Y-55070000D02*
X58090000Y-60190000D01*
X88615000Y-66910000D02*
X88615000Y-68135000D01*
X63400000Y-68720000D02*
X63500000Y-68820000D01*
X77389750Y-58429750D02*
X82290000Y-63330000D01*
X82590000Y-67040000D02*
X82590000Y-65790000D01*
X64670000Y-77500000D02*
X64350000Y-77820000D01*
X77389750Y-58392015D02*
X77389750Y-58429750D01*
X64915000Y-75405000D02*
X64670000Y-75650000D01*
X62147500Y-65760000D02*
X62147500Y-65647500D01*
X64670000Y-75650000D02*
X64670000Y-77500000D01*
X63500000Y-74820000D02*
X63840000Y-74820000D01*
X70350000Y-74500000D02*
X69800000Y-74500000D01*
X58090000Y-60190000D02*
X59720000Y-61820000D01*
X66290000Y-78092500D02*
X69510000Y-78092500D01*
X82850000Y-75230000D02*
X82760000Y-75320000D01*
X81090000Y-66040000D02*
X82340000Y-66040000D01*
X59680000Y-63180000D02*
X59652500Y-63207500D01*
X88615000Y-68135000D02*
X90080000Y-69600000D01*
X87570000Y-64260000D02*
X87570000Y-65865000D01*
X59652500Y-65180000D02*
X60232500Y-65760000D01*
X64915000Y-74420000D02*
X64915000Y-75405000D01*
X85390000Y-73140000D02*
X83000000Y-73140000D01*
X61330000Y-67900000D02*
X62150000Y-68720000D01*
X82840000Y-67290000D02*
X82590000Y-67040000D01*
X69510000Y-78092500D02*
X72110000Y-75492500D01*
X82290000Y-64240000D02*
X82340000Y-64290000D01*
X69430000Y-74070000D02*
X69400000Y-74100000D01*
X59720000Y-61820000D02*
X59720000Y-63140000D01*
X62147500Y-65647500D02*
X59680000Y-63180000D01*
X82340000Y-65540000D02*
X82590000Y-65790000D01*
X90080000Y-69600000D02*
X90080000Y-74850000D01*
X62150000Y-68720000D02*
X63400000Y-68720000D01*
X63840000Y-74820000D02*
X64670000Y-75650000D01*
X66290000Y-78092500D02*
X65262500Y-78092500D01*
X92210000Y-79980000D02*
X92220000Y-79990000D01*
X65262500Y-78092500D02*
X64670000Y-77500000D01*
X59652500Y-63207500D02*
X59652500Y-65180000D01*
X92210000Y-76980000D02*
X92210000Y-79980000D01*
X63400000Y-74920000D02*
X63500000Y-74820000D01*
X71932500Y-75492500D02*
X72110000Y-75492500D01*
X90080000Y-74850000D02*
X92210000Y-76980000D01*
X64350000Y-77820000D02*
X62862500Y-77820000D01*
X82850000Y-73290000D02*
X82850000Y-75230000D01*
X82290000Y-63330000D02*
X82290000Y-64240000D01*
X82840000Y-69130000D02*
X81380000Y-70590000D01*
X61330000Y-65760000D02*
X62147500Y-65760000D01*
X81380000Y-70590000D02*
X81380000Y-71820000D01*
X81380000Y-71820000D02*
X82850000Y-73290000D01*
X60232500Y-65760000D02*
X61330000Y-65760000D01*
X82340000Y-64290000D02*
X82340000Y-65540000D01*
X62150000Y-74920000D02*
X63400000Y-74920000D01*
X82840000Y-67290000D02*
X82840000Y-69130000D01*
X61330000Y-65760000D02*
X61330000Y-67900000D01*
X82340000Y-66040000D02*
X82590000Y-65790000D01*
%TO.N,Net-(U3-PRETERM)*%
X68450000Y-74500000D02*
X67890000Y-74500000D01*
X67710000Y-74680000D02*
X67710000Y-75700000D01*
X67710000Y-75700000D02*
X67142500Y-76267500D01*
X67142500Y-76267500D02*
X66290000Y-76267500D01*
X67890000Y-74500000D02*
X67710000Y-74680000D01*
%TO.N,Pairing-Mode*%
X74790000Y-68492265D02*
X77389750Y-71092015D01*
X63480000Y-62720000D02*
X74790000Y-62720000D01*
X61080000Y-55030000D02*
X61080000Y-60320000D01*
X61080000Y-60320000D02*
X63480000Y-62720000D01*
X74790000Y-62720000D02*
X74790000Y-68492265D01*
%TO.N,BCLK*%
X81090000Y-66540000D02*
X79401765Y-66540000D01*
X79401765Y-66540000D02*
X77389750Y-68552015D01*
%TO.N,LRCK*%
X80970000Y-65660000D02*
X77741765Y-65660000D01*
X77741765Y-65660000D02*
X77389750Y-66012015D01*
X81090000Y-65540000D02*
X80970000Y-65660000D01*
%TO.N,DIN*%
X81840000Y-67290000D02*
X81600000Y-67530000D01*
X81600000Y-67530000D02*
X80270000Y-67530000D01*
%TO.N,Diode Out*%
X66295000Y-60210000D02*
X67017015Y-60932015D01*
X67017015Y-60932015D02*
X77389750Y-60932015D01*
%TO.N,VBUS*%
X62745000Y-70585000D02*
X62745000Y-73225000D01*
X68440000Y-73290000D02*
X68450000Y-73300000D01*
X62835000Y-70495000D02*
X63010000Y-70320000D01*
X67420000Y-73300000D02*
X68450000Y-73300000D01*
X62860000Y-73320000D02*
X63500000Y-73320000D01*
X62760000Y-70570000D02*
X62835000Y-70495000D01*
X63500000Y-73320000D02*
X65180000Y-73320000D01*
X62835000Y-70495000D02*
X62745000Y-70585000D01*
X62745000Y-73225000D02*
X62850000Y-73330000D01*
X62150000Y-70570000D02*
X62760000Y-70570000D01*
X62150000Y-73070000D02*
X62590000Y-73070000D01*
X65180000Y-73320000D02*
X66310000Y-72190000D01*
X66310000Y-72190000D02*
X67420000Y-73300000D01*
X62590000Y-73070000D02*
X62745000Y-73225000D01*
X63010000Y-70320000D02*
X63500000Y-70320000D01*
X62850000Y-73330000D02*
X62860000Y-73320000D01*
%TO.N,Switch_OUT*%
X84890000Y-65040000D02*
X85670000Y-64260000D01*
X85450000Y-74150000D02*
X85390000Y-74090000D01*
X84090000Y-65540000D02*
X84090000Y-65040000D01*
X85665000Y-64265000D02*
X85670000Y-64260000D01*
X84590000Y-71390000D02*
X85390000Y-72190000D01*
X85665000Y-71915000D02*
X85665000Y-66910000D01*
X82850000Y-71390000D02*
X84590000Y-71390000D01*
X85390000Y-72190000D02*
X86410000Y-72190000D01*
X86420000Y-74090000D02*
X85390000Y-74090000D01*
X86410000Y-72190000D02*
X86650000Y-72430000D01*
X84090000Y-65040000D02*
X84890000Y-65040000D01*
X85450000Y-79710000D02*
X85450000Y-74150000D01*
X85665000Y-66910000D02*
X85665000Y-64265000D01*
X86650000Y-72430000D02*
X86650000Y-73860000D01*
X85390000Y-72190000D02*
X85665000Y-71915000D01*
X86650000Y-73860000D02*
X86420000Y-74090000D01*
%TO.N,Net-(U3-ISET)*%
X68450000Y-73700000D02*
X67460000Y-73700000D01*
X67460000Y-73700000D02*
X66740000Y-74420000D01*
%TO.N,Net-(U3-TS)*%
X70350000Y-73700000D02*
X72077500Y-73700000D01*
X72077500Y-73700000D02*
X72110000Y-73667500D01*
%TO.N,Net-(USB-C-Port1-CC2)*%
X62130000Y-72590000D02*
X62150000Y-72570000D01*
X61300000Y-72590000D02*
X62130000Y-72590000D01*
X61300000Y-77557500D02*
X61300000Y-72590000D01*
X61037500Y-77820000D02*
X61300000Y-77557500D01*
%TO.N,3.3V*%
X63710000Y-58950000D02*
X64020000Y-59260000D01*
X87665000Y-70792500D02*
X86472500Y-69600000D01*
X87665000Y-72190000D02*
X87665000Y-70792500D01*
X87665000Y-70115000D02*
X88180000Y-69600000D01*
X87665000Y-72190000D02*
X87665000Y-70115000D01*
X63710000Y-55020000D02*
X63710000Y-58950000D01*
%TO.N,GROUND*%
X57827500Y-67352500D02*
X57680000Y-67500000D01*
X57827500Y-63227500D02*
X57827500Y-65180000D01*
D35*
X57970000Y-67510000D02*
X57970000Y-67380000D01*
D34*
X57780000Y-63180000D02*
X57827500Y-63227500D01*
X57827500Y-65180000D02*
X57827500Y-67352500D01*
%TO.N,Net-(USB-C-Port1-CC1)*%
X64140000Y-70820000D02*
X63500000Y-70820000D01*
X63972500Y-65760000D02*
X64620000Y-66407500D01*
X64620000Y-70340000D02*
X64140000Y-70820000D01*
X64620000Y-66407500D02*
X64620000Y-70340000D01*
%TO.N,Net-(U4-~{SD_MODE})*%
X84647500Y-68597500D02*
X83340000Y-67290000D01*
X84647500Y-69600000D02*
X84647500Y-68597500D01*
%TO.N,OUT-N*%
X78090000Y-57130000D02*
X82780000Y-61820000D01*
X70420000Y-54790000D02*
X70420000Y-57050000D01*
X74730000Y-58170000D02*
X75770000Y-57130000D01*
X70420000Y-57050000D02*
X71540000Y-58170000D01*
X71540000Y-58170000D02*
X74730000Y-58170000D01*
X82780000Y-61820000D02*
X82780000Y-64230000D01*
X75770000Y-57130000D02*
X78090000Y-57130000D01*
X82780000Y-64230000D02*
X82840000Y-64290000D01*
%TO.N,OUT-P*%
X73240000Y-54790000D02*
X73560000Y-54470000D01*
X83340000Y-59370000D02*
X83340000Y-64290000D01*
X78440000Y-54470000D02*
X83340000Y-59370000D01*
X73560000Y-54470000D02*
X78440000Y-54470000D01*
%TD*%
%TA.AperFunction,Conductor*%
%TO.N,GROUND*%
G36*
X56575703Y-56735351D02*
G01*
X56613477Y-56794129D01*
X56613675Y-56794814D01*
X56630163Y-56852434D01*
X56656089Y-56943045D01*
X56656090Y-56943048D01*
X56656091Y-56943049D01*
X56750302Y-57123407D01*
X56755432Y-57129698D01*
X56878890Y-57281109D01*
X56959251Y-57346634D01*
X57036593Y-57409698D01*
X57216951Y-57503909D01*
X57216953Y-57503909D01*
X57216954Y-57503910D01*
X57247311Y-57512596D01*
X57399612Y-57556174D01*
X57458649Y-57593541D01*
X57488113Y-57656895D01*
X57489500Y-57675390D01*
X57489500Y-60103330D01*
X57489499Y-60103348D01*
X57489499Y-60269054D01*
X57489498Y-60269054D01*
X57530424Y-60421789D01*
X57532677Y-60425691D01*
X57532681Y-60425696D01*
X57609477Y-60558712D01*
X57609481Y-60558717D01*
X57728349Y-60677585D01*
X57728355Y-60677590D01*
X58975460Y-61924695D01*
X59008945Y-61986018D01*
X59003961Y-62055710D01*
X58964692Y-62109640D01*
X58961346Y-62112285D01*
X58837289Y-62236342D01*
X58745187Y-62385663D01*
X58745186Y-62385666D01*
X58690001Y-62552203D01*
X58690001Y-62552204D01*
X58690000Y-62552204D01*
X58679500Y-62654983D01*
X58679500Y-63705001D01*
X58679501Y-63705019D01*
X58690000Y-63807796D01*
X58690001Y-63807799D01*
X58745185Y-63974331D01*
X58745189Y-63974340D01*
X58823084Y-64100628D01*
X58841524Y-64168020D01*
X58820601Y-64234684D01*
X58805230Y-64253402D01*
X58797288Y-64261344D01*
X58705187Y-64410663D01*
X58705185Y-64410668D01*
X58703915Y-64414501D01*
X58650001Y-64577203D01*
X58650001Y-64577204D01*
X58650000Y-64577204D01*
X58639500Y-64679983D01*
X58639500Y-65680001D01*
X58639501Y-65680019D01*
X58650000Y-65782796D01*
X58650001Y-65782799D01*
X58683891Y-65885071D01*
X58705186Y-65949334D01*
X58797288Y-66098656D01*
X58921344Y-66222712D01*
X59070666Y-66314814D01*
X59237203Y-66369999D01*
X59339991Y-66380500D01*
X59965008Y-66380499D01*
X59965016Y-66380498D01*
X59965019Y-66380498D01*
X59994567Y-66377479D01*
X60067797Y-66369999D01*
X60086696Y-66363736D01*
X60127660Y-66357456D01*
X60142984Y-66357698D01*
X60153443Y-66360501D01*
X60311557Y-66360501D01*
X60311561Y-66360500D01*
X60605500Y-66360500D01*
X60672539Y-66380185D01*
X60718294Y-66432989D01*
X60729500Y-66484500D01*
X60729500Y-67813330D01*
X60729499Y-67813348D01*
X60729499Y-67979054D01*
X60729498Y-67979054D01*
X60770423Y-68131787D01*
X60770424Y-68131788D01*
X60792197Y-68169500D01*
X60792198Y-68169501D01*
X60849475Y-68268709D01*
X60849481Y-68268717D01*
X60968349Y-68387585D01*
X60968355Y-68387590D01*
X61263181Y-68682416D01*
X61296666Y-68743739D01*
X61299500Y-68770097D01*
X61299500Y-69267869D01*
X61299501Y-69267878D01*
X61303679Y-69306745D01*
X61303679Y-69333250D01*
X61299500Y-69372122D01*
X61299500Y-69767869D01*
X61299501Y-69767878D01*
X61303679Y-69806745D01*
X61303679Y-69833250D01*
X61299500Y-69872122D01*
X61299500Y-70267869D01*
X61299501Y-70267878D01*
X61303679Y-70306745D01*
X61303679Y-70333250D01*
X61299500Y-70372122D01*
X61299500Y-70767869D01*
X61299501Y-70767878D01*
X61303679Y-70806745D01*
X61303679Y-70833250D01*
X61299500Y-70872122D01*
X61299500Y-71267869D01*
X61299501Y-71267878D01*
X61303679Y-71306745D01*
X61303679Y-71333250D01*
X61299500Y-71372122D01*
X61299500Y-71372128D01*
X61299501Y-71767864D01*
X61299501Y-71767878D01*
X61303679Y-71806745D01*
X61303871Y-71831322D01*
X61303779Y-71832318D01*
X61299500Y-71872127D01*
X61299500Y-71878979D01*
X61298982Y-71884627D01*
X61288122Y-71912048D01*
X61279815Y-71940341D01*
X61275405Y-71944162D01*
X61273256Y-71949589D01*
X61249293Y-71966788D01*
X61227011Y-71986096D01*
X61217758Y-71989422D01*
X61216494Y-71990330D01*
X61215024Y-71990405D01*
X61207595Y-71993076D01*
X61198465Y-71995523D01*
X61068214Y-72030423D01*
X61068209Y-72030426D01*
X60931290Y-72109475D01*
X60931282Y-72109481D01*
X60819481Y-72221282D01*
X60819475Y-72221290D01*
X60740426Y-72358209D01*
X60740423Y-72358216D01*
X60699500Y-72510943D01*
X60699500Y-76514845D01*
X60679815Y-76581884D01*
X60627011Y-76627639D01*
X60614505Y-76632551D01*
X60455666Y-76685186D01*
X60455663Y-76685187D01*
X60306342Y-76777289D01*
X60182289Y-76901342D01*
X60090187Y-77050663D01*
X60090185Y-77050668D01*
X60072311Y-77104609D01*
X60035001Y-77217203D01*
X60035001Y-77217204D01*
X60035000Y-77217204D01*
X60024500Y-77319983D01*
X60024500Y-77319996D01*
X60024501Y-78323165D01*
X60023675Y-78323165D01*
X60008222Y-78387720D01*
X59957801Y-78436089D01*
X59889235Y-78449520D01*
X59880343Y-78448052D01*
X59880305Y-78448293D01*
X59672679Y-78415408D01*
X59672674Y-78415408D01*
X59467326Y-78415408D01*
X59467321Y-78415408D01*
X59264510Y-78447530D01*
X59069208Y-78510988D01*
X58886241Y-78604215D01*
X58720121Y-78724907D01*
X58720116Y-78724911D01*
X58574911Y-78870116D01*
X58574907Y-78870121D01*
X58454215Y-79036241D01*
X58360988Y-79219208D01*
X58297530Y-79414510D01*
X58265408Y-79617320D01*
X58265408Y-79822679D01*
X58297530Y-80025489D01*
X58297531Y-80025493D01*
X58329459Y-80123758D01*
X58360988Y-80220791D01*
X58454215Y-80403758D01*
X58574907Y-80569878D01*
X58574911Y-80569883D01*
X58720116Y-80715088D01*
X58720121Y-80715092D01*
X58865020Y-80820366D01*
X58886245Y-80835787D01*
X59069211Y-80929013D01*
X59264507Y-80992469D01*
X59340564Y-81004515D01*
X59467321Y-81024592D01*
X59467326Y-81024592D01*
X59672679Y-81024592D01*
X59785351Y-81006745D01*
X59875493Y-80992469D01*
X60070789Y-80929013D01*
X60253755Y-80835787D01*
X60419885Y-80715087D01*
X60565087Y-80569885D01*
X60685787Y-80403755D01*
X60779013Y-80220789D01*
X60842469Y-80025493D01*
X60860578Y-79911155D01*
X60874592Y-79822679D01*
X60874592Y-79617320D01*
X60851008Y-79468422D01*
X60842469Y-79414507D01*
X60817389Y-79337320D01*
X72435408Y-79337320D01*
X72435408Y-79542679D01*
X72467530Y-79745489D01*
X72467531Y-79745493D01*
X72530987Y-79940789D01*
X72596235Y-80068846D01*
X72624215Y-80123758D01*
X72744907Y-80289878D01*
X72744911Y-80289883D01*
X72890116Y-80435088D01*
X72890121Y-80435092D01*
X72979857Y-80500288D01*
X73056245Y-80555787D01*
X73239211Y-80649013D01*
X73434507Y-80712469D01*
X73510564Y-80724515D01*
X73637321Y-80744592D01*
X73637326Y-80744592D01*
X73842679Y-80744592D01*
X73955351Y-80726745D01*
X74045493Y-80712469D01*
X74240789Y-80649013D01*
X74423755Y-80555787D01*
X74589885Y-80435087D01*
X74735087Y-80289885D01*
X74855787Y-80123755D01*
X74949013Y-79940789D01*
X75012469Y-79745493D01*
X75028505Y-79644242D01*
X75044592Y-79542679D01*
X75044592Y-79337320D01*
X75012469Y-79134510D01*
X75012469Y-79134507D01*
X74949013Y-78939211D01*
X74855787Y-78756245D01*
X74805933Y-78687626D01*
X74735092Y-78590121D01*
X74735088Y-78590116D01*
X74589883Y-78444911D01*
X74589878Y-78444907D01*
X74423758Y-78324215D01*
X74423757Y-78324214D01*
X74423755Y-78324213D01*
X74240789Y-78230987D01*
X74045493Y-78167531D01*
X74045491Y-78167530D01*
X74045489Y-78167530D01*
X73842679Y-78135408D01*
X73842674Y-78135408D01*
X73637326Y-78135408D01*
X73637321Y-78135408D01*
X73434510Y-78167530D01*
X73239208Y-78230988D01*
X73056241Y-78324215D01*
X72890121Y-78444907D01*
X72890116Y-78444911D01*
X72744911Y-78590116D01*
X72744907Y-78590121D01*
X72624215Y-78756241D01*
X72530988Y-78939208D01*
X72530987Y-78939210D01*
X72530987Y-78939211D01*
X72528225Y-78947712D01*
X72467530Y-79134510D01*
X72435408Y-79337320D01*
X60817389Y-79337320D01*
X60779013Y-79219211D01*
X60765874Y-79193425D01*
X60763132Y-79185624D01*
X60761716Y-79158659D01*
X60756733Y-79132126D01*
X60759912Y-79124292D01*
X60759469Y-79115850D01*
X60772855Y-79092401D01*
X60783009Y-79067385D01*
X60789918Y-79062514D01*
X60794110Y-79055172D01*
X60818047Y-79042683D01*
X60840115Y-79027127D01*
X60851475Y-79025244D01*
X60856056Y-79022855D01*
X60862417Y-79023431D01*
X60880109Y-79020499D01*
X61350008Y-79020499D01*
X61350016Y-79020498D01*
X61350019Y-79020498D01*
X61406302Y-79014748D01*
X61452797Y-79009999D01*
X61619334Y-78954814D01*
X61768656Y-78862712D01*
X61862319Y-78769049D01*
X61923642Y-78735564D01*
X61993334Y-78740548D01*
X62037681Y-78769049D01*
X62131344Y-78862712D01*
X62280666Y-78954814D01*
X62447203Y-79009999D01*
X62549991Y-79020500D01*
X63175008Y-79020499D01*
X63175016Y-79020498D01*
X63175019Y-79020498D01*
X63231302Y-79014748D01*
X63277797Y-79009999D01*
X63444334Y-78954814D01*
X63593656Y-78862712D01*
X63717712Y-78738656D01*
X63809814Y-78589334D01*
X63837595Y-78505495D01*
X63877368Y-78448051D01*
X63941884Y-78421228D01*
X63955301Y-78420500D01*
X64263331Y-78420500D01*
X64263347Y-78420501D01*
X64270943Y-78420501D01*
X64429054Y-78420501D01*
X64429057Y-78420501D01*
X64581785Y-78379577D01*
X64581792Y-78379572D01*
X64589063Y-78376562D01*
X64658532Y-78369089D01*
X64721013Y-78400360D01*
X64724203Y-78403439D01*
X64893784Y-78573020D01*
X64893786Y-78573021D01*
X64893790Y-78573024D01*
X65019802Y-78645776D01*
X65030716Y-78652077D01*
X65115801Y-78674876D01*
X65175460Y-78711240D01*
X65189243Y-78729551D01*
X65247288Y-78823656D01*
X65371344Y-78947712D01*
X65520666Y-79039814D01*
X65687203Y-79094999D01*
X65789991Y-79105500D01*
X66790008Y-79105499D01*
X66790016Y-79105498D01*
X66790019Y-79105498D01*
X66848862Y-79099487D01*
X66892797Y-79094999D01*
X67059334Y-79039814D01*
X67208656Y-78947712D01*
X67332712Y-78823656D01*
X67376970Y-78751902D01*
X67428917Y-78705179D01*
X67482508Y-78693000D01*
X69423331Y-78693000D01*
X69423347Y-78693001D01*
X69430943Y-78693001D01*
X69589054Y-78693001D01*
X69589057Y-78693001D01*
X69741785Y-78652077D01*
X69791904Y-78623139D01*
X69878716Y-78573020D01*
X69990520Y-78461216D01*
X69990520Y-78461214D01*
X70000728Y-78451007D01*
X70000730Y-78451004D01*
X71909916Y-76541818D01*
X71971239Y-76508333D01*
X71997597Y-76505499D01*
X72610002Y-76505499D01*
X72610008Y-76505499D01*
X72712797Y-76494999D01*
X72879334Y-76439814D01*
X73028656Y-76347712D01*
X73152712Y-76223656D01*
X73244814Y-76074334D01*
X73299999Y-75907797D01*
X73310500Y-75805009D01*
X73310499Y-75179992D01*
X73300948Y-75086498D01*
X73299999Y-75077203D01*
X73299998Y-75077200D01*
X73244814Y-74910666D01*
X73152712Y-74761344D01*
X73059049Y-74667681D01*
X73025564Y-74606358D01*
X73030548Y-74536666D01*
X73059049Y-74492319D01*
X73152712Y-74398656D01*
X73244814Y-74249334D01*
X73299999Y-74082797D01*
X73310500Y-73980009D01*
X73310499Y-73354992D01*
X73308789Y-73338256D01*
X73299999Y-73252203D01*
X73299998Y-73252200D01*
X73292642Y-73230001D01*
X73244814Y-73085666D01*
X73152712Y-72936344D01*
X73028656Y-72812288D01*
X72914490Y-72741870D01*
X72879336Y-72720187D01*
X72879331Y-72720185D01*
X72868711Y-72716666D01*
X72712797Y-72665001D01*
X72712795Y-72665000D01*
X72610016Y-72654500D01*
X72610009Y-72654500D01*
X71976071Y-72654500D01*
X71952092Y-72647459D01*
X71927277Y-72644496D01*
X71919146Y-72637784D01*
X71909032Y-72634815D01*
X71892668Y-72615930D01*
X71873392Y-72600020D01*
X71870179Y-72589977D01*
X71863277Y-72582011D01*
X71859720Y-72557275D01*
X71852107Y-72533472D01*
X71854008Y-72517551D01*
X71853333Y-72512853D01*
X71856291Y-72498426D01*
X71856761Y-72496669D01*
X71858545Y-72490012D01*
X71858546Y-72490012D01*
X71858547Y-72490006D01*
X71865500Y-72464058D01*
X71865500Y-72305943D01*
X71865500Y-71861057D01*
X71885185Y-71794018D01*
X71924401Y-71755520D01*
X72058656Y-71672712D01*
X72182712Y-71548656D01*
X72274617Y-71399652D01*
X72326562Y-71352930D01*
X72395525Y-71341707D01*
X72459607Y-71369550D01*
X72467834Y-71377069D01*
X76654061Y-75563297D01*
X80833181Y-79742417D01*
X80866666Y-79803740D01*
X80869500Y-79830098D01*
X80869500Y-81268028D01*
X80869501Y-81268034D01*
X80880113Y-81387415D01*
X80936089Y-81583045D01*
X80936090Y-81583048D01*
X80936091Y-81583049D01*
X81030302Y-81763407D01*
X81030304Y-81763409D01*
X81158890Y-81921109D01*
X81230377Y-81979398D01*
X81269894Y-82037019D01*
X81271986Y-82106857D01*
X81235988Y-82166740D01*
X81173330Y-82197654D01*
X81152016Y-82199500D01*
X56494500Y-82199500D01*
X56427461Y-82179815D01*
X56381706Y-82127011D01*
X56370500Y-82075500D01*
X56370500Y-56829064D01*
X56390185Y-56762025D01*
X56442989Y-56716270D01*
X56512147Y-56706326D01*
X56575703Y-56735351D01*
G37*
%TD.AperFunction*%
%TA.AperFunction,Conductor*%
G36*
X63647118Y-75495847D02*
G01*
X63697043Y-75526278D01*
X64033181Y-75862416D01*
X64066666Y-75923739D01*
X64069500Y-75950097D01*
X64069500Y-77065922D01*
X64049815Y-77132961D01*
X63997011Y-77178716D01*
X63927853Y-77188660D01*
X63864297Y-77159635D01*
X63827794Y-77104927D01*
X63823616Y-77092319D01*
X63809814Y-77050666D01*
X63717712Y-76901344D01*
X63593656Y-76777288D01*
X63444334Y-76685186D01*
X63277797Y-76630001D01*
X63277795Y-76630000D01*
X63175010Y-76619500D01*
X62549998Y-76619500D01*
X62549980Y-76619501D01*
X62447203Y-76630000D01*
X62447200Y-76630001D01*
X62280668Y-76685185D01*
X62280663Y-76685187D01*
X62131342Y-76777289D01*
X62112181Y-76796451D01*
X62050858Y-76829936D01*
X61981166Y-76824952D01*
X61925233Y-76783080D01*
X61900816Y-76717616D01*
X61900500Y-76708770D01*
X61900500Y-76044499D01*
X61920185Y-75977460D01*
X61972989Y-75931705D01*
X62024500Y-75920499D01*
X62547871Y-75920499D01*
X62547872Y-75920499D01*
X62607483Y-75914091D01*
X62742331Y-75863796D01*
X62857546Y-75777546D01*
X62943796Y-75662331D01*
X62966609Y-75601167D01*
X62979878Y-75583440D01*
X62989078Y-75563297D01*
X63000408Y-75556015D01*
X63008480Y-75545233D01*
X63029228Y-75537494D01*
X63047856Y-75525523D01*
X63069772Y-75522371D01*
X63073944Y-75520816D01*
X63082791Y-75520500D01*
X63313331Y-75520500D01*
X63313347Y-75520501D01*
X63320943Y-75520501D01*
X63479054Y-75520501D01*
X63479057Y-75520501D01*
X63577271Y-75494184D01*
X63647118Y-75495847D01*
G37*
%TD.AperFunction*%
%TA.AperFunction,Conductor*%
G36*
X63103334Y-66680548D02*
G01*
X63147681Y-66709049D01*
X63241344Y-66802712D01*
X63390666Y-66894814D01*
X63557203Y-66949999D01*
X63659991Y-66960500D01*
X63895500Y-66960499D01*
X63962539Y-66980183D01*
X64008294Y-67032987D01*
X64019500Y-67084499D01*
X64019500Y-68045500D01*
X64016949Y-68054185D01*
X64018238Y-68063147D01*
X64007259Y-68087187D01*
X63999815Y-68112539D01*
X63992974Y-68118466D01*
X63989213Y-68126703D01*
X63966978Y-68140992D01*
X63947011Y-68158294D01*
X63936496Y-68160581D01*
X63930435Y-68164477D01*
X63895500Y-68169500D01*
X63678364Y-68169500D01*
X63639820Y-68161834D01*
X63639635Y-68162527D01*
X63631786Y-68160424D01*
X63631785Y-68160423D01*
X63479057Y-68119499D01*
X63320943Y-68119499D01*
X63313347Y-68119499D01*
X63313331Y-68119500D01*
X63082791Y-68119500D01*
X63015752Y-68099815D01*
X62969997Y-68047011D01*
X62966609Y-68038833D01*
X62943797Y-67977671D01*
X62943793Y-67977664D01*
X62857547Y-67862455D01*
X62857544Y-67862452D01*
X62742335Y-67776206D01*
X62742328Y-67776202D01*
X62607482Y-67725908D01*
X62607483Y-67725908D01*
X62547883Y-67719501D01*
X62547881Y-67719500D01*
X62547873Y-67719500D01*
X62547865Y-67719500D01*
X62054500Y-67719500D01*
X61987461Y-67699815D01*
X61941706Y-67647011D01*
X61930500Y-67595500D01*
X61930500Y-67084499D01*
X61950185Y-67017460D01*
X62002989Y-66971705D01*
X62054500Y-66960499D01*
X62460002Y-66960499D01*
X62460008Y-66960499D01*
X62562797Y-66949999D01*
X62729334Y-66894814D01*
X62878656Y-66802712D01*
X62972319Y-66709049D01*
X63033642Y-66675564D01*
X63103334Y-66680548D01*
G37*
%TD.AperFunction*%
%TD*%
%TA.AperFunction,Conductor*%
%TO.N,GND*%
G36*
X94122606Y-52585523D02*
G01*
X94137604Y-52589927D01*
X94152594Y-52599557D01*
X94169675Y-52604567D01*
X94196355Y-52627672D01*
X94197542Y-52629041D01*
X94225018Y-52683902D01*
X94226663Y-52691460D01*
X94229500Y-52717831D01*
X94229500Y-54852342D01*
X94224477Y-54887278D01*
X94222756Y-54893139D01*
X94213116Y-54908138D01*
X94208093Y-54925245D01*
X94194619Y-54936918D01*
X94184981Y-54951917D01*
X94168761Y-54959323D01*
X94155287Y-54970999D01*
X94137641Y-54973535D01*
X94121425Y-54980941D01*
X94103776Y-54978403D01*
X94086129Y-54980940D01*
X94069913Y-54973534D01*
X94052267Y-54970997D01*
X94038792Y-54959320D01*
X94022574Y-54951914D01*
X93999465Y-54925244D01*
X93999463Y-54925242D01*
X93999462Y-54925240D01*
X93996736Y-54920998D01*
X93984871Y-54897294D01*
X93983841Y-54894532D01*
X93933547Y-54759686D01*
X93933543Y-54759679D01*
X93847297Y-54644470D01*
X93847294Y-54644467D01*
X93847292Y-54644465D01*
X93789366Y-54601101D01*
X93732085Y-54558221D01*
X93732082Y-54558219D01*
X93732080Y-54558218D01*
X93732078Y-54558217D01*
X93597232Y-54507923D01*
X93597233Y-54507923D01*
X93537633Y-54501516D01*
X93537631Y-54501515D01*
X93537623Y-54501515D01*
X93537614Y-54501515D01*
X93536591Y-54501515D01*
X91741873Y-54501515D01*
X91739942Y-54501674D01*
X91738295Y-54501900D01*
X91682266Y-54507923D01*
X91547416Y-54558219D01*
X91547415Y-54558220D01*
X91432206Y-54644465D01*
X91432200Y-54644471D01*
X91345955Y-54759680D01*
X91345953Y-54759683D01*
X91295657Y-54894531D01*
X91289251Y-54954131D01*
X91289250Y-54954154D01*
X91289250Y-56749891D01*
X91289409Y-56751821D01*
X91289635Y-56753469D01*
X91295657Y-56809497D01*
X91318014Y-56869437D01*
X91345952Y-56944343D01*
X91345956Y-56944350D01*
X91381088Y-56991280D01*
X91432200Y-57059557D01*
X91432202Y-57059559D01*
X91432205Y-57059562D01*
X91547414Y-57145808D01*
X91547421Y-57145812D01*
X91662126Y-57188594D01*
X91690988Y-57204353D01*
X91693100Y-57205506D01*
X91704211Y-57213823D01*
X91746084Y-57269755D01*
X91751071Y-57339447D01*
X91751068Y-57339460D01*
X91750092Y-57343945D01*
X91716610Y-57405259D01*
X91609636Y-57512233D01*
X91532000Y-57619092D01*
X91491098Y-57675390D01*
X91484699Y-57684197D01*
X91388195Y-57873597D01*
X91322502Y-58075778D01*
X91299545Y-58220726D01*
X91299545Y-58220727D01*
X91289250Y-58285724D01*
X91289250Y-58498303D01*
X91290826Y-58508255D01*
X91290827Y-58508261D01*
X91322464Y-58708016D01*
X91322504Y-58708260D01*
X91381385Y-58889476D01*
X91388192Y-58910426D01*
X91456410Y-59044310D01*
X91484701Y-59099835D01*
X91609640Y-59271801D01*
X91759963Y-59422124D01*
X91931932Y-59547065D01*
X91931940Y-59547069D01*
X91932443Y-59547378D01*
X91933924Y-59548511D01*
X91935872Y-59549927D01*
X91935836Y-59549975D01*
X91952784Y-59562949D01*
X91963065Y-59572658D01*
X91998291Y-59632998D01*
X91995302Y-59702804D01*
X91959133Y-59756522D01*
X91951977Y-59762723D01*
X91935564Y-59774738D01*
X91931940Y-59776958D01*
X91759960Y-59901907D01*
X91609642Y-60052225D01*
X91571262Y-60105052D01*
X91487357Y-60220539D01*
X91484699Y-60224197D01*
X91388195Y-60413595D01*
X91322502Y-60615774D01*
X91289250Y-60825722D01*
X91289250Y-61038306D01*
X91322409Y-61247666D01*
X91322503Y-61248255D01*
X91375892Y-61412571D01*
X91388192Y-61450425D01*
X91388193Y-61450427D01*
X91470395Y-61611759D01*
X91484701Y-61639835D01*
X91609640Y-61811801D01*
X91759963Y-61962124D01*
X91931932Y-62087065D01*
X91931940Y-62087069D01*
X91932443Y-62087378D01*
X91933924Y-62088511D01*
X91935872Y-62089927D01*
X91935836Y-62089975D01*
X91952784Y-62102949D01*
X91963065Y-62112658D01*
X91998291Y-62172998D01*
X91995302Y-62242804D01*
X91959133Y-62296522D01*
X91951977Y-62302723D01*
X91935564Y-62314738D01*
X91931940Y-62316958D01*
X91759960Y-62441907D01*
X91609642Y-62592225D01*
X91484699Y-62764197D01*
X91388195Y-62953595D01*
X91322502Y-63155774D01*
X91289250Y-63365722D01*
X91289250Y-63578302D01*
X91289249Y-63578304D01*
X91316075Y-63747671D01*
X91322503Y-63788254D01*
X91372498Y-63942126D01*
X91388191Y-63990421D01*
X91388193Y-63990427D01*
X91470395Y-64151759D01*
X91484701Y-64179835D01*
X91609640Y-64351801D01*
X91759963Y-64502124D01*
X91931932Y-64627065D01*
X91931935Y-64627066D01*
X91932443Y-64627378D01*
X91933924Y-64628511D01*
X91935872Y-64629927D01*
X91935836Y-64629975D01*
X91952784Y-64642949D01*
X91963065Y-64652658D01*
X91998291Y-64712998D01*
X91995302Y-64782804D01*
X91959133Y-64836522D01*
X91951977Y-64842723D01*
X91935564Y-64854738D01*
X91931940Y-64856958D01*
X91759960Y-64981907D01*
X91609642Y-65132225D01*
X91484699Y-65304197D01*
X91388195Y-65493595D01*
X91322502Y-65695774D01*
X91289250Y-65905722D01*
X91289250Y-66118306D01*
X91319217Y-66307511D01*
X91322503Y-66328252D01*
X91322506Y-66328265D01*
X91378143Y-66499498D01*
X91388192Y-66530425D01*
X91388193Y-66530427D01*
X91470395Y-66691759D01*
X91484701Y-66719835D01*
X91609640Y-66891801D01*
X91759963Y-67042124D01*
X91931932Y-67167065D01*
X91931940Y-67167069D01*
X91932443Y-67167378D01*
X91933924Y-67168511D01*
X91935872Y-67169927D01*
X91935836Y-67169975D01*
X91952784Y-67182949D01*
X91963065Y-67192658D01*
X91998291Y-67252998D01*
X91995302Y-67322804D01*
X91959133Y-67376522D01*
X91951977Y-67382723D01*
X91935564Y-67394738D01*
X91931940Y-67396958D01*
X91759960Y-67521907D01*
X91609642Y-67672225D01*
X91609640Y-67672228D01*
X91493319Y-67832333D01*
X91484699Y-67844197D01*
X91388195Y-68033595D01*
X91322502Y-68235774D01*
X91289250Y-68445722D01*
X91289250Y-68658306D01*
X91321349Y-68860976D01*
X91321350Y-68860976D01*
X91322503Y-68868255D01*
X91322505Y-68868264D01*
X91354302Y-68966123D01*
X91385602Y-69062454D01*
X91386898Y-69066441D01*
X91388193Y-69070428D01*
X91484697Y-69259828D01*
X91484701Y-69259835D01*
X91609640Y-69431801D01*
X91759963Y-69582124D01*
X91931932Y-69707065D01*
X91931940Y-69707069D01*
X91932443Y-69707378D01*
X91933924Y-69708511D01*
X91935872Y-69709927D01*
X91935836Y-69709975D01*
X91952784Y-69722949D01*
X91963065Y-69732658D01*
X91998291Y-69792998D01*
X91995302Y-69862804D01*
X91959133Y-69916522D01*
X91951977Y-69922723D01*
X91935564Y-69934738D01*
X91931940Y-69936958D01*
X91759960Y-70061907D01*
X91609642Y-70212225D01*
X91579779Y-70253329D01*
X91529873Y-70322020D01*
X91484699Y-70384197D01*
X91388195Y-70573595D01*
X91322502Y-70775774D01*
X91289250Y-70985722D01*
X91289250Y-71198306D01*
X91321088Y-71399328D01*
X91321089Y-71399328D01*
X91322503Y-71408253D01*
X91322505Y-71408263D01*
X91371470Y-71558962D01*
X91388191Y-71610421D01*
X91388193Y-71610427D01*
X91481118Y-71792804D01*
X91484701Y-71799835D01*
X91609640Y-71971801D01*
X91609642Y-71971803D01*
X91759966Y-72122127D01*
X91931919Y-72247057D01*
X91931927Y-72247062D01*
X91931929Y-72247063D01*
X91931931Y-72247064D01*
X91931932Y-72247065D01*
X91931950Y-72247075D01*
X91932192Y-72247197D01*
X92121338Y-72343572D01*
X92323507Y-72409261D01*
X92533463Y-72442515D01*
X92533464Y-72442515D01*
X92746036Y-72442515D01*
X92746037Y-72442515D01*
X92955993Y-72409261D01*
X93158162Y-72343572D01*
X93347566Y-72247066D01*
X93450084Y-72172583D01*
X93519536Y-72122124D01*
X93519537Y-72122121D01*
X93519540Y-72122120D01*
X93519542Y-72122119D01*
X93519543Y-72122117D01*
X93519594Y-72122081D01*
X93520355Y-72121305D01*
X93669854Y-71971807D01*
X93669856Y-71971803D01*
X93669859Y-71971801D01*
X93729296Y-71889992D01*
X93789124Y-71807646D01*
X93794797Y-71799836D01*
X93794798Y-71799833D01*
X93794801Y-71799831D01*
X93891307Y-71610427D01*
X93956996Y-71408258D01*
X93980238Y-71261511D01*
X93981688Y-71257245D01*
X93981505Y-71254734D01*
X93990658Y-71227806D01*
X93993280Y-71222275D01*
X93993757Y-71221740D01*
X93993789Y-71221647D01*
X93996578Y-71216521D01*
X94013949Y-71199097D01*
X94039779Y-71170132D01*
X94043997Y-71168958D01*
X94045909Y-71167041D01*
X94069344Y-71161906D01*
X94107092Y-71151404D01*
X94111316Y-71152710D01*
X94114160Y-71152087D01*
X94138340Y-71161064D01*
X94173844Y-71172040D01*
X94176546Y-71175248D01*
X94179661Y-71176405D01*
X94197242Y-71199818D01*
X94218815Y-71225429D01*
X94218992Y-71225830D01*
X94219854Y-71229930D01*
X94221616Y-71232276D01*
X94222290Y-71241510D01*
X94229500Y-71275784D01*
X94229500Y-82057670D01*
X94224475Y-82092614D01*
X94220070Y-82107612D01*
X94182327Y-82166355D01*
X94180958Y-82167542D01*
X94126097Y-82195018D01*
X94118539Y-82196663D01*
X94092168Y-82199500D01*
X86685814Y-82199500D01*
X86650879Y-82194477D01*
X86640025Y-82191290D01*
X86581247Y-82153516D01*
X86552222Y-82089960D01*
X86552798Y-82085953D01*
X86562156Y-82020824D01*
X86563982Y-82016826D01*
X86598415Y-81972228D01*
X86661109Y-81921109D01*
X86789698Y-81763407D01*
X86883909Y-81583049D01*
X86939886Y-81387418D01*
X86950500Y-81268037D01*
X86950499Y-78151964D01*
X86939886Y-78032582D01*
X86884949Y-77840585D01*
X86883910Y-77836954D01*
X86883909Y-77836953D01*
X86883909Y-77836951D01*
X86789698Y-77656593D01*
X86737684Y-77592803D01*
X86661109Y-77498890D01*
X86661107Y-77498888D01*
X86661106Y-77498887D01*
X86567807Y-77422813D01*
X86555704Y-77405167D01*
X86503404Y-77370300D01*
X86323053Y-77276093D01*
X86323052Y-77276092D01*
X86323049Y-77276091D01*
X86323046Y-77276090D01*
X86323043Y-77276089D01*
X86323033Y-77276086D01*
X86157534Y-77228729D01*
X86157532Y-77228730D01*
X86125327Y-77214291D01*
X86112118Y-77205931D01*
X86065998Y-77153446D01*
X86065996Y-77153442D01*
X86062064Y-77144987D01*
X86050500Y-77092698D01*
X86050500Y-74985329D01*
X86055523Y-74950393D01*
X86059703Y-74936160D01*
X86059927Y-74935394D01*
X86069564Y-74920398D01*
X86074585Y-74903297D01*
X86097697Y-74876622D01*
X86104833Y-74870438D01*
X86151448Y-74845070D01*
X86162898Y-74841744D01*
X86304365Y-74758081D01*
X86323018Y-74739428D01*
X86345434Y-74721673D01*
X86348296Y-74719901D01*
X86355579Y-74715924D01*
X86357884Y-74713965D01*
X86365798Y-74709067D01*
X86391154Y-74702085D01*
X86415237Y-74691515D01*
X86431065Y-74690501D01*
X86499055Y-74690501D01*
X86499057Y-74690501D01*
X86562973Y-74673373D01*
X86570880Y-74672832D01*
X86575256Y-74670740D01*
X86603007Y-74670633D01*
X86610545Y-74670118D01*
X86612202Y-74670326D01*
X86617620Y-74671160D01*
X86619106Y-74671195D01*
X86623935Y-74671803D01*
X86633439Y-74675942D01*
X86672986Y-74688949D01*
X86682130Y-74694522D01*
X86705279Y-74712726D01*
X86750628Y-74758076D01*
X86750631Y-74758079D01*
X86868094Y-74827546D01*
X86892102Y-74841744D01*
X86901585Y-74844499D01*
X87039135Y-74884462D01*
X87040328Y-74884929D01*
X87049184Y-74887390D01*
X87049905Y-74887595D01*
X87049924Y-74887596D01*
X87049926Y-74887597D01*
X87049929Y-74887597D01*
X87049931Y-74887598D01*
X87086806Y-74890500D01*
X87086814Y-74890500D01*
X88243186Y-74890500D01*
X88243194Y-74890500D01*
X88280069Y-74887598D01*
X88280071Y-74887597D01*
X88280073Y-74887597D01*
X88280075Y-74887596D01*
X88280091Y-74887595D01*
X88280808Y-74887392D01*
X88289673Y-74884928D01*
X88290867Y-74884461D01*
X88303478Y-74880797D01*
X88325503Y-74874398D01*
X88437898Y-74841744D01*
X88579365Y-74758081D01*
X88695581Y-74641865D01*
X88779244Y-74500398D01*
X88825098Y-74342569D01*
X88828000Y-74305694D01*
X88828000Y-73874306D01*
X88825098Y-73837431D01*
X88819221Y-73817203D01*
X88815628Y-73804836D01*
X88779507Y-73680506D01*
X88779259Y-73679627D01*
X88699915Y-73545463D01*
X88695581Y-73538135D01*
X88695580Y-73538134D01*
X88695579Y-73538132D01*
X88695576Y-73538128D01*
X88579375Y-73421927D01*
X88579364Y-73421918D01*
X88579357Y-73421914D01*
X88437899Y-73338256D01*
X88437886Y-73338252D01*
X88280079Y-73292403D01*
X88280073Y-73292402D01*
X88280072Y-73292401D01*
X88280070Y-73292401D01*
X88243208Y-73289500D01*
X88243201Y-73289500D01*
X88243194Y-73289500D01*
X87392333Y-73289500D01*
X87370881Y-73287630D01*
X87361550Y-73285991D01*
X87358720Y-73284590D01*
X87357392Y-73284475D01*
X87353020Y-73283191D01*
X87353303Y-73282224D01*
X87337190Y-73278111D01*
X87336935Y-73278797D01*
X87334087Y-73277734D01*
X87333247Y-73277105D01*
X87331499Y-73276659D01*
X87328792Y-73275423D01*
X87329354Y-73274190D01*
X87317378Y-73265223D01*
X87307623Y-73262355D01*
X87303009Y-73257025D01*
X87298927Y-73255006D01*
X87295012Y-73248477D01*
X87282934Y-73239433D01*
X87281907Y-73240324D01*
X87280992Y-73239268D01*
X87280097Y-73237309D01*
X87278184Y-73235877D01*
X87276358Y-73233438D01*
X87277827Y-73232337D01*
X87273577Y-73223030D01*
X87261890Y-73209532D01*
X87251988Y-73175757D01*
X87251968Y-73175712D01*
X87251961Y-73175663D01*
X87251755Y-73174226D01*
X87250500Y-73156630D01*
X87250500Y-73132329D01*
X87255523Y-73097393D01*
X87259927Y-73082395D01*
X87297672Y-73023644D01*
X87299041Y-73022457D01*
X87353920Y-72994977D01*
X87361479Y-72993333D01*
X87387832Y-72990500D01*
X88243186Y-72990500D01*
X88243194Y-72990500D01*
X88280069Y-72987598D01*
X88280071Y-72987597D01*
X88280073Y-72987597D01*
X88280076Y-72987596D01*
X88280090Y-72987595D01*
X88280785Y-72987398D01*
X88289674Y-72984927D01*
X88290858Y-72984463D01*
X88324502Y-72974689D01*
X88437898Y-72941744D01*
X88579365Y-72858081D01*
X88695581Y-72741865D01*
X88779244Y-72600398D01*
X88825098Y-72442569D01*
X88828000Y-72405694D01*
X88828000Y-71974306D01*
X88825098Y-71937431D01*
X88822262Y-71927670D01*
X88783078Y-71792799D01*
X88783078Y-71792797D01*
X88779245Y-71779605D01*
X88779243Y-71779600D01*
X88726254Y-71690001D01*
X88695581Y-71638135D01*
X88695580Y-71638134D01*
X88695579Y-71638132D01*
X88695576Y-71638128D01*
X88579375Y-71521927D01*
X88579364Y-71521918D01*
X88579357Y-71521914D01*
X88461192Y-71452032D01*
X88461191Y-71452031D01*
X88437896Y-71438255D01*
X88437895Y-71438254D01*
X88367996Y-71417946D01*
X88364030Y-71416496D01*
X88360513Y-71413898D01*
X88339879Y-71404546D01*
X88326703Y-71396131D01*
X88309069Y-71375897D01*
X88307830Y-71374982D01*
X88307488Y-71374083D01*
X88280798Y-71343458D01*
X88276852Y-71334882D01*
X88265500Y-71283050D01*
X88265500Y-70967328D01*
X88268110Y-70949178D01*
X88270523Y-70932392D01*
X88274927Y-70917394D01*
X88312672Y-70858643D01*
X88312700Y-70858618D01*
X88312699Y-70858618D01*
X88314041Y-70857455D01*
X88368920Y-70829976D01*
X88376479Y-70828332D01*
X88402832Y-70825499D01*
X88480002Y-70825499D01*
X88480008Y-70825499D01*
X88582797Y-70814999D01*
X88749334Y-70759814D01*
X88898656Y-70667712D01*
X89022712Y-70543656D01*
X89114814Y-70394334D01*
X89169999Y-70227797D01*
X89180500Y-70125009D01*
X89180499Y-69074992D01*
X89179218Y-69062455D01*
X89169999Y-68972203D01*
X89169998Y-68972200D01*
X89155242Y-68927669D01*
X89114814Y-68805666D01*
X89022712Y-68656344D01*
X88898656Y-68532288D01*
X88898655Y-68532287D01*
X88789222Y-68464789D01*
X88784783Y-68462051D01*
X88749336Y-68440187D01*
X88749331Y-68440185D01*
X88732875Y-68434732D01*
X88591265Y-68387807D01*
X88588445Y-68386641D01*
X88582792Y-68384999D01*
X88480019Y-68374500D01*
X88480010Y-68374500D01*
X87879998Y-68374500D01*
X87879980Y-68374501D01*
X87879972Y-68374501D01*
X87879953Y-68374503D01*
X87777197Y-68385000D01*
X87777193Y-68385001D01*
X87777032Y-68385056D01*
X87610667Y-68440185D01*
X87610665Y-68440186D01*
X87610663Y-68440187D01*
X87511295Y-68501478D01*
X87461339Y-68532291D01*
X87420285Y-68573345D01*
X87420283Y-68573346D01*
X87420283Y-68573347D01*
X87392028Y-68594497D01*
X87378310Y-68601987D01*
X87310067Y-68616839D01*
X87310037Y-68616836D01*
X87310037Y-68616837D01*
X87310036Y-68616836D01*
X87308258Y-68616710D01*
X87250035Y-68597336D01*
X87243525Y-68593152D01*
X87222892Y-68576524D01*
X87203657Y-68557289D01*
X87203656Y-68557288D01*
X87067690Y-68473424D01*
X87054336Y-68465187D01*
X87054331Y-68465185D01*
X86896265Y-68412807D01*
X86893439Y-68411639D01*
X86887796Y-68409999D01*
X86785025Y-68399500D01*
X86785016Y-68399500D01*
X86785009Y-68399500D01*
X86513617Y-68399500D01*
X86500745Y-68396426D01*
X86491029Y-68397425D01*
X86478682Y-68394477D01*
X86467828Y-68391290D01*
X86461084Y-68386956D01*
X86457594Y-68386123D01*
X86447802Y-68381164D01*
X86438568Y-68372486D01*
X86409050Y-68353516D01*
X86402031Y-68338148D01*
X86396888Y-68333314D01*
X86393328Y-68319090D01*
X86380025Y-68289960D01*
X86382219Y-68274698D01*
X86379926Y-68265535D01*
X86386209Y-68246946D01*
X86389968Y-68220803D01*
X86390622Y-68219372D01*
X86399499Y-68207631D01*
X86402301Y-68199345D01*
X86411038Y-68192370D01*
X86423108Y-68176408D01*
X86423527Y-68176051D01*
X86438731Y-68165001D01*
X86458656Y-68152712D01*
X86582712Y-68028656D01*
X86674814Y-67879334D01*
X86729999Y-67712797D01*
X86740500Y-67610009D01*
X86740499Y-66209992D01*
X86736998Y-66175715D01*
X86729999Y-66107201D01*
X86729998Y-66107200D01*
X86729997Y-66107199D01*
X86729824Y-66105497D01*
X86727587Y-66099925D01*
X86715960Y-66064837D01*
X86715629Y-66063839D01*
X86688038Y-65980574D01*
X86674814Y-65940666D01*
X86582712Y-65791344D01*
X86458656Y-65667288D01*
X86458655Y-65667287D01*
X86339577Y-65593840D01*
X86321499Y-65580269D01*
X86313886Y-65573384D01*
X86312630Y-65571335D01*
X86312472Y-65571217D01*
X86309043Y-65567404D01*
X86309801Y-65566721D01*
X86309600Y-65566393D01*
X86298551Y-65554636D01*
X86297642Y-65555331D01*
X86295039Y-65551920D01*
X86294377Y-65550194D01*
X86292749Y-65548462D01*
X86291907Y-65547152D01*
X86292952Y-65546479D01*
X86285533Y-65527135D01*
X86277368Y-65513817D01*
X86277528Y-65506265D01*
X86270018Y-65486684D01*
X86274639Y-65441757D01*
X86276097Y-65436792D01*
X86308200Y-65383248D01*
X86314472Y-65377090D01*
X86336243Y-65360039D01*
X86388656Y-65327712D01*
X86512712Y-65203656D01*
X86604814Y-65054334D01*
X86659999Y-64887797D01*
X86670500Y-64785009D01*
X86670499Y-63734992D01*
X86667435Y-63705001D01*
X86659999Y-63632203D01*
X86659998Y-63632200D01*
X86642138Y-63578302D01*
X86604814Y-63465666D01*
X86512712Y-63316344D01*
X86388656Y-63192288D01*
X86239334Y-63100186D01*
X86081265Y-63047807D01*
X86078445Y-63046641D01*
X86072792Y-63044999D01*
X85970019Y-63034500D01*
X85970010Y-63034500D01*
X85369998Y-63034500D01*
X85369980Y-63034501D01*
X85369972Y-63034501D01*
X85369953Y-63034503D01*
X85267197Y-63045000D01*
X85267193Y-63045001D01*
X85267032Y-63045056D01*
X85100667Y-63100185D01*
X85100665Y-63100186D01*
X85100663Y-63100187D01*
X85010542Y-63155774D01*
X84951340Y-63192290D01*
X84827290Y-63316340D01*
X84796831Y-63365722D01*
X84739126Y-63459278D01*
X84735186Y-63465665D01*
X84735177Y-63465690D01*
X84725165Y-63495907D01*
X84725164Y-63495909D01*
X84690298Y-63601123D01*
X84681852Y-63614066D01*
X84680365Y-63628630D01*
X84679542Y-63634881D01*
X84679359Y-63638476D01*
X84669500Y-63734973D01*
X84669500Y-64288643D01*
X84669499Y-64288647D01*
X84669500Y-64288649D01*
X84664475Y-64323584D01*
X84660856Y-64335907D01*
X84623079Y-64394683D01*
X84559522Y-64423705D01*
X84528626Y-64424256D01*
X84445583Y-64415328D01*
X84440742Y-64414500D01*
X84437881Y-64414500D01*
X84437873Y-64414500D01*
X84437865Y-64414500D01*
X84107329Y-64414500D01*
X84107324Y-64414499D01*
X84107322Y-64414500D01*
X84072388Y-64409475D01*
X84057389Y-64405070D01*
X83998643Y-64367327D01*
X83998614Y-64367293D01*
X83998613Y-64367293D01*
X83998612Y-64367291D01*
X83997456Y-64365958D01*
X83969976Y-64311083D01*
X83968331Y-64303521D01*
X83965499Y-64277168D01*
X83965499Y-63942781D01*
X83965499Y-63942129D01*
X83965498Y-63942123D01*
X83965497Y-63942116D01*
X83959091Y-63882517D01*
X83948548Y-63854253D01*
X83946588Y-63844013D01*
X83946618Y-63843701D01*
X83946347Y-63842716D01*
X83942468Y-63821212D01*
X83940500Y-63799206D01*
X83940500Y-59290945D01*
X83940500Y-59290943D01*
X83899577Y-59138216D01*
X83824069Y-59007431D01*
X83822376Y-59004499D01*
X83820954Y-59001857D01*
X83820570Y-59001334D01*
X83703363Y-58884127D01*
X83703320Y-58884085D01*
X78931928Y-54112693D01*
X78927590Y-54108355D01*
X78927588Y-54108352D01*
X78808717Y-53989481D01*
X78808716Y-53989480D01*
X78808715Y-53989479D01*
X78808712Y-53989477D01*
X78742798Y-53951421D01*
X78742798Y-53951422D01*
X78706843Y-53930664D01*
X78706842Y-53930663D01*
X78671786Y-53910423D01*
X78633603Y-53900192D01*
X78519057Y-53869499D01*
X78519054Y-53869499D01*
X78351443Y-53869499D01*
X78351380Y-53869500D01*
X74882329Y-53869500D01*
X74882324Y-53869499D01*
X74882322Y-53869500D01*
X74847388Y-53864475D01*
X74832389Y-53860070D01*
X74773643Y-53822327D01*
X74773614Y-53822293D01*
X74773613Y-53822293D01*
X74773612Y-53822291D01*
X74772456Y-53820958D01*
X74744976Y-53766083D01*
X74743331Y-53758521D01*
X74740499Y-53732168D01*
X74740499Y-53231970D01*
X74740499Y-53231968D01*
X74740499Y-53231964D01*
X74729886Y-53112582D01*
X74673909Y-52916951D01*
X74601174Y-52777707D01*
X74600775Y-52776575D01*
X74589455Y-52744426D01*
X74586754Y-52730804D01*
X74593023Y-52661220D01*
X74635917Y-52606070D01*
X74637600Y-52604858D01*
X74638367Y-52604306D01*
X74689939Y-52582704D01*
X74692467Y-52582272D01*
X74713354Y-52580500D01*
X94087670Y-52580500D01*
X94122606Y-52585523D01*
G37*
%TD.AperFunction*%
%TA.AperFunction,Conductor*%
G36*
X59830057Y-52585521D02*
G01*
X59840910Y-52588707D01*
X59855908Y-52598344D01*
X59873013Y-52603365D01*
X59884689Y-52616837D01*
X59899691Y-52626477D01*
X59907097Y-52642692D01*
X59918773Y-52656164D01*
X59921311Y-52673812D01*
X59928720Y-52690031D01*
X59926183Y-52707679D01*
X59928722Y-52725322D01*
X59918782Y-52759187D01*
X59916963Y-52763171D01*
X59882528Y-52807769D01*
X59868893Y-52818886D01*
X59740303Y-52976591D01*
X59646087Y-53156957D01*
X59624625Y-53231968D01*
X59624625Y-53231972D01*
X59592977Y-53342578D01*
X59592974Y-53342589D01*
X59590843Y-53350034D01*
X59590235Y-53351994D01*
X59590113Y-53352580D01*
X59582607Y-53437018D01*
X59580390Y-53461961D01*
X59580389Y-53461974D01*
X59579500Y-53471964D01*
X59579500Y-56588034D01*
X59579835Y-56592089D01*
X59579921Y-56592760D01*
X59590113Y-56707415D01*
X59626292Y-56833856D01*
X59646090Y-56903048D01*
X59646353Y-56903836D01*
X59648161Y-56907013D01*
X59740302Y-57083407D01*
X59774977Y-57125933D01*
X59824803Y-57187040D01*
X59868295Y-57240380D01*
X59868890Y-57241109D01*
X59891909Y-57259878D01*
X59929464Y-57290500D01*
X59943764Y-57302160D01*
X60026593Y-57369698D01*
X60206951Y-57463909D01*
X60372472Y-57511269D01*
X60372475Y-57511271D01*
X60372477Y-57511271D01*
X60404681Y-57525712D01*
X60417888Y-57534072D01*
X60463998Y-57586546D01*
X60467931Y-57595001D01*
X60479500Y-57647300D01*
X60479500Y-60231590D01*
X60479499Y-60231664D01*
X60479499Y-60356959D01*
X60473600Y-60377045D01*
X60520423Y-60551786D01*
X60520425Y-60551791D01*
X60528531Y-60565830D01*
X60528533Y-60565833D01*
X60599474Y-60688707D01*
X60599477Y-60688712D01*
X60599479Y-60688715D01*
X60599488Y-60688725D01*
X60720756Y-60809993D01*
X60720794Y-60810029D01*
X63111287Y-63200523D01*
X63111969Y-63201014D01*
X63114475Y-63202363D01*
X63248209Y-63279573D01*
X63248216Y-63279577D01*
X63400943Y-63320501D01*
X63400945Y-63320501D01*
X63566654Y-63320501D01*
X63568558Y-63320501D01*
X63568621Y-63320500D01*
X74047671Y-63320500D01*
X74082606Y-63325523D01*
X74097604Y-63329927D01*
X74156355Y-63367672D01*
X74156379Y-63367700D01*
X74156382Y-63367702D01*
X74156383Y-63367704D01*
X74157542Y-63369041D01*
X74185018Y-63423902D01*
X74186663Y-63431460D01*
X74189500Y-63457831D01*
X74189500Y-68405595D01*
X74189499Y-68405613D01*
X74189499Y-68469876D01*
X74189499Y-68529226D01*
X74183601Y-68549311D01*
X74189498Y-68571319D01*
X74230423Y-68724050D01*
X74231669Y-68726207D01*
X74231675Y-68726218D01*
X74277542Y-68805663D01*
X74309476Y-68860976D01*
X74309482Y-68860983D01*
X74309485Y-68860987D01*
X74430314Y-68981816D01*
X74430359Y-68981859D01*
X76043385Y-70594885D01*
X76064534Y-70623136D01*
X76072716Y-70638120D01*
X76087729Y-70703745D01*
X76087064Y-70717034D01*
X76081151Y-70749153D01*
X76072503Y-70775770D01*
X76039250Y-70985722D01*
X76039250Y-71198306D01*
X76071088Y-71399328D01*
X76071089Y-71399328D01*
X76072503Y-71408253D01*
X76072505Y-71408263D01*
X76121470Y-71558962D01*
X76138191Y-71610421D01*
X76138193Y-71610427D01*
X76231118Y-71792804D01*
X76234701Y-71799835D01*
X76359640Y-71971801D01*
X76359642Y-71971803D01*
X76509966Y-72122127D01*
X76681919Y-72247057D01*
X76681927Y-72247062D01*
X76681929Y-72247063D01*
X76681931Y-72247064D01*
X76681932Y-72247065D01*
X76681950Y-72247075D01*
X76682192Y-72247197D01*
X76871338Y-72343572D01*
X77073507Y-72409261D01*
X77283463Y-72442515D01*
X77283464Y-72442515D01*
X77496036Y-72442515D01*
X77496037Y-72442515D01*
X77705993Y-72409261D01*
X77908162Y-72343572D01*
X78097566Y-72247066D01*
X78200084Y-72172583D01*
X78269536Y-72122124D01*
X78269537Y-72122121D01*
X78269540Y-72122120D01*
X78269542Y-72122119D01*
X78269543Y-72122117D01*
X78269594Y-72122081D01*
X78270355Y-72121305D01*
X78419854Y-71971807D01*
X78419856Y-71971803D01*
X78419859Y-71971801D01*
X78479296Y-71889992D01*
X78539124Y-71807646D01*
X78544797Y-71799836D01*
X78544798Y-71799833D01*
X78544801Y-71799831D01*
X78641307Y-71610427D01*
X78706996Y-71408258D01*
X78740250Y-71198302D01*
X78740250Y-70985728D01*
X78706996Y-70775772D01*
X78641307Y-70573603D01*
X78544801Y-70384199D01*
X78544799Y-70384196D01*
X78544798Y-70384194D01*
X78544452Y-70383718D01*
X78544450Y-70383714D01*
X78419862Y-70212231D01*
X78269532Y-70061901D01*
X78097574Y-69936968D01*
X78097008Y-69936621D01*
X78095377Y-69935372D01*
X78093651Y-69934118D01*
X78093682Y-69934074D01*
X78076710Y-69921077D01*
X78066433Y-69911372D01*
X78031207Y-69851032D01*
X78034195Y-69781227D01*
X78070362Y-69727510D01*
X78077533Y-69721296D01*
X78093944Y-69709284D01*
X78097547Y-69707075D01*
X78097566Y-69707066D01*
X78132554Y-69681645D01*
X78145574Y-69672187D01*
X78197114Y-69634741D01*
X78269536Y-69582124D01*
X78269538Y-69582121D01*
X78269542Y-69582119D01*
X78269546Y-69582114D01*
X78269598Y-69582077D01*
X78270342Y-69581318D01*
X78419854Y-69431807D01*
X78419856Y-69431803D01*
X78419859Y-69431801D01*
X78544798Y-69259835D01*
X78544797Y-69259835D01*
X78544801Y-69259831D01*
X78544803Y-69259825D01*
X78565195Y-69231759D01*
X78573480Y-69203544D01*
X78641307Y-69070427D01*
X78706996Y-68868258D01*
X78740250Y-68658302D01*
X78740250Y-68445728D01*
X78706996Y-68235772D01*
X78698763Y-68210437D01*
X78692747Y-68175662D01*
X78692260Y-68158604D01*
X78708670Y-68093329D01*
X78715304Y-68081775D01*
X78735150Y-68055847D01*
X79245746Y-67545251D01*
X79274001Y-67524101D01*
X79284404Y-67518421D01*
X79352678Y-67503573D01*
X79418141Y-67527994D01*
X79459414Y-67582369D01*
X79465377Y-67597724D01*
X79471404Y-67618420D01*
X79500257Y-67763471D01*
X79500264Y-67763502D01*
X79560598Y-67909165D01*
X79560603Y-67909174D01*
X79560613Y-67909191D01*
X79648211Y-68040290D01*
X79648212Y-68040291D01*
X79648217Y-68040297D01*
X79759701Y-68151781D01*
X79759707Y-68151786D01*
X79759711Y-68151789D01*
X79890814Y-68239390D01*
X79890827Y-68239397D01*
X79981946Y-68277139D01*
X80036503Y-68299737D01*
X80173618Y-68327011D01*
X80183523Y-68328981D01*
X80186249Y-68329704D01*
X80191155Y-68330500D01*
X80348844Y-68330500D01*
X80352964Y-68330500D01*
X80360814Y-68328118D01*
X80503497Y-68299737D01*
X80649179Y-68239394D01*
X80680412Y-68218525D01*
X80766053Y-68161301D01*
X80797889Y-68146071D01*
X80829527Y-68136165D01*
X80866578Y-68130500D01*
X81511380Y-68130500D01*
X81511443Y-68130501D01*
X81513347Y-68130501D01*
X81520943Y-68130501D01*
X81679055Y-68130501D01*
X81679056Y-68130501D01*
X81679057Y-68130501D01*
X81804732Y-68096824D01*
X81820636Y-68093662D01*
X81836620Y-68091559D01*
X81852795Y-68090499D01*
X82012871Y-68090499D01*
X82012872Y-68090499D01*
X82072483Y-68084091D01*
X82207331Y-68033796D01*
X82322546Y-67947546D01*
X82408796Y-67832331D01*
X82459091Y-67697483D01*
X82465500Y-67637873D01*
X82465499Y-66942128D01*
X82459091Y-66882517D01*
X82451518Y-66862214D01*
X82408797Y-66747671D01*
X82408793Y-66747664D01*
X82344229Y-66661419D01*
X82322548Y-66632456D01*
X82322542Y-66632450D01*
X82264616Y-66589086D01*
X82207335Y-66546206D01*
X82207332Y-66546204D01*
X82207330Y-66546203D01*
X82207328Y-66546202D01*
X82072482Y-66495908D01*
X82072483Y-66495908D01*
X82016694Y-66489910D01*
X82007194Y-66487328D01*
X82006707Y-66487029D01*
X82004787Y-66486647D01*
X81982393Y-66480071D01*
X81923647Y-66442332D01*
X81922459Y-66440962D01*
X81894976Y-66386083D01*
X81891565Y-66370404D01*
X81889443Y-66357307D01*
X81888831Y-66351614D01*
X81884091Y-66307517D01*
X81884089Y-66307511D01*
X81882517Y-66303296D01*
X81855887Y-66231898D01*
X81833797Y-66172671D01*
X81833796Y-66172669D01*
X81827234Y-66163904D01*
X81800794Y-66128584D01*
X81797834Y-66123165D01*
X81783878Y-66097606D01*
X81781090Y-66090132D01*
X81778414Y-66082958D01*
X81773431Y-66013268D01*
X81775457Y-66003952D01*
X81797365Y-65955997D01*
X81799218Y-65953521D01*
X81800735Y-65951495D01*
X81833796Y-65907331D01*
X81884091Y-65772483D01*
X81890500Y-65712873D01*
X81890499Y-65367128D01*
X81884317Y-65309619D01*
X81883609Y-65296813D01*
X81883608Y-65296614D01*
X81883566Y-65284454D01*
X81884275Y-65270770D01*
X81885436Y-65259972D01*
X81889992Y-65217591D01*
X81898388Y-65184209D01*
X81903189Y-65172383D01*
X81904258Y-65172817D01*
X81911645Y-65162377D01*
X81917067Y-65146313D01*
X81938939Y-65123261D01*
X81938583Y-65122852D01*
X81938905Y-65122572D01*
X81940218Y-65121912D01*
X81940465Y-65121653D01*
X81941224Y-65120581D01*
X81942866Y-65119269D01*
X81942920Y-65119246D01*
X81943575Y-65118735D01*
X81943719Y-65118919D01*
X81957114Y-65113436D01*
X81993904Y-65094979D01*
X82009596Y-65091565D01*
X82022682Y-65089444D01*
X82072483Y-65084091D01*
X82207331Y-65033796D01*
X82251427Y-65000784D01*
X82282391Y-64983878D01*
X82297043Y-64978413D01*
X82366731Y-64973431D01*
X82376039Y-64975456D01*
X82423987Y-64997353D01*
X82430911Y-65002536D01*
X82430915Y-65002539D01*
X82464314Y-65027542D01*
X82472669Y-65033796D01*
X82472671Y-65033797D01*
X82511540Y-65048294D01*
X82607517Y-65084091D01*
X82667127Y-65090500D01*
X83012872Y-65090499D01*
X83070381Y-65084316D01*
X83083167Y-65083609D01*
X83095557Y-65083565D01*
X83109219Y-65084274D01*
X83162403Y-65089992D01*
X83195788Y-65098388D01*
X83207592Y-65103180D01*
X83207160Y-65104242D01*
X83217619Y-65111643D01*
X83233681Y-65117062D01*
X83256784Y-65138969D01*
X83257184Y-65138622D01*
X83257456Y-65138935D01*
X83258099Y-65140216D01*
X83258390Y-65140492D01*
X83259414Y-65141217D01*
X83260727Y-65142860D01*
X83260748Y-65142911D01*
X83261233Y-65143531D01*
X83261057Y-65143668D01*
X83266494Y-65156946D01*
X83285009Y-65193840D01*
X83286296Y-65199739D01*
X83287111Y-65207297D01*
X83287202Y-65207520D01*
X83287159Y-65207749D01*
X83289146Y-65226171D01*
X83289146Y-65235153D01*
X83291181Y-65238666D01*
X83294010Y-65254825D01*
X83295657Y-65270145D01*
X83296367Y-65283399D01*
X83296367Y-65296614D01*
X83295656Y-65309869D01*
X83289501Y-65367116D01*
X83289500Y-65367135D01*
X83289500Y-65712866D01*
X83289502Y-65712894D01*
X83295657Y-65770145D01*
X83296367Y-65783398D01*
X83296367Y-65796614D01*
X83295656Y-65809869D01*
X83289501Y-65867116D01*
X83289500Y-65867135D01*
X83289500Y-66212866D01*
X83289504Y-66212908D01*
X83295680Y-66270366D01*
X83296389Y-66283177D01*
X83296433Y-66295548D01*
X83295723Y-66309246D01*
X83290008Y-66362396D01*
X83281614Y-66395777D01*
X83276814Y-66407602D01*
X83275780Y-66407182D01*
X83268339Y-66417692D01*
X83262982Y-66433608D01*
X83240813Y-66457017D01*
X83241135Y-66457389D01*
X83240796Y-66457682D01*
X83239635Y-66458262D01*
X83239570Y-66458330D01*
X83238844Y-66459357D01*
X83237187Y-66460683D01*
X83237137Y-66460703D01*
X83236542Y-66461170D01*
X83236410Y-66461001D01*
X83223865Y-66466147D01*
X83186118Y-66485023D01*
X83180250Y-66486302D01*
X83172773Y-66487107D01*
X83172545Y-66487201D01*
X83172307Y-66487157D01*
X83153843Y-66489146D01*
X83144853Y-66489146D01*
X83141465Y-66491121D01*
X83124977Y-66494031D01*
X83107516Y-66495908D01*
X83014972Y-66530425D01*
X82972666Y-66546204D01*
X82972665Y-66546205D01*
X82857456Y-66632450D01*
X82857450Y-66632456D01*
X82771205Y-66747665D01*
X82771201Y-66747671D01*
X82771200Y-66747673D01*
X82720911Y-66882507D01*
X82720908Y-66882520D01*
X82714505Y-66942079D01*
X82714501Y-66942123D01*
X82714500Y-66942135D01*
X82714500Y-67637876D01*
X82714659Y-67639806D01*
X82714885Y-67641454D01*
X82720907Y-67697482D01*
X82748690Y-67771971D01*
X82771202Y-67832328D01*
X82771206Y-67832335D01*
X82806390Y-67879334D01*
X82857450Y-67947542D01*
X82857452Y-67947544D01*
X82857455Y-67947547D01*
X82972664Y-68033793D01*
X82972671Y-68033797D01*
X83107516Y-68084091D01*
X83133419Y-68086875D01*
X83167127Y-68090500D01*
X83224716Y-68090499D01*
X83227344Y-68090611D01*
X83230628Y-68091729D01*
X83257003Y-68095520D01*
X83282246Y-68102932D01*
X83334993Y-68134228D01*
X83744617Y-68543852D01*
X83765769Y-68572108D01*
X83773261Y-68585829D01*
X83777050Y-68603246D01*
X83785592Y-68618885D01*
X83788113Y-68654089D01*
X83787533Y-68662209D01*
X83769387Y-68718471D01*
X83700189Y-68830657D01*
X83700183Y-68830672D01*
X83700182Y-68830673D01*
X83672349Y-68914668D01*
X83672349Y-68914670D01*
X83670749Y-68919500D01*
X83655299Y-68966123D01*
X83646852Y-68979068D01*
X83645364Y-68993635D01*
X83644542Y-68999877D01*
X83644359Y-69003476D01*
X83634500Y-69099973D01*
X83634500Y-69099983D01*
X83634500Y-70100001D01*
X83634501Y-70100019D01*
X83634503Y-70100043D01*
X83634504Y-70100050D01*
X83644999Y-70202795D01*
X83655760Y-70235267D01*
X83661263Y-70265997D01*
X83661981Y-70270006D01*
X83662231Y-70277271D01*
X83644863Y-70344948D01*
X83593664Y-70392492D01*
X83525702Y-70404894D01*
X83375019Y-70389500D01*
X83375010Y-70389500D01*
X82324998Y-70389500D01*
X82324980Y-70389501D01*
X82324972Y-70389501D01*
X82324953Y-70389503D01*
X82222197Y-70400000D01*
X82222193Y-70400001D01*
X82222032Y-70400056D01*
X82055667Y-70455185D01*
X82055665Y-70455186D01*
X82055663Y-70455187D01*
X81956115Y-70516588D01*
X81906340Y-70547290D01*
X81782290Y-70671340D01*
X81759236Y-70708717D01*
X81690483Y-70820184D01*
X81690185Y-70820667D01*
X81690178Y-70820685D01*
X81677364Y-70859356D01*
X81677364Y-70859360D01*
X81673135Y-70872122D01*
X81645299Y-70956123D01*
X81636852Y-70969067D01*
X81635365Y-70983630D01*
X81634542Y-70989881D01*
X81634359Y-70993476D01*
X81624500Y-71089973D01*
X81624500Y-71689998D01*
X81624503Y-71690045D01*
X81635000Y-71792796D01*
X81635003Y-71792804D01*
X81635070Y-71793007D01*
X81690182Y-71959322D01*
X81690186Y-71959333D01*
X81690188Y-71959338D01*
X81697876Y-71971803D01*
X81697879Y-71971807D01*
X81782288Y-72108656D01*
X81906344Y-72232712D01*
X82055666Y-72324814D01*
X82222203Y-72379999D01*
X82324991Y-72390500D01*
X83375008Y-72390499D01*
X83375016Y-72390498D01*
X83375019Y-72390498D01*
X83375027Y-72390497D01*
X83375317Y-72390479D01*
X83376333Y-72390363D01*
X83421459Y-72385753D01*
X83431303Y-72384748D01*
X83431303Y-72384747D01*
X83477797Y-72379999D01*
X83644334Y-72324814D01*
X83793656Y-72232712D01*
X83917712Y-72108656D01*
X83944900Y-72064574D01*
X83958464Y-72046505D01*
X83965346Y-72038894D01*
X83967403Y-72037632D01*
X83967529Y-72037465D01*
X83971338Y-72034040D01*
X83972021Y-72034800D01*
X83972359Y-72034593D01*
X83984002Y-72023655D01*
X83983501Y-72023100D01*
X83983650Y-72022965D01*
X83983405Y-72022644D01*
X83987378Y-72019611D01*
X83987384Y-72019608D01*
X83987388Y-72019603D01*
X83991356Y-72016576D01*
X83991601Y-72016897D01*
X83991640Y-72016872D01*
X83991947Y-72017351D01*
X83992778Y-72018439D01*
X84001168Y-72014400D01*
X84015608Y-72001905D01*
X84045027Y-71993286D01*
X84046918Y-71992377D01*
X84049411Y-71991993D01*
X84050508Y-71991835D01*
X84051100Y-71991751D01*
X84068668Y-71990500D01*
X84085170Y-71990500D01*
X84120106Y-71995523D01*
X84135104Y-71999927D01*
X84193855Y-72037672D01*
X84195042Y-72039041D01*
X84222518Y-72093902D01*
X84224163Y-72101460D01*
X84227000Y-72127831D01*
X84227000Y-72405708D01*
X84229901Y-72442570D01*
X84229901Y-72442572D01*
X84229902Y-72442573D01*
X84229903Y-72442579D01*
X84275750Y-72600380D01*
X84275756Y-72600399D01*
X84275765Y-72600414D01*
X84280694Y-72608747D01*
X84280697Y-72608758D01*
X84280699Y-72608757D01*
X84359410Y-72741853D01*
X84359427Y-72741875D01*
X84475631Y-72858079D01*
X84617100Y-72941743D01*
X84617102Y-72941744D01*
X84617103Y-72941744D01*
X84617105Y-72941745D01*
X84630583Y-72945661D01*
X84630589Y-72945662D01*
X84630595Y-72945664D01*
X84759838Y-72983213D01*
X84764132Y-72984461D01*
X84765328Y-72984929D01*
X84774184Y-72987390D01*
X84774905Y-72987595D01*
X84774924Y-72987596D01*
X84774926Y-72987597D01*
X84774929Y-72987597D01*
X84774931Y-72987598D01*
X84811806Y-72990500D01*
X84811814Y-72990500D01*
X85907671Y-72990500D01*
X85929109Y-72992367D01*
X85938435Y-72994004D01*
X85941269Y-72995405D01*
X85942602Y-72995522D01*
X85946972Y-72996805D01*
X85946687Y-72997774D01*
X85962799Y-73001887D01*
X85963056Y-73001199D01*
X85965902Y-73002261D01*
X85966749Y-73002895D01*
X85968519Y-73003347D01*
X85971227Y-73004584D01*
X85970660Y-73005823D01*
X85982580Y-73014746D01*
X85992305Y-73017599D01*
X85996938Y-73022943D01*
X86001062Y-73024983D01*
X86004979Y-73031514D01*
X86017066Y-73040563D01*
X86018092Y-73039675D01*
X86019007Y-73040731D01*
X86019898Y-73042683D01*
X86021810Y-73044114D01*
X86023637Y-73046554D01*
X86022169Y-73047653D01*
X86026411Y-73056938D01*
X86038074Y-73070391D01*
X86048026Y-73104252D01*
X86048233Y-73105689D01*
X86049500Y-73123369D01*
X86049500Y-73147670D01*
X86044475Y-73182614D01*
X86040070Y-73197612D01*
X86002327Y-73256355D01*
X86000958Y-73257542D01*
X85946097Y-73285018D01*
X85938539Y-73286663D01*
X85912168Y-73289500D01*
X84811790Y-73289500D01*
X84774928Y-73292401D01*
X84774926Y-73292401D01*
X84774925Y-73292402D01*
X84774919Y-73292403D01*
X84617112Y-73338252D01*
X84617099Y-73338256D01*
X84475641Y-73421914D01*
X84475634Y-73421918D01*
X84475623Y-73421927D01*
X84359427Y-73538123D01*
X84359418Y-73538134D01*
X84359414Y-73538141D01*
X84275756Y-73679599D01*
X84275752Y-73679612D01*
X84229903Y-73837419D01*
X84229902Y-73837425D01*
X84229901Y-73837426D01*
X84229901Y-73837428D01*
X84227000Y-73874290D01*
X84227000Y-74305708D01*
X84229901Y-74342570D01*
X84229901Y-74342572D01*
X84229902Y-74342573D01*
X84229903Y-74342579D01*
X84258196Y-74439961D01*
X84275754Y-74500393D01*
X84275755Y-74500396D01*
X84275756Y-74500398D01*
X84291109Y-74526359D01*
X84359413Y-74641857D01*
X84359427Y-74641875D01*
X84475631Y-74758079D01*
X84593094Y-74827546D01*
X84617102Y-74841744D01*
X84626585Y-74844499D01*
X84742976Y-74878314D01*
X84775122Y-74892884D01*
X84781125Y-74896718D01*
X84788300Y-74901301D01*
X84800012Y-74914739D01*
X84801859Y-74915919D01*
X84802774Y-74917909D01*
X84834196Y-74953962D01*
X84838143Y-74962538D01*
X84849500Y-75014380D01*
X84849500Y-77086779D01*
X84849499Y-77086785D01*
X84849500Y-77086788D01*
X84844475Y-77121721D01*
X84844069Y-77123104D01*
X84840070Y-77136721D01*
X84802305Y-77195483D01*
X84802292Y-77195494D01*
X84802291Y-77195496D01*
X84802288Y-77195496D01*
X84795256Y-77201592D01*
X84748158Y-77227102D01*
X84593672Y-77271306D01*
X84575049Y-77273917D01*
X84560113Y-77284886D01*
X84404023Y-77366420D01*
X84404017Y-77366423D01*
X84396593Y-77370302D01*
X84396591Y-77370303D01*
X84396590Y-77370304D01*
X84387634Y-77377606D01*
X84387623Y-77377614D01*
X84238887Y-77498892D01*
X84110305Y-77656587D01*
X84110301Y-77656593D01*
X84028158Y-77813845D01*
X84010571Y-77838263D01*
X84007534Y-77842480D01*
X83998308Y-77852053D01*
X83937614Y-77886664D01*
X83867842Y-77882967D01*
X83815306Y-77847201D01*
X83809573Y-77840585D01*
X83793383Y-77816801D01*
X83791839Y-77813845D01*
X83709698Y-77656593D01*
X83657684Y-77592803D01*
X83581109Y-77498890D01*
X83581107Y-77498888D01*
X83581106Y-77498887D01*
X83487807Y-77422813D01*
X83475704Y-77405167D01*
X83423404Y-77370300D01*
X83334542Y-77323883D01*
X83243049Y-77276091D01*
X83243048Y-77276090D01*
X83243045Y-77276089D01*
X83096646Y-77234200D01*
X83095578Y-77233894D01*
X83095505Y-77233872D01*
X83049980Y-77220846D01*
X83047827Y-77220179D01*
X83045347Y-77219777D01*
X83041936Y-77219626D01*
X83016934Y-77217403D01*
X82981102Y-77214217D01*
X82981101Y-77214216D01*
X82928039Y-77209500D01*
X82928037Y-77209500D01*
X82928032Y-77209500D01*
X81811971Y-77209500D01*
X81811965Y-77209500D01*
X81799897Y-77209500D01*
X81793042Y-77211182D01*
X81692582Y-77220113D01*
X81496955Y-77276088D01*
X81488510Y-77280500D01*
X81488509Y-77280499D01*
X81324005Y-77366429D01*
X81323996Y-77366434D01*
X81316593Y-77370302D01*
X81316591Y-77370303D01*
X81316590Y-77370304D01*
X81307641Y-77377600D01*
X81307632Y-77377607D01*
X81158887Y-77498892D01*
X81030307Y-77656584D01*
X80936089Y-77836954D01*
X80929997Y-77858248D01*
X80929995Y-77858250D01*
X80929996Y-77858252D01*
X80915555Y-77890456D01*
X80908132Y-77902183D01*
X80855644Y-77948300D01*
X80786571Y-77958721D01*
X80784412Y-77958426D01*
X80730823Y-77937662D01*
X80727498Y-77935370D01*
X80710193Y-77920957D01*
X72801928Y-70012693D01*
X72801908Y-70012671D01*
X72678722Y-69889485D01*
X72678717Y-69889481D01*
X72678709Y-69889475D01*
X72670139Y-69884527D01*
X72589859Y-69838177D01*
X72589814Y-69838152D01*
X72581752Y-69833498D01*
X72581749Y-69833495D01*
X72581749Y-69833496D01*
X72541790Y-69810425D01*
X72541781Y-69810421D01*
X72439354Y-69782975D01*
X72433723Y-69780298D01*
X72430093Y-69780101D01*
X72400329Y-69764425D01*
X72398834Y-69763715D01*
X72398748Y-69763652D01*
X72391863Y-69758639D01*
X72391509Y-69758423D01*
X72389272Y-69756807D01*
X72369220Y-69730948D01*
X72350865Y-69709008D01*
X72349914Y-69709471D01*
X72344930Y-69699212D01*
X72333106Y-69657628D01*
X72329999Y-69627203D01*
X72274814Y-69460666D01*
X72182712Y-69311344D01*
X72058656Y-69187288D01*
X71965888Y-69130069D01*
X71909336Y-69095187D01*
X71909331Y-69095185D01*
X71907862Y-69094698D01*
X71751265Y-69042807D01*
X71748445Y-69041641D01*
X71742792Y-69039999D01*
X71640019Y-69029500D01*
X71640010Y-69029500D01*
X70889998Y-69029500D01*
X70889980Y-69029501D01*
X70889972Y-69029501D01*
X70889953Y-69029503D01*
X70787197Y-69040000D01*
X70787193Y-69040001D01*
X70787032Y-69040056D01*
X70620667Y-69095185D01*
X70620665Y-69095186D01*
X70620663Y-69095187D01*
X70562102Y-69131308D01*
X70471340Y-69187290D01*
X70347290Y-69311340D01*
X70255187Y-69460662D01*
X70255152Y-69460770D01*
X70211050Y-69593857D01*
X70211044Y-69593875D01*
X70200001Y-69627203D01*
X70200001Y-69627204D01*
X70200000Y-69627204D01*
X70199230Y-69634735D01*
X70199229Y-69634741D01*
X70189500Y-69729973D01*
X70189500Y-69729983D01*
X70189500Y-71130001D01*
X70189501Y-71130018D01*
X70200000Y-71232796D01*
X70200001Y-71232799D01*
X70222442Y-71300520D01*
X70255182Y-71399322D01*
X70255185Y-71399333D01*
X70268680Y-71421211D01*
X70279193Y-71438256D01*
X70347288Y-71548656D01*
X70471344Y-71672712D01*
X70590424Y-71746160D01*
X70608491Y-71759722D01*
X70616102Y-71766604D01*
X70617357Y-71768651D01*
X70617519Y-71768773D01*
X70620945Y-71772582D01*
X70620186Y-71773264D01*
X70620381Y-71773582D01*
X70631448Y-71785358D01*
X70632356Y-71784666D01*
X70638428Y-71792623D01*
X70636609Y-71794010D01*
X70640662Y-71802480D01*
X70653041Y-71816754D01*
X70661880Y-71846813D01*
X70662668Y-71848459D01*
X70662998Y-71850614D01*
X70663231Y-71852230D01*
X70664500Y-71869926D01*
X70664500Y-72067072D01*
X70659476Y-72102009D01*
X70652064Y-72127250D01*
X70620769Y-72179994D01*
X70162189Y-72638573D01*
X70155229Y-72643783D01*
X70133938Y-72659722D01*
X70110850Y-72672330D01*
X70052199Y-72687301D01*
X70052203Y-72687393D01*
X70051768Y-72687411D01*
X70051420Y-72687500D01*
X70049632Y-72687500D01*
X70049625Y-72687500D01*
X70049622Y-72687501D01*
X70046050Y-72687885D01*
X69990017Y-72693907D01*
X69921400Y-72719500D01*
X69855177Y-72744200D01*
X69855166Y-72744204D01*
X69855165Y-72744205D01*
X69739956Y-72830450D01*
X69739950Y-72830456D01*
X69653706Y-72945664D01*
X69653702Y-72945670D01*
X69642879Y-72974689D01*
X69606025Y-73073503D01*
X69603764Y-73079565D01*
X69603408Y-73080520D01*
X69597838Y-73132329D01*
X69597000Y-73140127D01*
X69597000Y-73140134D01*
X69597000Y-73140135D01*
X69597000Y-73459868D01*
X69597001Y-73459880D01*
X69597984Y-73469024D01*
X69598692Y-73481832D01*
X69598731Y-73493156D01*
X69597626Y-73499285D01*
X69598778Y-73506397D01*
X69598813Y-73516160D01*
X69597828Y-73519558D01*
X69598104Y-73529851D01*
X69597000Y-73540119D01*
X69597000Y-73859869D01*
X69599179Y-73880141D01*
X69599889Y-73893392D01*
X69599889Y-73906599D01*
X69599179Y-73919852D01*
X69599109Y-73920501D01*
X69597000Y-73940121D01*
X69597000Y-74259867D01*
X69597136Y-74261783D01*
X69597229Y-74262012D01*
X69603407Y-74319478D01*
X69603408Y-74319484D01*
X69648341Y-74439959D01*
X69648343Y-74439961D01*
X69655845Y-74474449D01*
X69657850Y-74502482D01*
X69650348Y-74554660D01*
X69603410Y-74680509D01*
X69603408Y-74680515D01*
X69602804Y-74685421D01*
X69602698Y-74687129D01*
X69597001Y-74740116D01*
X69597000Y-74740135D01*
X69597000Y-75059867D01*
X69597050Y-75060574D01*
X69597231Y-75062019D01*
X69603407Y-75119482D01*
X69625213Y-75177945D01*
X69653702Y-75254328D01*
X69653706Y-75254335D01*
X69664844Y-75269213D01*
X69739950Y-75369542D01*
X69739952Y-75369544D01*
X69739955Y-75369547D01*
X69855164Y-75455793D01*
X69855171Y-75455797D01*
X69900118Y-75472561D01*
X69990017Y-75506091D01*
X70049627Y-75512500D01*
X70650372Y-75512499D01*
X70709983Y-75506091D01*
X70844831Y-75455796D01*
X70960046Y-75369546D01*
X71046296Y-75254331D01*
X71096591Y-75119483D01*
X71103000Y-75059873D01*
X71102999Y-74740128D01*
X71102999Y-74740127D01*
X71102998Y-74740116D01*
X71100654Y-74718316D01*
X71100654Y-74718315D01*
X71100653Y-74718314D01*
X71100653Y-74718307D01*
X71101912Y-74683045D01*
X71104111Y-74670861D01*
X71135385Y-74608385D01*
X71195474Y-74572733D01*
X71262091Y-74574207D01*
X71271715Y-74577124D01*
X71300847Y-74590254D01*
X71338814Y-74613672D01*
X71340362Y-74614665D01*
X71340663Y-74614812D01*
X71340666Y-74614814D01*
X71340668Y-74614814D01*
X71340673Y-74614817D01*
X71476654Y-74659876D01*
X71507203Y-74669999D01*
X71609991Y-74680500D01*
X72433096Y-74680499D01*
X72500135Y-74700183D01*
X72545890Y-74752987D01*
X72549277Y-74761164D01*
X72581894Y-74848610D01*
X72581896Y-74848613D01*
X72581898Y-74848619D01*
X72595976Y-74874400D01*
X72614425Y-74908189D01*
X72615383Y-74909942D01*
X72701607Y-75025123D01*
X72701616Y-75025132D01*
X72743237Y-75066753D01*
X72761096Y-75089339D01*
X72775946Y-75113415D01*
X72788113Y-75139507D01*
X72798469Y-75170759D01*
X72804119Y-75197144D01*
X72804355Y-75199451D01*
X72804999Y-75212070D01*
X72804999Y-75772933D01*
X72804356Y-75785542D01*
X72804121Y-75787841D01*
X72798470Y-75814236D01*
X72788113Y-75845491D01*
X72775946Y-75871583D01*
X72761096Y-75895659D01*
X72743238Y-75918244D01*
X72723244Y-75938238D01*
X72700659Y-75956096D01*
X72676583Y-75970946D01*
X72650491Y-75983113D01*
X72619236Y-75993470D01*
X72592858Y-75999120D01*
X72591878Y-75999220D01*
X72590557Y-75999355D01*
X72577936Y-75999999D01*
X71997595Y-75999999D01*
X71943546Y-76002896D01*
X71943545Y-76002896D01*
X71917212Y-76005728D01*
X71917185Y-76005731D01*
X71863789Y-76014384D01*
X71863787Y-76014384D01*
X71728982Y-76064665D01*
X71667657Y-76098150D01*
X71552475Y-76184375D01*
X71552463Y-76184385D01*
X69643310Y-78093538D01*
X69643311Y-78093539D01*
X69643303Y-78093547D01*
X69633095Y-78103754D01*
X69633084Y-78103766D01*
X69631292Y-78105559D01*
X69631289Y-78105560D01*
X69631288Y-78105562D01*
X69585668Y-78151182D01*
X69524345Y-78184667D01*
X69497987Y-78187501D01*
X69425300Y-78187501D01*
X69425237Y-78187500D01*
X69423331Y-78187500D01*
X67482508Y-78187500D01*
X67370485Y-78200069D01*
X67370481Y-78200069D01*
X67370480Y-78200070D01*
X67316890Y-78212249D01*
X67210452Y-78249323D01*
X67210449Y-78249325D01*
X67090875Y-78329335D01*
X67038920Y-78376065D01*
X67038919Y-78376066D01*
X66946728Y-78486528D01*
X66946721Y-78486538D01*
X66941094Y-78495662D01*
X66923240Y-78518242D01*
X66903244Y-78538238D01*
X66880659Y-78556096D01*
X66856583Y-78570946D01*
X66830492Y-78583112D01*
X66799238Y-78593469D01*
X66772848Y-78599121D01*
X66771399Y-78599269D01*
X66770548Y-78599356D01*
X66757935Y-78599999D01*
X65822065Y-78599999D01*
X65809456Y-78599356D01*
X65807157Y-78599121D01*
X65780762Y-78593470D01*
X65749507Y-78583113D01*
X65723415Y-78570946D01*
X65699339Y-78556096D01*
X65676754Y-78538238D01*
X65656758Y-78518242D01*
X65638899Y-78495655D01*
X65619500Y-78464203D01*
X65619473Y-78464162D01*
X65598369Y-78433244D01*
X65593116Y-78425549D01*
X65593114Y-78425547D01*
X65593107Y-78425536D01*
X65579343Y-78407251D01*
X65579340Y-78407248D01*
X65579333Y-78407238D01*
X65549505Y-78371210D01*
X65438556Y-78279603D01*
X65378897Y-78243239D01*
X65378894Y-78243237D01*
X65378890Y-78243235D01*
X65286382Y-78203621D01*
X65246637Y-78186601D01*
X65246629Y-78186598D01*
X65246624Y-78186597D01*
X65245410Y-78186272D01*
X65244999Y-78186035D01*
X65242451Y-78185153D01*
X65242621Y-78184661D01*
X65189829Y-78154181D01*
X65081645Y-78045997D01*
X65081644Y-78045996D01*
X65081577Y-78045929D01*
X65075306Y-78039767D01*
X65072078Y-78036651D01*
X65065452Y-78030371D01*
X65065447Y-78030366D01*
X65065442Y-78030362D01*
X65065438Y-78030359D01*
X64947261Y-77948318D01*
X64947258Y-77948316D01*
X64947256Y-77948315D01*
X64884775Y-77917044D01*
X64748255Y-77871615D01*
X64748253Y-77871614D01*
X64748250Y-77871614D01*
X64604478Y-77866489D01*
X64604463Y-77866489D01*
X64535007Y-77873960D01*
X64535002Y-77873961D01*
X64534998Y-77873961D01*
X64534997Y-77873962D01*
X64504807Y-77881665D01*
X64501997Y-77882347D01*
X64451658Y-77893946D01*
X64450950Y-77891302D01*
X64376153Y-77911344D01*
X64374023Y-77911835D01*
X64371406Y-77911680D01*
X64346180Y-77915001D01*
X64265300Y-77915001D01*
X64265237Y-77915000D01*
X64263331Y-77915000D01*
X64127891Y-77915000D01*
X64060852Y-77895315D01*
X64015097Y-77842511D01*
X64005153Y-77773353D01*
X64034178Y-77709797D01*
X64092956Y-77672023D01*
X64145504Y-77656593D01*
X64207004Y-77638535D01*
X64328043Y-77560747D01*
X64380847Y-77514992D01*
X64475067Y-77406258D01*
X64534838Y-77275381D01*
X64554523Y-77208342D01*
X64554524Y-77208338D01*
X64575000Y-77065922D01*
X64575000Y-76328675D01*
X64577383Y-76304482D01*
X64590500Y-76238542D01*
X64590500Y-76041453D01*
X64577383Y-75975513D01*
X64575000Y-75951321D01*
X64575000Y-75950094D01*
X64572102Y-75896046D01*
X64572102Y-75896045D01*
X64570907Y-75884936D01*
X64569269Y-75869699D01*
X64567655Y-75859741D01*
X64560614Y-75816289D01*
X64560614Y-75816287D01*
X64550004Y-75787841D01*
X64510332Y-75681478D01*
X64476847Y-75620155D01*
X64390623Y-75504974D01*
X64390618Y-75504969D01*
X64390613Y-75504963D01*
X64054484Y-75168835D01*
X64036329Y-75154558D01*
X64031940Y-75148394D01*
X64025300Y-75144769D01*
X64011953Y-75120328D01*
X63995800Y-75097644D01*
X63995439Y-75090087D01*
X63991814Y-75083447D01*
X63993800Y-75055671D01*
X63992475Y-75027854D01*
X63996258Y-75021300D01*
X63996798Y-75013755D01*
X64013485Y-74991462D01*
X64027410Y-74967344D01*
X64035180Y-74962479D01*
X64038668Y-74957821D01*
X64069645Y-74940905D01*
X64125646Y-74920019D01*
X64142331Y-74913796D01*
X64257546Y-74827546D01*
X64343796Y-74712331D01*
X64394091Y-74577483D01*
X64400500Y-74517873D01*
X64400499Y-74122128D01*
X64400498Y-74122111D01*
X64397030Y-74089865D01*
X64396320Y-74076608D01*
X64396320Y-74063395D01*
X64397028Y-74050163D01*
X64397154Y-74048989D01*
X64405885Y-74014768D01*
X64411867Y-74000326D01*
X64423614Y-73985750D01*
X64425309Y-73979575D01*
X64437193Y-73968901D01*
X64455706Y-73945928D01*
X64460091Y-73942885D01*
X64471115Y-73938434D01*
X64477291Y-73932888D01*
X64510973Y-73922344D01*
X64512504Y-73922096D01*
X64532332Y-73920500D01*
X65091380Y-73920500D01*
X65091443Y-73920501D01*
X65093347Y-73920501D01*
X65100943Y-73920501D01*
X65259054Y-73920501D01*
X65259057Y-73920501D01*
X65411785Y-73879577D01*
X65461904Y-73850639D01*
X65525805Y-73813745D01*
X65558555Y-73800634D01*
X65572026Y-73797367D01*
X65589836Y-73798215D01*
X65593695Y-73797279D01*
X65597446Y-73798577D01*
X65641815Y-73800690D01*
X65698730Y-73841218D01*
X65723575Y-73897501D01*
X65725315Y-73907949D01*
X65727000Y-73928319D01*
X65727000Y-74919998D01*
X65727003Y-74920045D01*
X65737500Y-75022799D01*
X65737501Y-75022800D01*
X65760229Y-75091389D01*
X65766450Y-75126125D01*
X65766988Y-75141747D01*
X65762554Y-75159024D01*
X65762630Y-75161218D01*
X65761507Y-75163103D01*
X65749622Y-75209424D01*
X65749589Y-75209480D01*
X65748662Y-75211036D01*
X65705270Y-75254294D01*
X65698615Y-75258231D01*
X65674485Y-75269213D01*
X65520769Y-75320151D01*
X65520706Y-75320172D01*
X65520662Y-75320187D01*
X65371340Y-75412290D01*
X65247290Y-75536340D01*
X65155187Y-75685662D01*
X65155152Y-75685770D01*
X65111050Y-75818857D01*
X65111044Y-75818875D01*
X65100001Y-75852203D01*
X65100001Y-75852204D01*
X65100000Y-75852204D01*
X65099230Y-75859735D01*
X65099229Y-75859741D01*
X65089500Y-75954973D01*
X65089500Y-76579998D01*
X65089503Y-76580045D01*
X65100000Y-76682796D01*
X65100001Y-76682799D01*
X65144497Y-76817075D01*
X65148954Y-76830525D01*
X65148954Y-76830528D01*
X65155184Y-76849330D01*
X65155184Y-76849331D01*
X65155186Y-76849334D01*
X65247288Y-76998656D01*
X65371344Y-77122712D01*
X65520666Y-77214814D01*
X65687203Y-77269999D01*
X65789991Y-77280500D01*
X66790008Y-77280499D01*
X66790016Y-77280498D01*
X66790019Y-77280498D01*
X66790027Y-77280497D01*
X66790317Y-77280479D01*
X66791333Y-77280363D01*
X66836459Y-77275753D01*
X66846303Y-77274748D01*
X66846303Y-77274747D01*
X66892797Y-77269999D01*
X67059334Y-77214814D01*
X67208656Y-77122712D01*
X67332712Y-76998656D01*
X67424814Y-76849334D01*
X67425992Y-76845776D01*
X67439812Y-76817075D01*
X67452689Y-76797314D01*
X67494581Y-76757623D01*
X67511216Y-76748020D01*
X67623020Y-76636216D01*
X67623020Y-76636214D01*
X67633228Y-76626007D01*
X67633230Y-76626004D01*
X68061274Y-76197960D01*
X68061277Y-76197958D01*
X68078715Y-76180520D01*
X68078716Y-76180520D01*
X68190520Y-76068716D01*
X68256179Y-75954991D01*
X68269577Y-75931785D01*
X68310500Y-75779058D01*
X68310500Y-75654328D01*
X68315523Y-75619392D01*
X68319927Y-75604394D01*
X68357672Y-75545643D01*
X68357700Y-75545618D01*
X68357699Y-75545618D01*
X68359041Y-75544455D01*
X68413920Y-75516976D01*
X68421479Y-75515332D01*
X68447832Y-75512499D01*
X68750371Y-75512499D01*
X68750372Y-75512499D01*
X68809983Y-75506091D01*
X68944831Y-75455796D01*
X69060046Y-75369546D01*
X69146296Y-75254331D01*
X69196591Y-75119483D01*
X69203000Y-75059873D01*
X69202999Y-74740128D01*
X69202093Y-74731705D01*
X69200889Y-74720499D01*
X69200820Y-74719860D01*
X69200110Y-74706609D01*
X69200110Y-74693393D01*
X69200212Y-74691489D01*
X69200130Y-74691190D01*
X69200248Y-74690811D01*
X69200821Y-74680135D01*
X69202232Y-74667015D01*
X69203000Y-74659873D01*
X69202999Y-74340128D01*
X69196591Y-74280517D01*
X69188892Y-74259876D01*
X69151654Y-74160035D01*
X69144153Y-74125551D01*
X69142148Y-74097514D01*
X69149651Y-74045335D01*
X69159895Y-74017871D01*
X69178159Y-73968901D01*
X69196591Y-73919483D01*
X69203000Y-73859873D01*
X69202999Y-73540128D01*
X69202999Y-73540127D01*
X69202998Y-73540116D01*
X69200678Y-73518545D01*
X69200568Y-73517261D01*
X69200657Y-73516818D01*
X69200110Y-73506612D01*
X69200110Y-73493392D01*
X69200821Y-73480133D01*
X69203000Y-73459873D01*
X69202999Y-73140128D01*
X69196591Y-73080517D01*
X69196591Y-73080516D01*
X69196591Y-73080515D01*
X69190053Y-73062987D01*
X69190052Y-73062985D01*
X69146298Y-72945673D01*
X69146297Y-72945671D01*
X69146293Y-72945664D01*
X69060048Y-72830456D01*
X69060042Y-72830450D01*
X69002116Y-72787086D01*
X68944835Y-72744206D01*
X68944831Y-72744204D01*
X68944827Y-72744201D01*
X68944825Y-72744200D01*
X68820154Y-72697702D01*
X68820151Y-72697701D01*
X68809986Y-72693910D01*
X68809985Y-72693909D01*
X68809983Y-72693909D01*
X68796521Y-72692461D01*
X68796514Y-72692460D01*
X68750383Y-72687501D01*
X68750381Y-72687500D01*
X68750373Y-72687500D01*
X68750365Y-72687500D01*
X68149623Y-72687500D01*
X68147690Y-72687659D01*
X68146044Y-72687885D01*
X68126972Y-72689935D01*
X68116328Y-72688014D01*
X68063568Y-72697531D01*
X68041557Y-72699500D01*
X67737927Y-72699500D01*
X67705687Y-72695235D01*
X67704305Y-72694863D01*
X67690656Y-72690855D01*
X67684223Y-72689455D01*
X67681287Y-72688665D01*
X67653963Y-72671964D01*
X67625847Y-72656612D01*
X67582704Y-72613469D01*
X67561553Y-72585215D01*
X67550013Y-72564081D01*
X67535044Y-72511671D01*
X67534974Y-72510427D01*
X67535365Y-72493172D01*
X67535339Y-72493171D01*
X67535388Y-72492203D01*
X67535419Y-72490793D01*
X67535500Y-72490009D01*
X67535499Y-71889992D01*
X67531476Y-71850614D01*
X67524999Y-71787203D01*
X67524998Y-71787200D01*
X67492788Y-71689998D01*
X67469814Y-71620666D01*
X67377712Y-71471344D01*
X67253656Y-71347288D01*
X67253655Y-71347287D01*
X67128507Y-71270096D01*
X67128506Y-71270095D01*
X67124911Y-71267878D01*
X67104336Y-71255187D01*
X67104331Y-71255185D01*
X67102862Y-71254698D01*
X67003120Y-71221647D01*
X66946265Y-71202807D01*
X66943445Y-71201641D01*
X66937792Y-71199999D01*
X66835019Y-71189500D01*
X66835010Y-71189500D01*
X65784998Y-71189500D01*
X65784980Y-71189501D01*
X65784972Y-71189501D01*
X65784953Y-71189503D01*
X65682197Y-71200000D01*
X65682193Y-71200001D01*
X65682032Y-71200056D01*
X65515667Y-71255185D01*
X65515665Y-71255186D01*
X65515663Y-71255187D01*
X65442168Y-71300519D01*
X65366340Y-71347290D01*
X65242290Y-71471340D01*
X65242289Y-71471342D01*
X65154404Y-71613827D01*
X65150186Y-71620665D01*
X65150177Y-71620691D01*
X65132940Y-71672708D01*
X65132940Y-71672712D01*
X65111965Y-71736009D01*
X65105300Y-71756123D01*
X65096852Y-71769069D01*
X65095365Y-71783630D01*
X65094542Y-71789881D01*
X65094359Y-71793476D01*
X65084500Y-71889973D01*
X65084500Y-72493856D01*
X65084346Y-72493856D01*
X65084380Y-72501133D01*
X65084202Y-72504534D01*
X65082503Y-72509367D01*
X65082328Y-72512094D01*
X65082458Y-72517329D01*
X65082136Y-72519060D01*
X65081884Y-72519013D01*
X65081539Y-72524402D01*
X65078863Y-72536706D01*
X65077854Y-72542132D01*
X65046241Y-72604440D01*
X65043628Y-72607134D01*
X64980190Y-72670573D01*
X64954326Y-72689935D01*
X64951942Y-72691720D01*
X64928856Y-72704328D01*
X64869422Y-72719500D01*
X64540181Y-72719500D01*
X64505240Y-72714475D01*
X64490241Y-72710070D01*
X64474515Y-72699963D01*
X64468213Y-72698944D01*
X64456328Y-72688275D01*
X64431471Y-72672300D01*
X64427984Y-72668276D01*
X64422384Y-72657803D01*
X64416220Y-72652270D01*
X64402123Y-72619913D01*
X64401711Y-72618413D01*
X64397994Y-72598826D01*
X64397029Y-72589856D01*
X64396320Y-72576609D01*
X64396320Y-72563391D01*
X64397031Y-72550134D01*
X64400500Y-72517873D01*
X64400499Y-72122128D01*
X64394091Y-72062517D01*
X64389200Y-72049403D01*
X64343797Y-71927670D01*
X64332102Y-71912048D01*
X64323578Y-71900662D01*
X64317855Y-71887645D01*
X64317787Y-71887120D01*
X64312594Y-71877611D01*
X64307129Y-71862960D01*
X64302144Y-71793274D01*
X64304171Y-71783953D01*
X64326070Y-71736009D01*
X64343796Y-71712331D01*
X64358575Y-71672708D01*
X64394091Y-71577483D01*
X64400499Y-71517886D01*
X64400499Y-71517882D01*
X64400500Y-71517873D01*
X64400499Y-71452416D01*
X64405520Y-71417488D01*
X64410823Y-71399428D01*
X64444232Y-71344620D01*
X64451772Y-71337431D01*
X64475338Y-71319789D01*
X64508716Y-71300520D01*
X64620520Y-71188716D01*
X64620521Y-71188714D01*
X65100520Y-70708716D01*
X65179577Y-70571784D01*
X65220501Y-70419057D01*
X65220501Y-70260942D01*
X65220501Y-70253347D01*
X65220501Y-70251663D01*
X65220500Y-70251589D01*
X65220500Y-66328442D01*
X65220364Y-66327604D01*
X65219549Y-66324893D01*
X65179577Y-66175715D01*
X65140021Y-66107203D01*
X65100520Y-66038784D01*
X65025776Y-65964040D01*
X65021220Y-65958249D01*
X65017496Y-65948955D01*
X65003891Y-65928488D01*
X65001882Y-65923572D01*
X65000659Y-65921333D01*
X65000476Y-65920616D01*
X65000392Y-65920438D01*
X65000427Y-65920421D01*
X64985499Y-65861919D01*
X64985499Y-65260008D01*
X64985499Y-65259998D01*
X64985498Y-65259981D01*
X64974999Y-65157203D01*
X64974998Y-65157200D01*
X64964700Y-65126124D01*
X64954922Y-65096615D01*
X64938910Y-65048294D01*
X64919814Y-64990666D01*
X64827712Y-64841344D01*
X64703656Y-64717288D01*
X64703655Y-64717287D01*
X64590521Y-64647506D01*
X64557382Y-64627066D01*
X64554336Y-64625187D01*
X64554331Y-64625185D01*
X64552862Y-64624698D01*
X64396265Y-64572807D01*
X64393445Y-64571641D01*
X64387792Y-64569999D01*
X64285019Y-64559500D01*
X64285010Y-64559500D01*
X63659998Y-64559500D01*
X63659980Y-64559501D01*
X63659972Y-64559501D01*
X63659953Y-64559503D01*
X63557197Y-64570000D01*
X63557193Y-64570001D01*
X63557032Y-64570056D01*
X63390667Y-64625185D01*
X63390665Y-64625186D01*
X63390663Y-64625187D01*
X63313691Y-64672664D01*
X63241340Y-64717290D01*
X63117290Y-64841340D01*
X63117289Y-64841342D01*
X63025530Y-64990108D01*
X63025185Y-64990667D01*
X63025178Y-64990685D01*
X63006090Y-65048293D01*
X63006089Y-65048296D01*
X62980298Y-65126124D01*
X62971852Y-65139067D01*
X62970365Y-65153630D01*
X62969542Y-65159881D01*
X62969359Y-65163476D01*
X62959500Y-65259973D01*
X62959500Y-66083097D01*
X62939815Y-66150136D01*
X62887011Y-66195891D01*
X62878835Y-66199278D01*
X62791389Y-66231894D01*
X62791383Y-66231897D01*
X62791381Y-66231898D01*
X62773688Y-66241558D01*
X62730060Y-66265381D01*
X62614882Y-66351603D01*
X62614869Y-66351614D01*
X62573242Y-66393240D01*
X62550659Y-66411096D01*
X62526583Y-66425946D01*
X62500491Y-66438113D01*
X62469236Y-66448470D01*
X62442858Y-66454120D01*
X62441878Y-66454220D01*
X62440557Y-66454355D01*
X62427936Y-66454999D01*
X62054500Y-66454999D01*
X62054491Y-66454999D01*
X62054490Y-66455000D01*
X61947049Y-66466551D01*
X61947037Y-66466553D01*
X61895527Y-66477759D01*
X61793002Y-66511882D01*
X61792996Y-66511885D01*
X61671962Y-66589670D01*
X61671951Y-66589678D01*
X61619159Y-66635422D01*
X61524933Y-66744163D01*
X61524930Y-66744167D01*
X61471794Y-66860517D01*
X61426039Y-66913321D01*
X61358999Y-66933005D01*
X61291960Y-66913320D01*
X61246205Y-66860515D01*
X61235000Y-66809005D01*
X61235000Y-66484510D01*
X61235000Y-66484500D01*
X61223447Y-66377044D01*
X61212241Y-66325533D01*
X61202261Y-66295548D01*
X61178116Y-66223002D01*
X61178113Y-66222996D01*
X61160625Y-66195784D01*
X61100325Y-66101957D01*
X61100320Y-66101951D01*
X61054576Y-66049159D01*
X61054572Y-66049156D01*
X61054570Y-66049153D01*
X60945836Y-65954933D01*
X60945833Y-65954931D01*
X60945831Y-65954930D01*
X60814965Y-65895164D01*
X60814960Y-65895162D01*
X60814959Y-65895162D01*
X60747920Y-65875477D01*
X60747922Y-65875477D01*
X60747917Y-65875476D01*
X60689770Y-65867116D01*
X60605500Y-65855000D01*
X60605498Y-65855000D01*
X60307721Y-65855000D01*
X60307689Y-65855001D01*
X60179197Y-65855001D01*
X60162038Y-65853808D01*
X60150969Y-65852261D01*
X60150957Y-65852260D01*
X60135657Y-65852018D01*
X60135650Y-65852018D01*
X60051071Y-65857792D01*
X60051056Y-65857794D01*
X60010102Y-65864072D01*
X60010087Y-65864075D01*
X59991539Y-65868536D01*
X59975153Y-65871330D01*
X59945544Y-65874356D01*
X59932937Y-65874999D01*
X59372065Y-65874999D01*
X59359456Y-65874356D01*
X59357157Y-65874121D01*
X59330762Y-65868470D01*
X59299507Y-65858113D01*
X59273415Y-65845946D01*
X59249339Y-65831096D01*
X59226754Y-65813238D01*
X59206760Y-65793244D01*
X59188901Y-65770657D01*
X59174051Y-65746580D01*
X59161886Y-65720493D01*
X59151528Y-65689237D01*
X59145872Y-65662801D01*
X59145637Y-65660500D01*
X59145000Y-65647942D01*
X59145000Y-64712058D01*
X59145642Y-64699458D01*
X59145876Y-64697167D01*
X59151525Y-64670772D01*
X59161888Y-64639499D01*
X59174049Y-64613420D01*
X59200929Y-64569840D01*
X59210647Y-64556235D01*
X59211260Y-64555489D01*
X59240720Y-64515807D01*
X59240720Y-64515806D01*
X59240722Y-64515804D01*
X59302901Y-64386064D01*
X59302900Y-64386064D01*
X59302904Y-64386058D01*
X59323521Y-64320366D01*
X59323796Y-64319515D01*
X59323823Y-64319405D01*
X59323827Y-64319394D01*
X59323828Y-64319391D01*
X59346937Y-64177378D01*
X59329101Y-64034608D01*
X59310661Y-63967216D01*
X59253324Y-63835254D01*
X59253322Y-63835251D01*
X59253321Y-63835248D01*
X59214052Y-63771583D01*
X59201886Y-63745492D01*
X59191528Y-63714235D01*
X59185872Y-63687801D01*
X59185637Y-63685500D01*
X59185000Y-63672942D01*
X59185000Y-62687058D01*
X59185642Y-62674458D01*
X59185876Y-62672167D01*
X59191525Y-62645772D01*
X59201889Y-62614496D01*
X59214052Y-62588414D01*
X59228903Y-62564336D01*
X59246758Y-62541756D01*
X59318788Y-62469727D01*
X59318787Y-62469726D01*
X59337140Y-62451374D01*
X59338473Y-62446838D01*
X59353392Y-62427945D01*
X59373335Y-62407198D01*
X59373334Y-62407198D01*
X59373338Y-62407195D01*
X59412607Y-62353265D01*
X59477590Y-62232361D01*
X59508173Y-62091769D01*
X59513157Y-62022077D01*
X59512994Y-62019804D01*
X59510892Y-61990407D01*
X59502893Y-61878566D01*
X59452611Y-61743757D01*
X59419126Y-61682434D01*
X59332902Y-61567253D01*
X59332897Y-61567248D01*
X59332892Y-61567242D01*
X58083904Y-60318255D01*
X58083879Y-60318231D01*
X58031318Y-60265670D01*
X57997833Y-60204347D01*
X57994999Y-60177989D01*
X57994999Y-60105087D01*
X57995000Y-60105052D01*
X57995000Y-57675385D01*
X57994170Y-57653219D01*
X57993585Y-57637587D01*
X57992198Y-57619092D01*
X57987958Y-57581496D01*
X57946469Y-57443728D01*
X57946466Y-57443722D01*
X57946466Y-57443720D01*
X57917011Y-57380386D01*
X57917008Y-57380381D01*
X57917005Y-57380374D01*
X57838384Y-57259878D01*
X57811216Y-57236663D01*
X57729003Y-57166412D01*
X57728992Y-57166404D01*
X57669964Y-57129043D01*
X57666055Y-57127188D01*
X57664316Y-57126511D01*
X57538679Y-57070180D01*
X57538675Y-57070178D01*
X57538671Y-57070177D01*
X57417550Y-57035520D01*
X57394254Y-57026214D01*
X57327376Y-56991280D01*
X57306427Y-56977473D01*
X57273404Y-56950547D01*
X57273393Y-56950539D01*
X57247948Y-56929791D01*
X57230209Y-56912051D01*
X57182526Y-56853572D01*
X57168720Y-56832625D01*
X57133785Y-56765747D01*
X57124476Y-56742441D01*
X57115434Y-56710836D01*
X57115421Y-56710794D01*
X57109388Y-56689710D01*
X57099669Y-56655746D01*
X57099295Y-56654445D01*
X57099097Y-56653760D01*
X57098501Y-56651715D01*
X57038732Y-56520837D01*
X57000958Y-56462059D01*
X57000956Y-56462057D01*
X57000955Y-56462056D01*
X56999561Y-56460326D01*
X56998054Y-56458708D01*
X56906736Y-56353320D01*
X56906735Y-56353319D01*
X56898502Y-56348028D01*
X56785695Y-56275532D01*
X56722632Y-56246732D01*
X56722152Y-56246510D01*
X56722136Y-56246505D01*
X56584083Y-56205971D01*
X56584082Y-56205971D01*
X56494500Y-56205971D01*
X56427461Y-56186286D01*
X56381706Y-56133482D01*
X56370500Y-56081971D01*
X56370500Y-52722329D01*
X56375523Y-52687393D01*
X56379927Y-52672395D01*
X56417672Y-52613644D01*
X56417700Y-52613619D01*
X56417699Y-52613619D01*
X56419041Y-52612456D01*
X56473920Y-52584977D01*
X56481479Y-52583333D01*
X56507832Y-52580500D01*
X59795130Y-52580500D01*
X59830057Y-52585521D01*
G37*
%TD.AperFunction*%
%TA.AperFunction,Conductor*%
G36*
X63249540Y-77158960D02*
G01*
X63265664Y-77168905D01*
X63288244Y-77186760D01*
X63308237Y-77206753D01*
X63326094Y-77229337D01*
X63346719Y-77262775D01*
X63352607Y-77273465D01*
X63353889Y-77276091D01*
X63407297Y-77385482D01*
X63407309Y-77385503D01*
X63421158Y-77406258D01*
X63443806Y-77440201D01*
X63533265Y-77541667D01*
X63654305Y-77619454D01*
X63654312Y-77619457D01*
X63654315Y-77619459D01*
X63681187Y-77631730D01*
X63717861Y-77648479D01*
X63717864Y-77648481D01*
X63855840Y-77688992D01*
X63856321Y-77689138D01*
X63885124Y-77707990D01*
X63914105Y-77726615D01*
X63914329Y-77727106D01*
X63914781Y-77727402D01*
X63928807Y-77758807D01*
X63943131Y-77790170D01*
X63943054Y-77790705D01*
X63943274Y-77791198D01*
X63938091Y-77825221D01*
X63933188Y-77859329D01*
X63932834Y-77859737D01*
X63932753Y-77860271D01*
X63910018Y-77886069D01*
X63887434Y-77912134D01*
X63886808Y-77912406D01*
X63886558Y-77912691D01*
X63885402Y-77913019D01*
X63851217Y-77927927D01*
X63747819Y-77954462D01*
X63683310Y-77981283D01*
X63683308Y-77981284D01*
X63585105Y-78039725D01*
X63559669Y-78054862D01*
X63461764Y-78160295D01*
X63421991Y-78217739D01*
X63421985Y-78217747D01*
X63357752Y-78346494D01*
X63350500Y-78368374D01*
X63346856Y-78375847D01*
X63345007Y-78377874D01*
X63340946Y-78386583D01*
X63326096Y-78410659D01*
X63308238Y-78433244D01*
X63288244Y-78453238D01*
X63265659Y-78471096D01*
X63241583Y-78485946D01*
X63215492Y-78498112D01*
X63184238Y-78508469D01*
X63157853Y-78514120D01*
X63155556Y-78514355D01*
X63142936Y-78514999D01*
X62582065Y-78514999D01*
X62569456Y-78514356D01*
X62567157Y-78514121D01*
X62540762Y-78508470D01*
X62509507Y-78498113D01*
X62483415Y-78485946D01*
X62459339Y-78471096D01*
X62436754Y-78453238D01*
X62395126Y-78411610D01*
X62395108Y-78411593D01*
X62310990Y-78343806D01*
X62310985Y-78343802D01*
X62310983Y-78343801D01*
X62310981Y-78343799D01*
X62266634Y-78315298D01*
X62266635Y-78315298D01*
X62266628Y-78315294D01*
X62169987Y-78266920D01*
X62169986Y-78266919D01*
X62169985Y-78266919D01*
X62148138Y-78262166D01*
X62086817Y-78228681D01*
X62053332Y-78167357D01*
X62050499Y-78141001D01*
X62050499Y-77447042D01*
X62070184Y-77380003D01*
X62122988Y-77334248D01*
X62149992Y-77327360D01*
X62149646Y-77325768D01*
X62158303Y-77323884D01*
X62158310Y-77323884D01*
X62293119Y-77273602D01*
X62354442Y-77240117D01*
X62354453Y-77240111D01*
X62400307Y-77205781D01*
X62401116Y-77205198D01*
X62401404Y-77205096D01*
X62408608Y-77200192D01*
X62475456Y-77158961D01*
X62540552Y-77140500D01*
X63184446Y-77140500D01*
X63249540Y-77158960D01*
G37*
%TD.AperFunction*%
%TA.AperFunction,Conductor*%
G36*
X62601130Y-74719823D02*
G01*
X62620042Y-74723236D01*
X62634324Y-74729913D01*
X62647519Y-74731572D01*
X62677537Y-74750117D01*
X62685028Y-74756377D01*
X62704767Y-74777204D01*
X62729645Y-74810435D01*
X62729645Y-74810436D01*
X62742453Y-74827545D01*
X62742455Y-74827547D01*
X62813587Y-74880797D01*
X62834092Y-74908189D01*
X62854972Y-74935449D01*
X62855030Y-74936160D01*
X62855458Y-74936731D01*
X62857902Y-74970916D01*
X62860726Y-75005082D01*
X62860391Y-75005711D01*
X62860442Y-75006422D01*
X62844032Y-75036472D01*
X62827920Y-75066771D01*
X62827218Y-75067263D01*
X62826956Y-75067745D01*
X62799901Y-75088232D01*
X62795433Y-75090736D01*
X62774570Y-75100264D01*
X62755942Y-75112235D01*
X62756241Y-75112701D01*
X62744950Y-75119030D01*
X62744819Y-75119059D01*
X62743756Y-75119691D01*
X62735261Y-75124330D01*
X62675830Y-75139500D01*
X62391453Y-75139500D01*
X62198176Y-75177945D01*
X62198162Y-75177949D01*
X62088420Y-75223405D01*
X62054231Y-75232132D01*
X62048758Y-75232720D01*
X62040433Y-75233615D01*
X61971675Y-75221214D01*
X61920535Y-75173606D01*
X61920526Y-75173591D01*
X61917853Y-75169085D01*
X61900500Y-75105821D01*
X61900500Y-74862328D01*
X61905523Y-74827392D01*
X61909927Y-74812394D01*
X61919557Y-74797403D01*
X61924567Y-74780323D01*
X61947672Y-74753643D01*
X61949041Y-74752456D01*
X62003920Y-74724976D01*
X62011479Y-74723332D01*
X62037832Y-74720499D01*
X62547872Y-74720499D01*
X62565860Y-74718565D01*
X62601130Y-74719823D01*
G37*
%TD.AperFunction*%
%TA.AperFunction,Conductor*%
G36*
X61902734Y-68310894D02*
G01*
X62016062Y-68386617D01*
X62016066Y-68386619D01*
X62016079Y-68386628D01*
X62016092Y-68386635D01*
X62016094Y-68386635D01*
X62016098Y-68386638D01*
X62158757Y-68445728D01*
X62192549Y-68459725D01*
X62196962Y-68461812D01*
X62391453Y-68500500D01*
X62391456Y-68500500D01*
X62667853Y-68500500D01*
X62722963Y-68513419D01*
X62737116Y-68520440D01*
X62742455Y-68525067D01*
X62792614Y-68547974D01*
X62794387Y-68548854D01*
X62818644Y-68571277D01*
X62843593Y-68592896D01*
X62844175Y-68594878D01*
X62845693Y-68596282D01*
X62853972Y-68628247D01*
X62863277Y-68659935D01*
X62862694Y-68661918D01*
X62863213Y-68663920D01*
X62852895Y-68695292D01*
X62843592Y-68726975D01*
X62841864Y-68728830D01*
X62841384Y-68730292D01*
X62837779Y-68733217D01*
X62813588Y-68759201D01*
X62742459Y-68812448D01*
X62742451Y-68812456D01*
X62706792Y-68860088D01*
X62706792Y-68860090D01*
X62681834Y-68885046D01*
X62666452Y-68896560D01*
X62607607Y-68920322D01*
X62597939Y-68921537D01*
X62569224Y-68921795D01*
X62547876Y-68919500D01*
X62547873Y-68919500D01*
X62547867Y-68919500D01*
X61929000Y-68919500D01*
X61861961Y-68899815D01*
X61816206Y-68847011D01*
X61805000Y-68795500D01*
X61805000Y-68770094D01*
X61804183Y-68754874D01*
X61802103Y-68716057D01*
X61799269Y-68689699D01*
X61797641Y-68679655D01*
X61791774Y-68643447D01*
X61790614Y-68636287D01*
X61740332Y-68501478D01*
X61725011Y-68473420D01*
X61710160Y-68405151D01*
X61734576Y-68339686D01*
X61790509Y-68297815D01*
X61860201Y-68292830D01*
X61902734Y-68310894D01*
G37*
%TD.AperFunction*%
%TA.AperFunction,Conductor*%
G36*
X68974270Y-52585521D02*
G01*
X68987589Y-52589432D01*
X69002733Y-52599165D01*
X69007537Y-52599985D01*
X69015905Y-52607630D01*
X69046367Y-52627206D01*
X69052833Y-52641365D01*
X69059122Y-52647110D01*
X69064202Y-52666258D01*
X69075393Y-52690761D01*
X69075394Y-52690770D01*
X69075822Y-52693748D01*
X69074774Y-52706104D01*
X69077040Y-52714643D01*
X69071102Y-52749434D01*
X69070318Y-52751866D01*
X69062208Y-52771231D01*
X68986090Y-52916950D01*
X68930848Y-53110016D01*
X68930236Y-53111992D01*
X68930113Y-53112581D01*
X68919500Y-53231967D01*
X68919500Y-56348034D01*
X68919835Y-56352089D01*
X68919921Y-56352760D01*
X68930113Y-56467416D01*
X68959586Y-56570421D01*
X68983687Y-56654652D01*
X68986090Y-56663048D01*
X68986284Y-56663629D01*
X68987201Y-56665209D01*
X68987669Y-56666070D01*
X69080302Y-56843407D01*
X69080304Y-56843409D01*
X69091594Y-56857255D01*
X69091595Y-56857257D01*
X69208887Y-57001106D01*
X69208888Y-57001107D01*
X69208890Y-57001109D01*
X69297560Y-57073409D01*
X69366593Y-57129698D01*
X69546951Y-57223909D01*
X69742582Y-57279886D01*
X69783697Y-57283541D01*
X69818050Y-57291638D01*
X69838288Y-57299587D01*
X69886410Y-57333503D01*
X69889955Y-57337568D01*
X69893331Y-57342294D01*
X69893490Y-57342417D01*
X69893559Y-57342612D01*
X69903885Y-57357065D01*
X69918883Y-57383042D01*
X69939474Y-57418707D01*
X69939481Y-57418717D01*
X69939485Y-57418722D01*
X70060314Y-57539551D01*
X70060359Y-57539594D01*
X71054085Y-58533320D01*
X71054106Y-58533342D01*
X71055149Y-58534385D01*
X71059479Y-58538715D01*
X71059480Y-58538716D01*
X71171284Y-58650520D01*
X71229014Y-58683850D01*
X71308215Y-58729577D01*
X71460942Y-58770500D01*
X71460943Y-58770500D01*
X74641380Y-58770500D01*
X74641443Y-58770501D01*
X74643347Y-58770501D01*
X74650943Y-58770501D01*
X74809054Y-58770501D01*
X74809057Y-58770501D01*
X74961785Y-58729577D01*
X75040986Y-58683850D01*
X75098716Y-58650520D01*
X75210520Y-58538716D01*
X75210520Y-58538715D01*
X75227956Y-58521279D01*
X75227960Y-58521272D01*
X75969816Y-57779418D01*
X75998061Y-57758275D01*
X76021153Y-57745667D01*
X76080578Y-57730500D01*
X77772073Y-57730500D01*
X77807005Y-57735521D01*
X77832249Y-57742934D01*
X77884995Y-57774230D01*
X82130574Y-62019809D01*
X82151723Y-62048060D01*
X82164331Y-62071149D01*
X82179500Y-62130578D01*
X82179500Y-63351538D01*
X82174475Y-63386481D01*
X82170357Y-63400502D01*
X82132578Y-63459278D01*
X82071217Y-63487962D01*
X82058733Y-63489985D01*
X82025651Y-63490872D01*
X82012892Y-63489501D01*
X82012874Y-63489500D01*
X82012873Y-63489500D01*
X82012871Y-63489500D01*
X81667132Y-63489500D01*
X81667130Y-63489500D01*
X81667128Y-63489500D01*
X81666423Y-63489550D01*
X81664979Y-63489731D01*
X81607516Y-63495907D01*
X81472666Y-63546204D01*
X81472665Y-63546205D01*
X81357456Y-63632450D01*
X81357450Y-63632456D01*
X81271205Y-63747665D01*
X81271203Y-63747668D01*
X81220908Y-63882516D01*
X81214500Y-63942125D01*
X81214500Y-64272670D01*
X81214499Y-64272676D01*
X81214500Y-64272679D01*
X81209475Y-64307614D01*
X81205070Y-64322612D01*
X81167327Y-64381355D01*
X81167292Y-64381385D01*
X81167291Y-64381387D01*
X81167289Y-64381387D01*
X81165958Y-64382542D01*
X81111097Y-64410018D01*
X81103539Y-64411663D01*
X81077168Y-64414500D01*
X80742130Y-64414500D01*
X80742128Y-64414500D01*
X80741423Y-64414550D01*
X80739979Y-64414731D01*
X80682516Y-64420907D01*
X80547666Y-64471204D01*
X80547665Y-64471205D01*
X80432456Y-64557450D01*
X80432450Y-64557456D01*
X80346205Y-64672665D01*
X80346202Y-64672670D01*
X80309287Y-64771647D01*
X80304301Y-64785016D01*
X80295909Y-64807517D01*
X80289500Y-64867127D01*
X80289500Y-64867134D01*
X80289500Y-64867135D01*
X80289500Y-64925602D01*
X80288488Y-64933477D01*
X80286612Y-64937753D01*
X80284475Y-64952614D01*
X80280070Y-64967612D01*
X80242327Y-65026355D01*
X80240958Y-65027542D01*
X80186097Y-65055018D01*
X80178539Y-65056663D01*
X80152168Y-65059500D01*
X78416323Y-65059500D01*
X78416322Y-65059499D01*
X78416322Y-65059500D01*
X78381387Y-65054477D01*
X78356145Y-65047065D01*
X78303400Y-65015769D01*
X78269532Y-64981901D01*
X78097574Y-64856968D01*
X78097008Y-64856621D01*
X78095377Y-64855372D01*
X78093651Y-64854118D01*
X78093682Y-64854074D01*
X78076710Y-64841077D01*
X78066433Y-64831372D01*
X78031207Y-64771032D01*
X78034195Y-64701227D01*
X78070362Y-64647510D01*
X78077533Y-64641296D01*
X78093951Y-64629281D01*
X78097563Y-64627068D01*
X78116359Y-64613412D01*
X78190562Y-64559501D01*
X78269536Y-64502124D01*
X78269537Y-64502122D01*
X78269593Y-64502082D01*
X78270355Y-64501305D01*
X78419854Y-64351807D01*
X78419856Y-64351803D01*
X78419859Y-64351801D01*
X78544798Y-64179835D01*
X78544797Y-64179835D01*
X78544801Y-64179831D01*
X78544803Y-64179825D01*
X78565195Y-64151759D01*
X78573480Y-64123544D01*
X78641307Y-63990427D01*
X78706996Y-63788258D01*
X78740250Y-63578302D01*
X78740250Y-63365728D01*
X78706996Y-63155772D01*
X78641307Y-62953603D01*
X78544801Y-62764199D01*
X78544799Y-62764196D01*
X78544798Y-62764194D01*
X78544452Y-62763718D01*
X78544450Y-62763714D01*
X78419862Y-62592231D01*
X78269532Y-62441901D01*
X78097574Y-62316968D01*
X78097008Y-62316621D01*
X78095377Y-62315372D01*
X78093651Y-62314118D01*
X78093682Y-62314074D01*
X78076710Y-62301077D01*
X78066433Y-62291372D01*
X78031207Y-62231032D01*
X78034195Y-62161227D01*
X78070362Y-62107510D01*
X78077533Y-62101296D01*
X78093944Y-62089284D01*
X78097545Y-62087076D01*
X78097566Y-62087066D01*
X78116216Y-62073516D01*
X78122799Y-62068734D01*
X78172786Y-62032416D01*
X78269536Y-61962124D01*
X78269538Y-61962121D01*
X78269542Y-61962119D01*
X78269549Y-61962111D01*
X78269601Y-61962074D01*
X78270343Y-61961318D01*
X78419854Y-61811807D01*
X78419856Y-61811803D01*
X78419859Y-61811801D01*
X78544798Y-61639835D01*
X78544797Y-61639835D01*
X78544801Y-61639831D01*
X78544803Y-61639825D01*
X78565195Y-61611759D01*
X78573480Y-61583544D01*
X78641307Y-61450427D01*
X78706996Y-61248258D01*
X78740250Y-61038302D01*
X78740250Y-60825728D01*
X78706996Y-60615772D01*
X78641307Y-60413603D01*
X78544801Y-60224199D01*
X78544799Y-60224196D01*
X78544798Y-60224194D01*
X78544454Y-60223720D01*
X78544451Y-60223715D01*
X78419862Y-60052231D01*
X78269538Y-59901907D01*
X78269536Y-59901905D01*
X78097570Y-59776966D01*
X78083917Y-59770009D01*
X77929995Y-59691582D01*
X77929990Y-59691580D01*
X77908164Y-59680459D01*
X77908163Y-59680458D01*
X77908162Y-59680458D01*
X77762096Y-59632998D01*
X77714824Y-59617638D01*
X77710302Y-59615785D01*
X77701112Y-59613615D01*
X77696349Y-59613241D01*
X77544707Y-59589223D01*
X77525239Y-59586139D01*
X77496040Y-59581515D01*
X77496037Y-59581515D01*
X77283463Y-59581515D01*
X77283459Y-59581515D01*
X77244526Y-59587681D01*
X77234792Y-59589223D01*
X77197404Y-59595144D01*
X77073513Y-59614767D01*
X76871332Y-59680460D01*
X76681932Y-59776964D01*
X76681929Y-59776965D01*
X76681929Y-59776966D01*
X76650767Y-59799606D01*
X76509960Y-59901907D01*
X76359642Y-60052225D01*
X76239216Y-60217979D01*
X76239212Y-60217984D01*
X76234698Y-60224199D01*
X76234697Y-60224200D01*
X76221688Y-60249731D01*
X76220680Y-60251558D01*
X76218579Y-60253638D01*
X76202271Y-60276773D01*
X76190551Y-60289182D01*
X76132791Y-60323734D01*
X76119945Y-60327210D01*
X76087557Y-60331515D01*
X67599830Y-60331515D01*
X67599825Y-60331514D01*
X67599823Y-60331515D01*
X67564889Y-60326490D01*
X67549890Y-60322085D01*
X67491144Y-60284342D01*
X67491115Y-60284308D01*
X67491114Y-60284308D01*
X67491113Y-60284306D01*
X67489957Y-60282973D01*
X67462477Y-60228098D01*
X67460832Y-60220536D01*
X67458000Y-60194183D01*
X67458000Y-59994317D01*
X67458000Y-59994313D01*
X67457999Y-59994298D01*
X67455098Y-59957432D01*
X67455097Y-59957426D01*
X67409245Y-59799606D01*
X67409244Y-59799603D01*
X67409244Y-59799602D01*
X67325581Y-59658135D01*
X67325579Y-59658133D01*
X67325576Y-59658129D01*
X67322638Y-59655191D01*
X67322637Y-59655189D01*
X67209375Y-59541927D01*
X67209364Y-59541918D01*
X67209357Y-59541914D01*
X67067899Y-59458256D01*
X67067886Y-59458252D01*
X67065903Y-59457676D01*
X67012306Y-59442104D01*
X66910079Y-59412403D01*
X66910073Y-59412402D01*
X66910072Y-59412401D01*
X66910070Y-59412401D01*
X66873208Y-59409500D01*
X66873201Y-59409500D01*
X66873194Y-59409500D01*
X65716806Y-59409500D01*
X65716798Y-59409500D01*
X65716790Y-59409500D01*
X65679928Y-59412401D01*
X65679926Y-59412401D01*
X65679925Y-59412402D01*
X65679919Y-59412403D01*
X65522112Y-59458252D01*
X65522099Y-59458256D01*
X65393736Y-59534170D01*
X65375920Y-59542865D01*
X65354870Y-59551127D01*
X65285273Y-59557297D01*
X65223389Y-59524861D01*
X65189681Y-59467382D01*
X65187116Y-59457676D01*
X65183000Y-59425994D01*
X65183000Y-59044317D01*
X65183000Y-59044313D01*
X65182999Y-59044298D01*
X65180098Y-59007432D01*
X65180097Y-59007426D01*
X65134245Y-58849606D01*
X65134244Y-58849603D01*
X65134244Y-58849602D01*
X65050581Y-58708135D01*
X65050579Y-58708133D01*
X65050576Y-58708129D01*
X65047638Y-58705191D01*
X65047637Y-58705189D01*
X64934375Y-58591927D01*
X64934364Y-58591918D01*
X64934357Y-58591914D01*
X64827147Y-58528511D01*
X64827144Y-58528509D01*
X64806376Y-58516226D01*
X64806374Y-58516224D01*
X64799772Y-58511103D01*
X64783658Y-58504428D01*
X64775949Y-58503331D01*
X64698295Y-58480770D01*
X64635079Y-58462403D01*
X64635073Y-58462402D01*
X64635072Y-58462401D01*
X64635070Y-58462401D01*
X64598208Y-58459500D01*
X64598201Y-58459500D01*
X64598194Y-58459500D01*
X64452330Y-58459500D01*
X64452325Y-58459499D01*
X64452323Y-58459500D01*
X64417389Y-58454475D01*
X64402390Y-58450070D01*
X64343644Y-58412327D01*
X64343615Y-58412293D01*
X64343614Y-58412293D01*
X64343613Y-58412291D01*
X64342457Y-58410958D01*
X64314977Y-58356083D01*
X64313332Y-58348521D01*
X64310500Y-58322168D01*
X64310500Y-57643219D01*
X64315523Y-57608283D01*
X64319927Y-57593285D01*
X64335416Y-57569184D01*
X64357701Y-57534508D01*
X64359233Y-57533181D01*
X64364750Y-57528399D01*
X64411842Y-57502897D01*
X64473145Y-57485355D01*
X64583049Y-57453909D01*
X64763407Y-57359698D01*
X64921109Y-57231109D01*
X65049698Y-57073407D01*
X65143909Y-56893049D01*
X65199886Y-56697418D01*
X65210500Y-56578037D01*
X65210499Y-53461964D01*
X65199886Y-53342582D01*
X65143909Y-53146951D01*
X65049698Y-52966593D01*
X64929263Y-52818891D01*
X64921108Y-52808889D01*
X64917303Y-52805787D01*
X64910870Y-52798624D01*
X64909029Y-52794775D01*
X64900864Y-52785904D01*
X64894463Y-52776571D01*
X64881878Y-52738022D01*
X64880718Y-52735596D01*
X64880820Y-52734780D01*
X64872781Y-52710155D01*
X64890447Y-52642556D01*
X64941853Y-52595241D01*
X64945815Y-52593286D01*
X65000657Y-52580500D01*
X68939338Y-52580500D01*
X68974270Y-52585521D01*
G37*
%TD.AperFunction*%
%TD*%
M02*
